<svg width="1290" height="324" viewBox="0 0 1290 324" fill="none" xmlns="http://www.w3.org/2000/svg"><mask id="a" style="mask-type:alpha" maskUnits="userSpaceOnUse" x="0" y="0" width="1290" height="324"><rect width="1290" height="324" rx="20" fill="#D9D9D9"/></mask><g mask="url(#a)"><path d="M1270 0H20C8.954 0 0 8.954 0 20v284c0 11.046 8.954 20 20 20h1250c11.05 0 20-8.954 20-20V20c0-11.046-8.95-20-20-20" fill="url(#b)"/><rect x="834.651" y="143.812" width="106" height="106" rx="20" transform="rotate(162 834.651 143.812)" fill="#5506FD"/><path d="M798.537 102.818c-.003-.024-.027-.011-.042.008a.9.9 0 0 1-.398.292l-.873.327a.9.9 0 0 1-.783-.074l-5.563-3.246a.235.235 0 0 0-.339.285q.36.987.805 1.938c.159.339.528.537.881.414a.917.917 0 0 1 1.116.549l.167.445a.915.915 0 0 1-.538 1.146l-3.572 1.336c-.353.13-.77.233-1.063.468a2.1 2.1 0 0 1-.592.334.164.164 0 0 0-.104.177 19.95 19.95 0 0 1-2.54 13.051 19.98 19.98 0 0 1-10.306 8.611 20 20 0 0 1-13.435.149 19.98 19.98 0 0 1-10.242-7.991.574.574 0 0 0-.681-.229.9.9 0 0 1-.36.061c-.219-.007-.455.025-.604.185l-.032.035a2.4 2.4 0 0 1-.833.586 2.7 2.7 0 0 1-1.773.184c-.295-.07-.621.07-.885.218-.685.376-1.485.879-2.285 1.439a.87.87 0 0 1-.858.103l-.148-.058a.22.22 0 0 0-.235.051 3.1 3.1 0 0 1-2.386 1.005c-.086-.004-.154.081-.115.158.031.063.017.146-.044.182l-.808.476a.94.94 0 0 0-.331 1.29l.509.859c.291.49.923.654 1.415.366a1.053 1.053 0 0 1 1.396.318q.18.258.363.514c.317.44.253 1.054-.163 1.402-.43.359-.483.999-.119 1.425l.609.712a1.033 1.033 0 0 0 1.446.121 1.07 1.07 0 0 1 1.431.075q.223.22.451.436c.399.378.446 1 .097 1.425a1.03 1.03 0 0 0 .147 1.454l.712.575a1.05 1.05 0 0 0 1.468-.147 1.07 1.07 0 0 1 1.438-.188q.24.166.484.328c.465.31.624.926.351 1.414a1.05 1.05 0 0 0 .399 1.425l.773.437a1.04 1.04 0 0 0 1.42-.394c.277-.49.893-.67 1.405-.435q.257.117.513.228c.518.223.784.805.596 1.337a1.054 1.054 0 0 0 .64 1.343l.794.283a1.047 1.047 0 0 0 1.341-.643c.185-.535.762-.826 1.311-.688q.254.064.511.124c.561.129.931.668.835 1.236-.099.586.296 1.14.882 1.238l.796.132a1.094 1.094 0 0 0 1.259-.899 1.12 1.12 0 0 1 1.199-.922q.235.018.471.034a1.127 1.127 0 0 1 1.063 1.103 1.097 1.097 0 0 0 1.106 1.086l.773-.007a1.113 1.113 0 0 0 1.103-1.118 1.14 1.14 0 0 1 1.038-1.131l.446-.044a1.15 1.15 0 0 1 1.253.928 1.136 1.136 0 0 0 1.322.911l.673-.124a1.155 1.155 0 0 0 .927-1.346 1.18 1.18 0 0 1 .848-1.345q.167-.047.332-.096a1.186 1.186 0 0 1 1.45.709c.224.597.889.9 1.486.677l.579-.217c.626-.233.943-.93.708-1.555a1.24 1.24 0 0 1 .631-1.544l.223-.11a1.22 1.22 0 0 1 1.594.456 1.19 1.19 0 0 0 1.629.417l.497-.294a1.21 1.21 0 0 0 .426-1.656 1.24 1.24 0 0 1 .36-1.637l.167-.121a1.254 1.254 0 0 1 1.688.186c.44.512 1.212.572 1.725.134l.387-.331a1.243 1.243 0 0 0 .138-1.753 1.27 1.27 0 0 1 .076-1.714l.081-.082c.47-.483 1.239-.557 1.76-.129a1.226 1.226 0 0 0 1.724-.167l.302-.366a1.273 1.273 0 0 0-.174-1.794 1.315 1.315 0 0 1-.239-1.75l.032-.048c.384-.572 1.142-.77 1.742-.431a1.28 1.28 0 0 0 1.743-.48l.179-.313a1.337 1.337 0 0 0-.495-1.819 1.354 1.354 0 0 1-.546-1.732c.291-.642 1.019-.976 1.686-.746a1.325 1.325 0 0 0 1.68-.81l.11-.312a1.326 1.326 0 0 0-.81-1.692l-.036-.013a1.32 1.32 0 0 1-.83-1.574c.17-.677.826-1.137 1.514-1.019l.035.006a1.32 1.32 0 0 0 1.527-1.084l.048-.289a1.356 1.356 0 0 0-1.11-1.56l-.053-.009a1.335 1.335 0 0 1-1.096-1.422c.05-.695.616-1.251 1.312-1.257h.038a1.34 1.34 0 0 0 1.329-1.366l-.006-.257a1.37 1.37 0 0 0-1.382-1.345l-.073.001a1.337 1.337 0 0 1-1.328-1.209c-.072-.689.384-1.333 1.065-1.46l.074-.014a1.37 1.37 0 0 0 1.097-1.6l-.112-.603a.986.986 0 0 0-1.149-.79l-1.623.299c-.022.004-.042-.036-.045-.058m-44.719 32.679a.434.434 0 0 1-.715-.489l.234-.342c.535-.783-.433-1.714-1.195-1.15l-.637.472a.574.574 0 0 1-.894-.614l.203-.731c.255-.921-.974-1.491-1.513-.701l-.223.328a.449.449 0 0 1-.741-.505l3.232-4.734a.814.814 0 0 1 1.454.681l-1.264 4.452c-.094.316.29.58.555.383l.07-.053 3.726-2.774a.71.71 0 0 1 1.008.97zm8-.498a.41.41 0 0 1-.512.259l-2.169-.696a1.19 1.19 0 1 0-.722 2.267l2.551.807a.416.416 0 1 1-.253.793l-2.098-.673a2.594 2.594 0 0 1-1.677-3.266l.571-1.772a2.536 2.536 0 0 1 3.187-1.637l2.006.643a.418.418 0 0 1-.256.797l-2.509-.807a1.07 1.07 0 1 0-.655 2.037l2.273.729a.41.41 0 0 1 .263.519m7.53-.825a1.76 1.76 0 0 1-.533 1.236 2.5 2.5 0 0 1-.867.466c-.16.048-.23.362-.107.476q.423.435.727.962l.684 1.177a.49.49 0 1 1-.847.491l-.727-1.258q-.291-.51-.633-.99a2.1 2.1 0 0 0-.444-.489 1.4 1.4 0 0 0-.415-.205 3.3 3.3 0 0 0-.515-.054 1.08 1.08 0 0 0-1.121 1.032l-.066 1.561a.462.462 0 0 1-.924-.039l.146-3.421a3.1 3.1 0 0 1 3.234-2.963c.488-.012.975.067 1.435.232.321.138.585.383.747.693.178.335.257.715.226 1.093m2.951 2.64q-.01.006-.005.016c.238.358.586.628.992.771a2.3 2.3 0 0 0 1.229.041c.469-.1.886-.366 1.173-.749.226-.294.376-.636.44-.996.047-.265.258-.491.528-.491.256.001.469.206.439.46a3.1 3.1 0 0 1-.587 1.482 2.9 2.9 0 0 1-1.659 1.015 3.34 3.34 0 0 1-1.891.003 2.87 2.87 0 0 1-1.358-1.044 4.7 4.7 0 0 1-.806-1.736 4.14 4.14 0 0 1-.025-1.951 2.86 2.86 0 0 1 .859-1.477 3.5 3.5 0 0 1 1.552-.813 2.88 2.88 0 0 1 1.838.102c.417.186.781.47 1.062.824.163.207.071.499-.164.618-.226.116-.5.024-.664-.169a2.1 2.1 0 0 0-.693-.537 1.87 1.87 0 0 0-1.215-.06 2.25 2.25 0 0 0-1.218.688 2.05 2.05 0 0 0-.534 1.193c-.039.46-.003.923.104 1.372.117.506.323.988.608 1.422.004.006.001.014-.005.016m11.89-2.627a.475.475 0 0 1-.646-.181l-.574-1.017a1.645 1.645 0 0 0-2.248-.62l-.281.161a1.645 1.645 0 0 0-.615 2.239l.587 1.035a.464.464 0 1 1-.808.457l-2.985-5.3a.463.463 0 0 1 .805-.454l.479.85c.389.69 1.265.934 1.955.544l.674-.381a1.43 1.43 0 0 0 .54-1.947l-.479-.845a.464.464 0 1 1 .807-.457l2.97 5.269a.475.475 0 0 1-.181.647m6.153-5.471a.49.49 0 0 1-.539.093l-.72-.322a1.67 1.67 0 0 0-1.86.345l-.448.449a1.61 1.61 0 0 0-.32 1.814l.341.734a.454.454 0 1 1-.827.375l-2.553-5.782a.735.735 0 0 1 .96-.975l5.819 2.462a.49.49 0 0 1 .147.807m4.068-6.335a.64.64 0 0 1-.505.315l-2.039.141c-1.266.088-1.65 1.765-.548 2.395l.724.414a.435.435 0 1 1-.433.756l-5.151-2.943a.617.617 0 0 1 .263-1.152l2.034-.142c1.265-.088 1.647-1.763.546-2.391l-.722-.413a.436.436 0 0 1 .431-.759l5.163 2.911a.634.634 0 0 1 .237.868m1.884-5.184a.48.48 0 0 1-.585.312l-4.393-1.2a1.13 1.13 0 0 0-1.393.805l-.186.712a.406.406 0 1 1-.787-.209l1.234-4.56a.411.411 0 0 1 .795.211l-.187.718c-.16.618.207 1.251.824 1.418l4.346 1.175c.268.072.42.354.332.618" fill="#fff"/><path d="m766.969 132.913-1.06-.042a1.156 1.156 0 0 0-.098 2.311l.836.037a3 3 0 0 0 .997-.091 1 1 0 0 0 .556-.398c.135-.178.209-.393.214-.616a1.03 1.03 0 0 0-.312-.835 1.67 1.67 0 0 0-1.133-.366m32.932-34.59a.018.018 0 0 0-.003.029c.014.011.034-.003.028-.02a.02.02 0 0 0-.025-.01m-22.782-9.052c.325.158.673.266 1.03.32.243.034.491.011.724-.067.322-.13.608-.333.836-.594.304-.34.55-.728.728-1.147a3.3 3.3 0 0 0 .392-1.648 1.84 1.84 0 0 0-.468-1.08 3.6 3.6 0 0 0-1.027-.631 1.455 1.455 0 0 0-1.945.707l-.995 2.167a1.49 1.49 0 0 0 .725 1.972m19.242 2.788.167.445a.92.92 0 0 1-.508 1.17c-.192.072-.271.288-.219.486q.062.237.132.472a.546.546 0 0 0 .808.303.6.6 0 0 0 .165-.148q.046-.06.094-.116c.442-.53.634-1.284.283-1.879l-.614-1.04a.19.19 0 0 0-.263-.07c-.104.062-.125.202-.074.31zm-56.26 26.104c-.141.018-.274.164-.224.298l.966 2.58a.8.8 0 0 0 .123.24.09.09 0 0 0 .105.027c.232-.103.261-.396.172-.634l-.91-2.428a.156.156 0 0 0-.2-.091q-.015.005-.032.008m4.832 1.81a.036.036 0 0 0 .068-.025l-1.121-2.993a.037.037 0 0 0-.047-.022.036.036 0 0 0-.021.047zm-8.729.887c.225.272.636.028.512-.304a.32.32 0 0 0-.411-.187l-.155.058a.175.175 0 0 0-.103.226.2.2 0 0 0 .028.05zm48.535 6.503.413.912a.82.82 0 1 0 1.088-1.086l-.799-.364-.131-.058c-.324-.147-.72.273-.571.596m-36.605-12.13a.9.9 0 0 1-.323.213.49.49 0 0 0-.287.629l.802 2.139q.034.102.083.196c.06.117.214.126.306.032a.93.93 0 0 1 .662-.325c.081.002.146-.079.118-.155l-.283-.756a20 20 0 0 1-.559-1.737l-.063-.167c-.063-.169-.321-.189-.456-.069m5.519-26.93c.136-.192.205-.424.198-.659a1.1 1.1 0 0 0-.232-.618 1.05 1.05 0 0 0-.77-.453c-.407 0-.8.148-1.108.415l-.851.605a1.152 1.152 0 0 0 1.333 1.879l.695-.492c.28-.185.528-.413.735-.677" fill="#fff"/><path d="M735.543 117.423c.605-.269 1.677-.818 2.435-1.207a.88.88 0 0 1 .747-.04.53.53 0 0 0 .498-.08 1 1 0 0 1 .208-.127 41 41 0 0 0 2.472-1.221.94.94 0 0 1 .758-.051.19.19 0 0 0 .226-.059 1 1 0 0 1 .063-.073.12.12 0 0 0 .026-.119.9.9 0 0 1 .059-.784l1.049-1.704a.94.94 0 0 1 .884-.429l.294.031a.9.9 0 0 1 .77.587l.176.469a.596.596 0 0 0 .766.349.9.9 0 0 1 .636.002c.024.01.052-.014.043-.038l-.48-1.279a.14.14 0 0 0-.178-.082.914.914 0 0 1-1.146-.551l-.155-.415a.92.92 0 0 1 .425-1.125c1.194-.675 1.915-1.923 2.191-3.267a19.96 19.96 0 0 1 5.138-9.785 19.99 19.99 0 0 1 24.58-3.394 19.95 19.95 0 0 1 7.975 8.792c.319.686 1.117 1.027 1.814 1.322.397.168.731.455.955.822a.05.05 0 0 0 .061.021.05.05 0 0 0 .031-.058 21 21 0 0 0-.82-2.587l-1.065-2.844c-.274-.73-.366-.977-.486-1.052s-.135-.077-.675.083a.92.92 0 0 1-1.115-.564l-.166-.445a.914.914 0 0 1 .538-1.181l2.477-.926a.94.94 0 0 1 .73.065l5.586 3.07a.107.107 0 0 0 .152-.133 21 21 0 0 0-.785-1.902c-.17-.362-.565-.578-.938-.435a.92.92 0 0 1-1.133-.557l-.166-.445a.9.9 0 0 1 .02-.7.92.92 0 0 1 .512-.48l1.268-.473a.623.623 0 0 0 .29-.949.643.643 0 0 1 .097-.867l.544-.466a1.38 1.38 0 0 0 .151-1.947l-.169-.197a1.31 1.31 0 0 0-1.864-.128l-.029.025c-.514.457-1.295.42-1.786-.062-.489-.48-.548-1.26-.107-1.785l.055-.064a1.36 1.36 0 0 0-.177-1.921l-.18-.149a1.38 1.38 0 0 0-1.938.18l-.052.061a1.333 1.333 0 0 1-1.786.22c-.567-.397-.76-1.159-.418-1.76l.033-.06a1.37 1.37 0 0 0-.517-1.865l-.213-.12a1.36 1.36 0 0 0-1.855.513l-.031.055c-.342.603-1.097.828-1.728.54a1.33 1.33 0 0 1-.716-1.649l.02-.06a1.36 1.36 0 0 0-.831-1.737l-.251-.088a1.35 1.35 0 0 0-1.719.821l-.01.03c-.235.661-.956 1.017-1.631.83a1.33 1.33 0 0 1-.967-1.488l.008-.053a1.373 1.373 0 0 0-1.126-1.563l-.304-.052a1.34 1.34 0 0 0-1.536 1.092 1.36 1.36 0 0 1-1.462 1.107c-.69-.061-1.239-.63-1.244-1.323a1.315 1.315 0 0 0-1.32-1.306l-.349.002a1.29 1.29 0 0 0-1.28 1.298c.006.69-.533 1.258-1.22 1.32l-.045.004a1.327 1.327 0 0 1-1.433-1.064 1.29 1.29 0 0 0-1.503-1.033l-.416.077a1.264 1.264 0 0 0-1.012 1.471 1.304 1.304 0 0 1-.96 1.484l-.095.025a1.296 1.296 0 0 1-1.556-.784 1.265 1.265 0 0 0-1.627-.74l-.452.168c-.639.24-.963.951-.724 1.59a1.266 1.266 0 0 1-.671 1.59q-.077.034-.153.07a1.27 1.27 0 0 1-1.629-.492 1.233 1.233 0 0 0-1.687-.436l-.472.278a1.193 1.193 0 0 0-.422 1.634c.328.556.153 1.27-.379 1.637l-.195.136a1.233 1.233 0 0 1-1.644-.19 1.2 1.2 0 0 0-1.688-.13l-.467.398a1.165 1.165 0 0 0-.128 1.642c.409.477.364 1.19-.084 1.63l-.212.21c-.438.44-1.14.49-1.618.095a1.165 1.165 0 0 0-1.648.164l-.426.526a1.15 1.15 0 0 0 .161 1.608c.476.392.554 1.089.195 1.59l-.212.3a1.16 1.16 0 0 1-1.526.354 1.124 1.124 0 0 0-1.541.418l-.362.638a1.12 1.12 0 0 0 .409 1.52c.525.307.708.975.451 1.526a18 18 0 0 0-.167.367 1.137 1.137 0 0 1-1.412.62 1.12 1.12 0 0 0-1.422.674l-.25.688a1.093 1.093 0 0 0 .665 1.403c.553.194.852.79.696 1.356q-.065.234-.126.47a1.105 1.105 0 0 1-1.248.819 1.08 1.08 0 0 0-1.246.887l-.136.814c-.097.58.294 1.129.874 1.227.563.094.949.615.893 1.182q-.027.27-.049.539a1.096 1.096 0 0 1-1.073 1.015 1.063 1.063 0 0 0-1.054 1.062l-.001.887c0 .577.472 1.044 1.05 1.037a1.066 1.066 0 0 1 1.064.981q.026.294.057.587a1.056 1.056 0 0 1-.848 1.161l-.05.009a.97.97 0 0 0-.781 1.13l.289 1.565c.03.165.254.233.409.17m40.98-32.558a2.424 2.424 0 0 1 3.205-1.182q.576.252 1.091.614a2.3 2.3 0 0 1 .682.88c.208.445.297.937.259 1.426a4.6 4.6 0 0 1-.449 1.628 5 5 0 0 1-.755 1.206 3.4 3.4 0 0 1-.859.723c-.26.153-.545.26-.842.315-.302.04-.608.03-.907-.028a5.4 5.4 0 0 1-1.073-.36 2.51 2.51 0 0 1-1.228-3.34zm-7.269-1.251a2.53 2.53 0 0 1 2.872-2.136l2.095.309a.411.411 0 0 1-.118.814l-2.623-.376a1.071 1.071 0 0 0-.308 2.12l2.368.349a.408.408 0 0 1-.119.806l-2.265-.334a1.185 1.185 0 1 0-.341 2.347l2.677.383a.413.413 0 1 1-.118.82l-2.14-.31a2.65 2.65 0 0 1-2.242-3.008zm-3.209-1.927a.464.464 0 1 1 .929-.045l.29 6.054a.462.462 0 1 1-.923.045zm-6.409 3.067a2.365 2.365 0 0 1 1.754-2.853l1.891-.448a.413.413 0 1 1 .19.802l-2.236.529a1.085 1.085 0 1 0 .5 2.11l1.738-.412a.413.413 0 1 1 .19.803l-1.242.291a1.584 1.584 0 0 0-1.178 1.912l.261 1.089a.464.464 0 0 1-.9.216zm-3.427-1.138a.46.46 0 0 1 .604.234l2.445 5.563a.463.463 0 1 1-.848.372l-2.435-5.568a.46.46 0 0 1 .234-.601m-4.928 2.745c.382-.293.81-.52 1.266-.671a1.6 1.6 0 0 1 1.023.09c.339.15.631.389.845.692.276.368.395.83.333 1.286a2.4 2.4 0 0 1-.383.895c-.101.144.041.442.216.45q.602.089 1.165.32l1.27.515a.492.492 0 1 1-.37.911l-1.347-.548a13 13 0 0 0-1.103-.398 2.3 2.3 0 0 0-.654-.108 1.6 1.6 0 0 0-.453.092 2.7 2.7 0 0 0-.44.277 1.067 1.067 0 0 0-.255 1.49l.916 1.287a.459.459 0 0 1-.748.534l-2.002-2.791a3.093 3.093 0 0 1 .721-4.323m-4.931 4.19a.41.41 0 1 1 .648.503l-1.632 2.1a1.078 1.078 0 0 0 1.694 1.333l1.481-1.858a.408.408 0 1 1 .64.51l-1.399 1.755a1.188 1.188 0 1 0 1.863 1.473l1.66-2.114a.413.413 0 1 1 .65.51l-1.359 1.727a2.61 2.61 0 0 1-3.658.442l-1.451-1.134a2.54 2.54 0 0 1-.445-3.555zm-6.312 10.901a.46.46 0 0 1 .451-.284l5.075.268c.335.017.52-.448.28-.683l-3.732-3.47a.44.44 0 1 1 .602-.638l4.576 4.384a.682.682 0 0 1-.486 1.177l-6.348-.118a.46.46 0 0 1-.418-.636m-8.912 17.9a.03.03 0 0 1 .021-.032.03.03 0 0 1 .036.01l1.405 1.683a.797.797 0 1 1-1.407.53zm3.705 6.059c.044.14.196.214.333.163l3.455-1.293a.25.25 0 0 0 .148-.324.256.256 0 0 0-.296-.159c-.63.133-.928.052-1.831-.997a311 311 0 0 1-3.593-4.184l-1.612-1.919a.546.546 0 0 0-.964.341l-.148 8.138c-.012 1.347-.153 1.578-.793 1.957a.26.26 0 0 0-.113.315c.049.133.197.2.33.15l2.757-1.031a.25.25 0 0 0-.15-.476l-.155.04c-.691.174-.773.029-.834-.774l-.032-.511c-.049-.82.464-1.546 1.233-1.834a1.955 1.955 0 0 1 2.164.535c.158.179.306.349.432.489.473.528.457.711-.042.982l-.169.094a.254.254 0 0 0-.12.298m6.256-7.756c-.197-.526-.3-.593-.695-.516l-.263.055a.25.25 0 0 1-.283-.155.25.25 0 0 1 .134-.316c.283-.127.616-.286.95-.451.731-.362 1.626-.026 1.912.738l1.282 3.422c.232.618.343.725.795.556l.206-.077c.132-.05.28.017.329.15a.26.26 0 0 1-.115.313 27 27 0 0 0-2.132 1.345.168.168 0 0 1-.253-.078l-.038-.101c-.114-.306-.525-.348-.717-.083a5 5 0 0 1-.168.224c-.27.391-.644.698-1.081.884a1.88 1.88 0 0 1-1.561-.013 1.86 1.86 0 0 1-1.008-1.191l-1.214-3.24c-.197-.526-.299-.593-.694-.516l-.245.05a.25.25 0 0 1-.282-.157.25.25 0 0 1 .133-.318c.272-.123.597-.281.927-.446a1.347 1.347 0 0 1 1.867.72l1.094 2.919c.315.842.871 1.007 1.409.806.873-.372.846-1.512.513-2.4l-.796-2.126" fill="#fff"/><path d="M747.447 118.541c.412 1.101 1.033 1.101 1.293 1.004q.266-.112.476-.307c.105-.098.272-.111.374-.01a.24.24 0 0 1 .007.333l-.848.911c-.135.15-.299.271-.481.356-1.108.415-1.908.164-2.385-1.11l-1.281-3.42a.595.595 0 0 0-.766-.348l-.233.087a.172.172 0 0 1-.223-.217l.151-.432a.4.4 0 0 1 .24-.246.405.405 0 0 0 .238-.521l-.076-.202a.62.62 0 0 1 .058-.552l.837-1.312a.24.24 0 0 1 .22-.109.24.24 0 0 1 .201.153l.289.771c.202.539.802.812 1.341.61l.233-.087c.133-.05.291-.047.377.066a.53.53 0 0 1 .096.421c-.03.142-.162.229-.298.28l-.101.038a1.103 1.103 0 0 0-.647 1.42zm2.521-7.383c.299.798 1.665.913 2.442.564 1.306-.489 2.33.059 2.835 1.407l1.087 2.9c.272.727.371.822.999.682a.256.256 0 0 1 .296.158.25.25 0 0 1-.147.324l-2.905 1.087a.237.237 0 0 1-.195-.432c.481-.275.482-.41.211-1.133l-1.033-2.758c-.331-.884-.959-1.051-1.559-.827a1.7 1.7 0 0 0-.569.354c-.314.296-.301.773-.15 1.177l1.087 2.9c.263.703.364.815.81.743a.266.266 0 0 1 .292.165.257.257 0 0 1-.15.33l-2.975 1.112a.256.256 0 0 1-.33-.15.26.26 0 0 1 .128-.321c.722-.367.744-.497.468-1.236l-2.602-6.944c-.29-.776-.321-.857-1.057-.64a.248.248 0 0 1-.196-.451c.262-.151.585-.341.932-.55.717-.432 1.66-.118 1.954.667zm8.63 1.556c-.581-1.552-.247-2.544.329-2.759.916-.343 1.882.558 2.597 2.469.776 2.071.289 2.655-.256 2.859-.922.345-1.996-.769-2.67-2.569m.325-3.428a3.6 3.6 0 0 0-2.038 1.93 3.58 3.58 0 0 0-.028 2.805c.156.43.4.823.714 1.156a3.35 3.35 0 0 0 3.78.759 3.45 3.45 0 0 0 2.318-3.301 3.4 3.4 0 0 0-.313-1.39 3.3 3.3 0 0 0-1.788-1.946 3.3 3.3 0 0 0-2.645-.013m8.194 2.71c.278.743.377.826 1.307.575a.25.25 0 0 1 .3.153.25.25 0 0 1-.145.319l-3.451 1.29a.23.23 0 0 1-.299-.136.236.236 0 0 1 .114-.292c.681-.351.703-.485.427-1.22l-1.2-3.204c-.304-.812-.329-.878-1.112-.686a.237.237 0 0 1-.172-.437c.64-.356 1.315-.777 2.006-1.217a.314.314 0 0 1 .464.154c.112.298.586.269.696-.03l.042-.111a1.46 1.46 0 0 1 .764-.863.98.98 0 0 1 1.07.198q.139.136.216.315a1.18 1.18 0 0 1-.299 1.275.45.45 0 0 1-.463.102 1.27 1.27 0 0 0-.829-.028c-.736.275-.362 1.37-.087 2.105l.642 1.713m2.554-4.543c-.304-.813-.329-.879-1.106-.689a.237.237 0 0 1-.172-.437q.424-.235.866-.502c.759-.458 1.757-.134 2.068.696l1.284 3.428c.281.749.381.841 1.129.658a.254.254 0 0 1 .298.156.25.25 0 0 1-.146.321l-3.263 1.221a.23.23 0 0 1-.299-.136.236.236 0 0 1 .114-.292c.698-.358.715-.491.433-1.244l-1.182-3.154m.227-4.841a.1.1 0 0 1 .018.031 1.1 1.1 0 0 1-.651 1.408 1.11 1.11 0 0 1-1.4-1.498c.122-.268.346-.476.622-.58a1.1 1.1 0 0 1 1.392.61.1.1 0 0 0 .019.029m7.428-.024a.222.222 0 0 1 .295.248l-1.007 5.436a.66.66 0 0 0 .881.739 1 1 0 0 1 .105-.03 1.84 1.84 0 0 0 1.431-1.679l.03-.167a.323.323 0 0 1 .639.052c.005.322.009.611.009.885-.001.49-.314.92-.773 1.091l-4.311 1.612a.23.23 0 0 1-.214-.028.23.23 0 0 1-.092-.232l1.11-5.543a.603.603 0 0 0-.802-.684c-.947.355-1.12.666-1.184 1.494l-.018.226a.31.31 0 0 1-.312.289.32.32 0 0 1-.317-.294 32 32 0 0 0-.204-1.802.22.22 0 0 1 .142-.241c.088-.033.183 0 .264.047.144.084.353.068.77-.089zm3.143 1.335c-.283-1.001-.023-1.945.504-2.142.526-.196 1.279.382 1.494.957.107.285.072.361-.138.44l-1.842.738m4.646 1.233a.245.245 0 0 0-.32.075 2.8 2.8 0 0 1-1.215.948c-1.972.737-1.274-1.984.496-3.125.181-.118.295-.21.096-.741a2.4 2.4 0 0 0-3.041-1.317 3.684 3.684 0 0 0-1.969 4.826 3.12 3.12 0 0 0 1.701 1.866 3.13 3.13 0 0 0 2.527 0 3.3 3.3 0 0 0 1.833-2.295.22.22 0 0 0-.108-.237m.77.316a1.16 1.16 0 0 1 .332-1.241 1.166 1.166 0 0 1 1.77.275 1.16 1.16 0 0 1-.597 1.686 1.15 1.15 0 0 1-1.505-.72m11.828-3.21a1.96 1.96 0 0 1-1.678-.144l-4.775-2.787c-.915-.534-1.993.376-1.622 1.368a24 24 0 0 0 1.165 2.694c.239.43.622.513 1.435.275a.25.25 0 0 1 .304.148.24.24 0 0 1-.142.312l-3.15 1.179a.223.223 0 0 1-.285-.13.234.234 0 0 1 .127-.292c.563-.258.763-.595.657-1.062q-.34-1.433-.879-2.802l-1.075-2.87c-.343-.914-.464-1.236-.863-1.51a1.64 1.64 0 0 0-1.19-.11c-.128.036-.271-.021-.317-.146a.23.23 0 0 1 .134-.295l1.485-.555a1.82 1.82 0 0 1 1.505.107l4.905 2.678c.811.443 1.737-.36 1.412-1.226a23 23 0 0 0-1.17-2.693c-.242-.435-.622-.508-1.439-.277a.25.25 0 0 1-.303-.15.244.244 0 0 1 .143-.315l3.109-1.162a.24.24 0 0 1 .306.14.253.253 0 0 1-.136.314c-.55.257-.741.59-.64 1.061q.351 1.428.886 2.8l2.052 5.478" fill="#fff"/><path d="M798.39 97.228c-.277-1.003-.023-1.945.503-2.141.527-.197 1.286.379 1.501.954.107.285.072.361-.145.442l-1.841.738m4.652 1.23a.25.25 0 0 0-.321.075 2.8 2.8 0 0 1-1.22.95c-1.967.737-1.27-1.985.495-3.124.273-.159.296-.21.097-.741a2.39 2.39 0 0 0-3.041-1.317 3.685 3.685 0 0 0-1.92 4.807 3.14 3.14 0 0 0 1.678 1.854 3.12 3.12 0 0 0 2.501.031 3.3 3.3 0 0 0 1.839-2.297.22.22 0 0 0-.108-.237m2.661-1.702c.412 1.1 1.034 1.1 1.294 1.003q.265-.112.475-.307c.105-.098.272-.11.374-.01.093.09.096.239.008.333l-.849.912c-.136.15-.302.273-.487.358-1.102.412-1.908.164-2.385-1.11l-1.275-3.404a.61.61 0 0 0-.787-.359l-.243.091a.17.17 0 0 1-.172-.03.17.17 0 0 1-.05-.187l.151-.434a.4.4 0 0 1 .238-.243.4.4 0 0 0 .235-.515l-.077-.206a.62.62 0 0 1 .06-.553l.852-1.32a.238.238 0 0 1 .422.046l.291.776c.2.536.797.807 1.333.607l.24-.09c.132-.05.289-.046.374.067a.53.53 0 0 1 .095.42c-.028.142-.159.23-.295.28l-.102.038c-.557.208-.84.829-.631 1.386l.917 2.448m-.069-5.347a.7.7 0 0 1-.387.04.76.76 0 0 1-.599-.488.7.7 0 0 1-.036-.396.73.73 0 0 1 .167-.365.8.8 0 0 1 .718-.269.76.76 0 0 1 .36.169.7.7 0 0 1 .233.321.77.77 0 0 1-.131.761.7.7 0 0 1-.325.228m-.039-.105a.66.66 0 0 0 .424-.49.66.66 0 0 0-.036-.339.66.66 0 0 0-.196-.279.6.6 0 0 0-.306-.14.61.61 0 0 0-.607.227.57.57 0 0 0-.146.31.66.66 0 0 0 .23.611.66.66 0 0 0 .312.137c.11.018.222.005.325-.037m-.225-.202a.075.075 0 1 1-.141.054l-.209-.558a.26.26 0 0 1 .151-.334q.036-.015.068-.034a.3.3 0 0 1 .08-.031.2.2 0 0 1 .086.003.17.17 0 0 1 .109.115l.003.008q.01.039.018.079a.4.4 0 0 1 .003.125l-.003.01a.25.25 0 0 0 .057.23l.143.128a.073.073 0 0 1-.097.11l-.121-.104a.23.23 0 0 1-.065-.095c-.021-.056-.089-.066-.107-.059a.104.104 0 0 0-.061.136zm-.177-.486a.095.095 0 0 0 .124.06.15.15 0 0 0 .068-.038.14.14 0 0 0 .041-.067.2.2 0 0 0 .002-.106l-.012-.039a.1.1 0 0 0-.049-.068.1.1 0 0 0-.068-.007.2.2 0 0 0-.06.026l-.022.011a.1.1 0 0 0-.058.122z" fill="#fff"/><path fill-rule="evenodd" clip-rule="evenodd" d="M781.966 115.129a.517.517 0 0 1-.666-.301.517.517 0 0 0-.665-.301.52.52 0 0 1-.67-.304.516.516 0 0 0-.664-.304.515.515 0 0 1-.664-.302.52.52 0 0 0-.97.368l2.175 5.805a.518.518 0 1 0 .971-.364.52.52 0 0 1 .302-.665.514.514 0 0 0 .302-.663.516.516 0 0 1 .304-.663.52.52 0 0 0 .306-.668.52.52 0 0 1 .304-.667.52.52 0 0 0 .304-.668.52.52 0 0 0-.669-.303" fill="#fff"/><path d="M763.401 120.147a1.04 1.04 0 0 0-1.335-.608l-.478.179a1.036 1.036 0 0 0-.608 1.334zm8.876-1.387a1.035 1.035 0 1 0-1.938.724zm1.152.118a.515.515 0 0 0-.662-.302l-.49.184.179.479a.52.52 0 0 0 .67.303.517.517 0 0 0 .303-.664m.633 1.688a.519.519 0 0 0-.972.364.519.519 0 0 0 .972-.364m-.607 1.338a.52.52 0 0 0-.667-.304l-1.453.543c.2.535.797.809 1.332.609l.484-.181a.52.52 0 0 0 .304-.667" fill="#fff"/><path d="M770.339 119.484a1.04 1.04 0 0 0-.608 1.336l.268.715c.201.537.799.809 1.336.608zm-5.785.781a.515.515 0 0 0-.663-.301l-.49.183.18.479a.52.52 0 0 0 .973-.361m13.203-3.834a.518.518 0 0 0-.971.365l.181.485.487-.182a.52.52 0 0 0 .303-.668m1.27 3.389a.52.52 0 0 0-.667-.304l-.487.182.182.486a.52.52 0 0 0 .972-.364" fill="#fff"/><path fill-rule="evenodd" clip-rule="evenodd" d="M776.137 118.003a.387.387 0 0 1-.226.498l-.125.046a.52.52 0 0 1-.667-.304l-.998-2.662a.516.516 0 0 0-.965.362l1.996 5.33a.515.515 0 1 0 .966-.362l-.272-.725a.52.52 0 0 1 .304-.668l.124-.047c.2-.074.423.027.498.227s.297.301.497.226l.604-.226-.906-2.417-.604.225a.387.387 0 0 0-.226.497" fill="#fff"/><path d="M765.821 123.648c-.1-.266-.4-.4-.666-.3a.52.52 0 0 0-.306.664.52.52 0 0 0 .972-.364m-.607 1.338a.52.52 0 0 0-.667-.304l-1.936.724c.201.536.798.808 1.335.607l.964-.36a.52.52 0 0 0 .304-.667" fill="#fff"/><path d="M760.98 121.052a1.04 1.04 0 0 0-.608 1.336l.903 2.409c.201.537.799.809 1.336.609zm5.149-2.479a.519.519 0 1 0-.972.365l1.992 5.317a.52.52 0 0 0 .972-.364zm2.332 1.06a.52.52 0 0 0-.972.365l1.359 3.629a.52.52 0 0 0 .972-.364zm-.635-1.694a.52.52 0 0 0-.972.364.518.518 0 0 0 .972-.364" fill="#fff"/><rect opacity=".95" x="1050" y="34.807" width="64" height="64" rx="20" transform="rotate(-47 1050 34.807)" fill="#FFA53C"/><path d="M1108.73 17.924a7.1 7.1 0 0 1 2.36 2.178c.5.77.8 1.66.85 2.58.04 1.316-.41 2.6-1.27 3.599-.63.73-1.26 1.454-1.89 2.183a.254.254 0 0 0 .06.365q.15.095.3.186c.01.007.01.022 0 .031-.01.007 0 .018 0 .023l1.3.827c.32.173.62.39.88.643.21.204.36.455.44.731s.09.568.03.848c-.06.227-.17.436-.32.61-.28.348-.56.7-.85 1.051a.79.79 0 0 1-.94.232c-.22-.098-.45-.195-.67-.29-.24-.102-.29-.425-.18-.658.07-.168.12-.35.12-.536 0-.383-.15-.752-.41-1.03a1.84 1.84 0 0 0-2.21-.324 1.4 1.4 0 0 0-.49.477c-.18.289-.54.519-.85.392-.72-.287-1.43-.57-2.15-.849-.33-.13-.41-.598-.25-.923.11-.245.17-.514.17-.785a1.66 1.66 0 0 0-.22-.783 1.7 1.7 0 0 0-.55-.598c-.4-.267-.88-.4-1.36-.384s-.95.184-1.34.479c-.21.162-.38.369-.51.605-.19.355-.6.633-.97.501-.68-.235-1.36-.467-2.05-.7-.72-.246-.86-1.455-.54-2.151.12-.256.18-.533.18-.814s-.06-.558-.18-.813c-.13-.27-.33-.506-.57-.693a2.05 2.05 0 0 0-.8-.392 3.24 3.24 0 0 0-1.91.103c-.62.226-1.15.632-1.52 1.164-.18.247-.31.53-.37.828-.02.125-.03.25-.04.377 0 .237-.22.444-.45.377a.2.2 0 0 1-.07-.03 3.2 3.2 0 0 0-.94-.363c-.42-.091-.84-.174-1.26-.275-.89-.266-1.14-1.39-.43-1.993 1.59-1.364 3.18-2.73 4.78-4.091a2 2 0 0 1 1.04-.484c.38-.06.78-.01 1.14.145.46.272.92.568 1.38.844.03.021.07.037.11.051.24.084.51.083.7-.085.54-.493 1.09-.985 1.64-1.483a8.5 8.5 0 0 1 2.91-1.68 10.5 10.5 0 0 1 4.37-.456c1.34.158 2.63.577 3.8 1.233m-1.82 1.677a5.96 5.96 0 0 0-3.41-.886 6.03 6.03 0 0 0-3.19 1.003c-.32.246-.63.514-.92.803a1.67 1.67 0 0 0 .26 2.646c1.2.748 2.39 1.495 3.59 2.24a3.58 3.58 0 0 0 4.51-.614c.38-.403.66-.89.82-1.42.19-.657.15-1.36-.1-1.994a3.9 3.9 0 0 0-1.56-1.778m3.01 18.012c2.82 1.087 5.61 2.256 8.31 3.592a58 58 0 0 0-16.91-4.943c-2.9-.41-5.83-.638-8.76-.68-6.6-.102-13.18.776-19.53 2.607 0 .001-.01 0-.01-.004-.01-.005-.01-.012-.01-.017.34-.788.65-1.583.99-2.367.04-.096.14-.153.24-.165a61.7 61.7 0 0 1 17.85-1.502c4.21.256 8.4.833 12.52 1.725.11.025.25-.003.36.03 1.66.511 3.31 1.108 4.95 1.724" fill="#fff"/><path d="M1107.96 33.836c.35-.125.75-.213 1.09-.064.59.257.79 1.01.38 1.51l-.06.076a.82.82 0 0 1-.91.26c-.29-.098-.48-.347-.6-.622a2.3 2.3 0 0 0-.59-.775c-.09-.07 0-.277.11-.28a1.7 1.7 0 0 0 .58-.105m-2.42-1.556c.06.02.09.071.09.127.01.156-.31.403-.45.337a4 4 0 0 0-.21-.091 2.37 2.37 0 0 0-1.27-.092 2.4 2.4 0 0 0-1.14.58q-.135.138-.27.283a.86.86 0 0 1-.86.271l-.06-.015-.01-.002a.14.14 0 0 1-.1-.062c-.03-.026 0-.068.03-.062.02.004.05-.015.05-.04-.03-.49-.2-.961-.48-1.36-.02-.017-.03-.034-.05-.051-.13-.163.08-.679.28-.722.69-.144 1.41-.318 2.06-.06.8.316 1.6.638 2.39.959m-7.07-2.71c.06.023.1.082.11.148.01.175-.32.414-.47.331q-.105-.054-.21-.103a3.14 3.14 0 0 0-2.82.246c-.29.177-.56.398-.78.657-.31.307-.61.609-.91.915a.28.28 0 0 1-.23.076.297.297 0 0 1-.24-.364c.13-.566.1-1.16-.09-1.714a2.84 2.84 0 0 0-1.02-1.363c0-.003-.01-.007-.01-.01 0-.005-.01-.01-.01-.015-.07-.065-.03-.159.06-.147l.05.006c1.19.161 2.46-.082 3.6.302 1 .338 1.99.68 2.97 1.035m-8.43-2.812a.08.08 0 0 1 .06.048c.01.021.01.042.02.063.03.077-.05.142-.11.092a.2.2 0 0 1-.05-.035c-.07-.054 0-.189.08-.168m-2.74-.821c.13.032.1.219-.03.235a4.75 4.75 0 0 0-2.61 1.188c-.87.775-1.74 1.558-2.61 2.34a.63.63 0 0 1-1.05-.507.62.62 0 0 1 .22-.434c1.15-1.005 2.31-1.982 3.47-2.984.33-.268.76-.356 1.17-.237.49.142.97.267 1.44.399" fill="#fff"/><path d="M1095.54 33.452c3.07.605 6.1 1.383 9.08 2.331.08.026.08.09 0 .082a83 83 0 0 0-12.52-1.717 61.8 61.8 0 0 0-17.86 1.488c-.08.015-.14-.073-.11-.149.45-1.053.9-2.105 1.37-3.153.7-1.537 1.42-3.053 2.17-4.555.41-.815 1.82-.361 1.77.548-.11 2.216 1.85 4.068 4.07 4.015a45 45 0 0 1 3.53.053c2.86.15 5.7.503 8.5 1.057m10.21 5.31c.13.107.27.213.41.32.17.132.08.382-.14.342a85 85 0 0 0-10.79-.626c-.36.008-.73-.008-1.1.017-1.01.023-2 .04-2.99.088a.47.47 0 0 1-.4-.152c-.28-.28-.6-.557-.89-.845-.32-.32-.13-.837.32-.843 1.08-.013 2.17.011 3.26.06 4.11.15 8.2.68 12.21 1.586.04.012.07.03.11.053m-18.56-1.571c.15-.01.31.04.42.145.29.269.58.545.86.822.35.34.15.897-.33.95a.62.62 0 0 1-.51-.171c-.26-.266-.53-.532-.8-.799a.555.555 0 0 1 .36-.947m-3.01.229a.59.59 0 0 1 .47.169c.22.224.45.449.67.673a.73.73 0 0 1-.41 1.243c-.36-.365-.72-.741-1.07-1.115-.33-.349-.14-.924.34-.97" fill="#fff"/><path d="M1106.71 39.514c.01-.003.01 0 .01.004-.05.086-.11.166-.17.24-1.26 1.59-2.51 3.177-3.77 4.758-1.35 1.707-3.88 1.885-5.47.394l-4.05-3.792c-.88-.83-.34-2.295.87-2.305.37-.028.74-.006 1.11-.014q5.415-.03 10.8.637c.22.046.44.072.67.079" fill="#fff"/><path d="M1106.25 42.607c.15-.187.42-.22.6-.07.18.148.22.416.07.603l-2.88 3.763a5.19 5.19 0 0 1-7.77.547c-2.53-2.482-5.05-4.962-7.57-7.44-.36-.347-.15-.91.34-.962.18-.02.37.038.5.166 2.48 2.382 4.96 4.76 7.43 7.139a4.564 4.564 0 0 0 6.76-.494q1.26-1.628 2.52-3.252" fill="#fff"/><path d="M1106.56 45.88a.334.334 0 0 1 .48-.052c.13.113.16.308.05.448q-1.455 1.95-2.91 3.906c-2.04 2.748-6.06 3.014-8.44.55l-10.83-11.227c.91-.135 1.82.175 2.46.826 3.17 3.215 6.35 6.428 9.53 9.639a4.594 4.594 0 0 0 6.94-.481c.91-1.205 1.81-2.408 2.72-3.61" fill="#fff"/><rect opacity=".9" x="1240.83" y="133" width="120" height="120" rx="20" transform="rotate(51 1240.83 133)" fill="#FF2727"/><path d="M1229.51 205.226a3.25 3.25 0 0 1-1.21 2.198l-11.72 9.334a3.243 3.243 0 0 1-4.56-.519 3.246 3.246 0 0 1 .51-4.563l11.73-9.334c2.25-1.795 5.55.017 5.25 2.884m16.19 20.343c-.1.865-.53 1.657-1.21 2.198l-11.72 9.334a3.254 3.254 0 0 1-4.57-.518 3.257 3.257 0 0 1 .52-4.563l11.72-9.334c2.26-1.796 5.56.017 5.26 2.883m-12.88-6.362a3.24 3.24 0 0 1-1.21 2.198l-6.94 5.525a3.244 3.244 0 0 1-4.56-.519 3.24 3.24 0 0 1 .52-4.563l6.94-5.524c2.25-1.796 5.55.017 5.25 2.883m-6.21 36.107c-.12 3.007-3.92 4.247-5.79 1.892l-33.97-42.688a3.255 3.255 0 0 1 .52-4.562 3.255 3.255 0 0 1 4.57.519l33.96 42.687c.49.61.74 1.374.71 2.152" fill="#fff"/><path d="M1210.61 191.456c2.34-1.862 5.78-.141 5.7 2.848a3.53 3.53 0 0 1-1.32 2.656l-18.02 14.345a3.514 3.514 0 0 1-4.94-.562 3.516 3.516 0 0 1 .56-4.942zm32.4 1.271c.12-3.008 3.91-4.249 5.79-1.894l24.89 31.286a3.245 3.245 0 0 1-.51 4.562 3.254 3.254 0 0 1-4.57-.518l-24.89-31.286a3.23 3.23 0 0 1-.71-2.15" fill="#fff"/><path d="M1238.55 254.251c-2.34 1.862-5.79.143-5.71-2.846a3.54 3.54 0 0 1 1.33-2.657l29.41-23.42a3.513 3.513 0 0 1 4.94.562 3.515 3.515 0 0 1-.56 4.941zm-10.5-61.506c.04-.032.06-.045.05-.036s0 0-.05.036c-.03.011-.04.036 0 0m.35-.158c.04-.022-.01-.024-.04.017.02-.006.03-.012.04-.017m19.63-17.266c-.01.035.01.073.04.103v-.067c0-.047-.03-.062-.04-.036m-5.41 5.963-9.38 7.474c2.59-2.053 6.81-5.419 9.38-7.474m4.82-3.869c-.02.009-.02.012 0 0 .04-.032.09-.073 0 0m-21.14 3.531c-.28.067-.33.098-1.03.645l-.11.091.53-.422c-.59.474-.69 1.34-.22 1.935.25.317.46.582.47.587l.57-.454q-.3.206-.57.454l-1.33-1.67.63.792c.35.444.64.809.65.815 0 .006.27-.218.57-.454.23-.165.46-.344.67-.535.01-.007.03-.015.04-.024.02-.021.05-.045.07-.067l-.03.028.08-.066c0-.002.01-.003.01-.006.06-.076.1-.162.13-.254 0-.007.04-.023.05-.027.03-.028 0 0 .02-.086.02-.046.01-.116.01-.164a.3.3 0 0 0 0-.136l-.04-.093c0-.006 0-.012-.01-.017l-.01-.02-.03-.039c-.01-.004-.01-.015-.01-.02-.01-.006-.01-.012-.01-.017-.01-.013-.03-.024-.04-.038l-.09-.124c-.05-.064-.1-.134-.14-.205a.84.84 0 0 0-.83-.409m1.44 11.865c-.01.003-.01.008 0 .004l.01-.001c0-.001 0-.004-.01-.003m3.11-13.446c.07.08.09.108.06.074l-.11-.137c-.03-.04-.01-.011.05.063m1.22-.711c.2-.155 0 0-.37.294-.37.295-.57.454-.35.282zm4.57.928c.03.04.06.074.06.017s-.04-.04-.04-.046-.03.017-.02.029" fill="#fff"/><path d="M1240.2 164.996v.002q.045.06 0 0a.3.3 0 0 0-.07-.086c-.03-.04-.03-.034 0 0l-.08-.102c-.02-.019-.03-.036-.04-.046-.02-.028 0 0 .03.034-.03-.04-.05-.057-.04-.045a.3.3 0 0 0-.12-.104l-.03-.023a2.43 2.43 0 0 0-1.2-.4 2.6 2.6 0 0 0-.74.025c-.01.001-.01-.01 0-.016 0-.006 0-.017-.01-.014a.6.6 0 0 0-.14.066c0 .002-.01.005 0 .003 0-.006 0-.022-.01-.02a1.3 1.3 0 0 0-.23.077l-.04.031s-.05.041-.04.036l-.07.055c.03-.028.04-.032 0 0-.04.029-.11.03-.15.059l-.14.11-7.69 6.03c4.38-3.488 7.71-6.136 7.69-6.123-.01.014-18.88 15.039-18.92 15.067l.09-.073-.04.036-.13.105.11-.087-.19.146c.04-.028 0 0-.05.045-.03.019-.04.051-.03.079l.01.025c.01.026.01.058-.01.072l-.03.015-.01.011c-.01.01-.02.026-.04.037-.01.01-.03.016-.04.027l-.01.006a.14.14 0 0 0-.04.057l-.06.139c-.15.33-.24.683-.26 1.042 0 .01-.01.014-.02.006 0-.008-.02-.003-.02.007l.01.078c0 .109.01.095 0 0 0 .044 0 .089.02.13.06.158.09.199.09.199.02.03.04.065.05.103.02.102.04.202.07.3.02.035.03.07.04.106v.013c.02.027.03.056.04.086 0 .016-.02.028-.03.014v-.004c-.01-.011-.01-.022-.02-.031 0-.002-.01.004 0 .006 0 .004 0 .01.01.016.02.033.04.063.07.091.01.004.01.008.01.013.01.01.02.022.02.034.02.026.04.047.06.073.25.397 1.03 1.359 3.91 4.901 3.35 4.216 3.46 4.348 1.53 1.931a362 362 0 0 1 2.15 2.701c-.06-.073-.06-.074.02.027l.01.004.03.044c.05.045.09.089.14.131.04.031.07.069.1.103l.04.049.03.041c0 .004.01.007.01.011l.03.029.03.052c.01.014.03.026.04.037a.3.3 0 0 0 .08.046c.08.031.17.054.25.067l.03.004c.01.004.01.008.02.011.03.014.06.038.08.06 0 .002.01.005.01.007v.005l.04.051c.01.006.01.012.02.02.02.026.06.03.07.02.01-.007.02-.033.03-.031.01.004.02.007.04.009v.008c-.01 0-.01.006 0 .006.08.014.15.022.23.026q.315.045.63-.006c0-.001 0-.004.01-.005.01-.009 0-.026-.02-.024l-.06.01a1.6 1.6 0 0 1-.32.015q.36.003.72-.1c.01-.006.03-.011.04-.014a.2.2 0 0 0 .08-.033v-.003c.01-.011.02-.026.04-.037v-.001c.01-.01.03-.012.04-.022l.03-.024v-.006c.03-.024.15-.095.18-.117.34-.238 1.94-1.509 9.58-7.599 8.12-6.46 9.42-7.497 9.6-7.681q.03-.031.06-.059c.02-.013.03-.028.05-.04 0-.005.01-.011.02-.018 0 0 .02-.016.03-.027.01-.006.02-.015.02-.022a.1.1 0 0 0 .04-.039c.04-.063.08-.13.11-.201l.02-.054c-.04.089-.02.094.02.006q.075-.167.12-.342c.05-.231.08-.466.08-.702 0-.098 0-.14-.01-.042 0 .088-.01.175-.02.263.03-.266.01-.532-.05-.791-.01-.042-.05-.109-.07-.143-.01-.003-.01-.006-.01-.009-.01-.02-.03-.037-.04-.052q-.03-.016-.03-.04l-.03-.038c-.01-.012-.02-.018-.03-.031 0-.005-.01-.019-.02-.025v-.015c-.01-.003-.01-.006-.01-.008-.01-.007-.02-.012-.02-.02l-.01-.005c-.02-.03-.06-.075-.08-.105 0-.004-.01-.017-.02-.021v-.014c-.02-.033-.03-.027-.01.003-.16-.205-.75-.952-2.16-2.724l2.02 2.542-2.94-3.693c-2.55-3.772-3.82-5.38-4.18-5.795m-5.82 9.045c0 .003-.01.001-.01-.004 0-.108 0-.217.02-.324l-.01.165c-.01.053 0 .105 0 .158zm-2.37 9.286c.01-.005.01-.014.01-.02a55 55 0 0 1-.8-1.003c.31.453.6.813.77 1.021.01.006.02.007.02.002m-3.78 3.29q.015-.013 0-.025l-.41-.518c.2.312.32.47.37.545.01.015.03.014.04-.002m-.59.521c.01-.006 0-.012 0-.008l-.45.359c-.06.043-.14.034-.18-.019-.17-.219-.67-.847-1.8-2.263.32.407.64.8.91 1.145.54.67 1.51.819 2.14.244-.19.197-.39.381-.61.549 0 .004-.01-.002-.01-.007m-1.94-1.191c.41.585.85 1.144 1.33 1.675zm3.19-3.606c.01-.002.02.014.01.022q-.015.008 0 .017l.01.013c0 .007.01.017 0 .027-.03.08-.06.157-.11.231-.01.017-.05.063-.06.075l-.04.032c-.01.003-.01.007-.01.011l-.03.044c-.01.018-.07.084-.08.097-.06.041-.05.036 0 0-.02.004-.09.065-.1.073 0 .006-.01.011-.02.018l-.06.045.1-.077a.7.7 0 0 1-.14.113l-1.66 1.325c.22-.207.47-.399.72-.576a1.106 1.106 0 0 0-.18 1.555l.46.576c.24.296.19.726-.11.962.32-.189.33-.614.1-.902-.1-.125-.22-.282-.38-.477l-.54-.684c-.06-.093-.07-.087 0 0 .14.178.38.48.65.815l.3.379a.76.76 0 0 1-.12 1.069l-.6.474-3.62-4.553a1.23 1.23 0 0 1 .2-1.73l.3-.245c.7-.557 1.14-.907 1.4-1.111l-.05.041q.075-.05.15-.118c.07-.059.11-.091.09-.072l.03-.028.03-.022.16-.127c.03-.027.04-.032 0 0-.01.003 0 .01 0 .008q.075-.034.15-.057l.01-.003.04-.033a.23.23 0 0 1 .1-.052c.3-.073.61-.078.91-.016a2 2 0 0 0-.24-.002h-.01l-.01-.003c-.01-.002-.01-.019 0-.018l.01-.002c.04-.024.2.009.32.023l.11.014c.03.003.06.006.08.012l.02.004c.02.005.05.013.07.023q.045.02.09.034c.03.009.06.032.08.055a2.4 2.4 0 0 1 .34.194c.02.014.04.037.06.055 0 .009.02.018.02.028l.04.042c.01.018.02.035.04.051l.07.087v.008c.02.032.06.077.09.106v.01c.05.062 0 0 .04.045.04.046.05.063.03.04l.05.063c.03.034.05.063.07.08.02.03.05.062.07.096l.04.046c.04.039.07.081.1.125.03.04.04.046 0 0 .05.056.08.118.11.185.01.017 0 .017.01.031.02.016.04.05.05.068.12.246.19.511.22.783v.092c0 .063.01.127 0 .19l-.01.022v.089c0 .019-.01.039-.02.057v.02c-.01.027-.03.053-.03.082v.032c.01.005.01.005.02.004zm-.08-1.426c0-.016.03-.015.03.002.07.173.13.354.16.538a3 3 0 0 0-.19-.52q-.015-.01 0-.02m3.36 2.586v-.002a4 4 0 0 1-.18-.232c.05.09.11.172.19.245zm.76-1.632c.28.348.22.852-.13 1.128-.28.225-.44.349-.51.413a.4.4 0 0 1-.1-.011c-.18-.233-1.08-1.362-2.16-2.712l.02.017 1.74 2.194c.25.314.71.366 1.03.116.37-.295.44-.73.15-1.104-.1-.129-.22-.284-.37-.471zm.66-2.77c.01-.017.02-.031.04-.032l.04-.003c.06-.001.05.06-.01.07l-.02.003c-.02.005-.05-.014-.05-.038m2.16 1.522c0-.006.01-.012.01-.016.31-.208.59-.438.86-.688-.26.262-.53.508-.82.736-.03.018-.06-.004-.05-.032m1.16-.887c.01-.016-.01-.033-.03-.022l-.5.4c.42-.262.52-.331.52-.362.01-.005 0-.011.01-.016m-2.87-3.18c.02-.017.05-.014.06.006 0 .002 0 .003.01.005q.015.026.03.048c.01.004.01.008.02.012.01.013.01.032.01.05v.032c0 .034.01.079.01.113v.006c0 .026.03.065.03.09l-.03.169c0 .092-.01.184-.04.273-.02.07-.05.138-.08.205-.06.143-.08.204-.03.131-.01.006-.01.012-.01.019-.01.008.02.025.03.02.03-.028.04-.037 0 0a.2.2 0 0 1 .09-.036l.05-.005.13-.016c.02-.002.03-.003.05-.002.03.001.06.007.08.013.03.006.06.011.08.013.08.006.16.02.23.041 0-.011.01-.029.02-.026a.55.55 0 0 1 .21.096v.005l.03.044c.01.014.03.021.04.034 0 .008.01.018.01.028.01.026.06.069.08.092 0 .005.01.011.01.016.01.008.01.016.02.023.01.017.04.051.05.068l.06.085c0 .002 0 .005.01.007.01.021.04.039.05.061.01.004.01.008.01.013.01.007.08.102.08.109.02.015.03.029.04.043.01.001.01.002.01.003 0 .005.02.023.07.09l.13.159c.03.046.04.057.02.034q.12.143.03.034l.07.086c.04.071.09.139.14.2.05.048.1.104.14.153.06.08 0 0 .03.034.02.035.03.04.02.029.09.114.09.12 0 0 .02.04.05.077.08.112.02.018.06.068.08.087.03.046.07.086.03.035q.015.025.03.045c.02.018.04.051.06.069 0 .009.06.08.06.088.01 0 .01.001.01.002v.001c.01.004.01.009.02.016.01.013.02.029.03.039a.6.6 0 0 0 .19.083c.01.008 0 .02-.01.014l-.04-.01c0-.001-.01-.004-.01-.008l-.02-.028c.02.022.01.055-.01.075q-.225.21-.48.384c-.03.023-.07.048-.1.076-.16.149-.34.287-.52.412l.02-.013c.01-.008.01-.022 0-.032l-.04-.044v-.012c-.05-.063-.03-.035 0 0 0 0-.04-.04-.04-.046-.01-.006 0 0-.04-.046-.06-.074-.03-.045 0 0l-.02-.034a1 1 0 0 1-.1-.125l-.05-.057-.05-.064c-.03-.04-.07-.083-.1-.123 0-.008-.01-.016-.02-.024v-.012l-.03-.032c-.01-.013-.01-.009 0 .004-.17-.216-.2-.256-.05-.068l-.16-.2c.02.029 0 0-.07-.091-.14-.165-.16-.194-.05-.051-.02-.034-.05-.066-.07-.097a1 1 0 0 1-.1-.125c-.05-.063-.11-.131-.03-.04a1 1 0 0 0-.12-.123c-.02-.018-.05.007-.02.029l.04.057a.6.6 0 0 0-.11-.114 1.3 1.3 0 0 0-.49-.239c-.11-.022-.39.026-.5.066v.001c-.06.05-.09.073-.06.05l-.76.603c.22-.153.44-.322.64-.508l-.22.173c.09-.062.18-.13.26-.205l-1.03.817c-.31.217-.33.56-.1.86.14.173.31.38.48.598.57.718.78.98.83 1.048.06.069-.25.204-.57.454a.726.726 0 0 1-1.02-.116l-1.73-2.177c-1.21-1.516-2.19-2.758-2.2-2.764l3.09-2.458.11-.091c.06-.05.09-.072.08-.059l.06-.05c.16-.126.33-.236.53-.27.14-.023.28-.029.41-.016l.15.022.02.001c.02.002.02-.014 0-.015l-.11-.004c-.01-.001-.02-.018-.01-.026l.01-.003.06.002.05.005c.03.004.06.014.09.021.03.005.05.007.07.013l.01.002c.03.011.07.026.1.047.12.079.22.171.32.274l.14.074c.01.005.01.012.02.02.02.021.03.048.05.071 0 0 .03.034.05.062l.01.012.07.091c.04.046.06.074.06.074.02.017.03.036.04.051.03.035.04.046.08.097l.14.183c.04.04.06.074.07.085.01.007.02.014.02.022.05.051.09.102.13.16.02.029.04.057.06.075.01.017.05.062.05.068.01.006 0 0 .04.045.03.046.03.04.03.046.01.006.03.034.45-.297l-.42.336zm-.04 1.044c.03-.089.06-.179.08-.27-.02.093-.04.185-.07.275 0 .009-.02.006-.01-.004m3.92.395c0-.023-.03-.039-.05-.041l-.02-.002c-.01-.002-.02-.005-.01-.004.03.003.05.017.02.036-.01.005-.01.01-.02.016-.01.009-.02.014-.04.014l-.07.001c-.02.001-.03 0-.04-.002l-.15-.022a2 2 0 0 1-.42-.12c.13.046.26.084.4.114.07.012.08.009 0 0l.07.008.03.001c.03.001.07.01.1.013s.06.001.08.004l.04.004.08.005h.01c.01.001.02.024.01.03-.01.004-.02-.001-.02-.01zm2.46-6.248c-.01.004-.02.019-.01.029.02.018.04.036.05.054.05.055.08.035.03-.02-.02-.021-.03-.041-.05-.058-.01-.005-.01-.007-.02-.005m-.11-.137c-.04.03-.04.066-.01.103.07.099.15.195.24.278q.105.103.21.219c.09.12.12.16.08.103.1.131.13.17.12.148.04.045.07.092.11.142q-.09-.12 0 0c.06.08.07.091.09.12.03.028.05.051 0 0l.09.102q0 .008 0 0c-.05-.057-.04-.051 0 0q.03.036.06.08c.01.014.01.028.02.04l.07.072c.02.023.02.041.04.063.01.007.02.013.02.019.01.002.01.003.01.005.01.005.07.085.07.092.01.007.01.016.02.025l.03.044v.003c.01.011.03.017.04.027v.004c.02.023.03.051.05.075.02.025.04.054.04.085l.01.028c.01.018.01.035.02.049.02.02.03.041.04.065.02.059.04.12.04.182 0 .021.01.042.01.062.01.031.01.091.01.122-.01.061.02.034.02.034l.04.04c.03.04-.03-.035-.04-.04v.061c-.01.022 0 .033 0 .039.01.011.04.01.05.023v.162l-.01.201c-.02.067-.02.135-.03.204l-.01.2.01-.092c0 .018-.01.034-.01.049 0 .03-.01.141-.02.17v.008c0 .008 0 .009-.01.014l-.05.066c0 .01-.01.023-.01.041 0 .002-.01.005-.01.007l-.01.073.01-.038c0-.004.01-.006.02-.001v.009l-.01.009c-.01.001-.01.002-.01.003 0 .007-.01.035-.07.156l-.03.127c-.01.022-.03.041-.04.056l-.03.034-.06.097c-.05.113-.06.163-.04.129l-.06.123-.17.335c-.01.026.02-.006 0 .007-.01.001-.01.002-.01.004l-.08.122c-.02.021-.03.039-.04.056-.01.014-.14.165-.15.175v.002l-.03.016c-.02.014-.03.032-.05.045l-.79.633c-.04.031-.05.04-.04.027l-.4.322a.1.1 0 0 1-.04.024c-.02.013-.03.032-.06.042q-.105.051-.21.09c.05-.018.11-.042.16-.07 0-.003.01 0 0 .004v.002l-.16.064c-.01.003-.02.005-.02.008-.06.022-.15.093-.21.111l-.17.032-.07.011c-.01.003-.01.008 0 .003l-.1.023a.3.3 0 0 0-.09.044c-.02.02-.06.02-.1.021a.2.2 0 0 0-.07.016c-.1.035-.12.012-.12.018.01.005 0 0 .08.003l-.07.002-.11-.001-.07-.004-.08-.014a.8.8 0 0 1-.18-.035l-.09-.034-.02-.005-.03-.004c-.03-.004-.07 0-.1-.001l-.01-.001c-.03-.006-.14-.019-.17-.026l-.04-.008c-.2-.045-.4-.111-.58-.196l-.19-.067-.07-.037c-.04-.024-.08-.065-.12-.099-.02-.017-.03-.037-.04-.057-.03-.027-.06-.048-.07-.079v-.001a.12.12 0 0 0-.04-.057.5.5 0 0 1-.1-.058c-.01-.015-.03-.037-.04-.054l-.03-.033c-.01-.011-.02-.024-.03-.027 0-.005 0-.001-.02-.031l-.03-.027v-.003c0-.008-.01-.017-.01-.025-.01-.006-.01-.012-.02-.017-.02-.024-.04-.055-.06-.08-.03-.039-.05-.062-.03-.034l-.03-.04-.12-.148c-.06-.074-.08-.097-.06-.08l-.39-.49-.13-.159c-.05-.059-.06-.078-.06-.083-.01-.002-.01-.003-.01-.005-.01-.009-.03-.043-.06-.077-.02-.03-.07-.085-.09-.114 0-.002 0-.004-.01-.006 0-.007-.01-.014-.01-.021a.6.6 0 0 1-.09-.116l-.06-.068q.03.042 0 0c0-.006-.06-.078-.06-.083 0-.003-.01-.006-.01-.008v-.001c0-.003-.01-.012-.02-.022-.02-.023-.03-.051-.05-.071 0-.003-.01-.006-.01-.009-.01-.003-.01-.006-.01-.01-.03-.02-.04-.047-.06-.07a.4.4 0 0 1-.05-.101c-.09-.29-.14-.59-.16-.892a.14.14 0 0 0-.02-.065c.02.028 0 .083.03.045.02-.014.02-.041.02-.069 0-.038-.02-.152-.02-.19.01-.055.01-.082.01-.092 0-.005-.01.002 0 .006 0 .007.01.004.01-.005l.01-.084v-.007l.03-.153c.01-.059.02-.106.02-.141.01-.057 0-.054-.01.002l-.02.099c0 .014-.01.026-.02.032-.03.013-.07-.008-.07-.039v-.069l.02-.101v.088l.01-.086c.02-.059.02-.122.04-.18l.02-.032q-.03.13 0 0c.02-.065.03-.134.05-.2l.03-.086q.12-.33.3-.634l.19-.251a.7.7 0 0 1 .11-.115l.04-.031.09-.073.91-.73c.04-.032.06-.046.05-.037l.12-.095c.03-.027.04-.032 0 0l.09-.072c.01-.007.09-.054.1-.058l.12-.042c.17-.066.35-.114.53-.146a.25.25 0 0 0 .11-.046.2.2 0 0 1 .1-.042c.07-.008.15-.012.22-.014l.11.002.09.01.09.005-.09-.015c.1.006.11.007 0 0 .24.009.48.05.7.121l.1.027c.02.006.04.017.05.034.01.013.03.024.04.03l.03.009c.03.012.05.032.08.058 0 .004.21.097.33.154.05.025.1.061.13.106 0 0 .02.024.05.042.03.024.08.036.12.057.03.016.05.038.08.061q.03.032.09.065.03.023.06.057c.01.018.04.026.06.027l.28.008a.2.2 0 0 0 .05.069l-.02-.029-.03-.04c.07.079.19.102.27.041.51-.354.99-.744 1.45-1.167z" fill="#fff"/><path d="M1237.64 176.447c.01.008.01.015.02.022 0 .013.01.024.02.035.01.003.01.005.02.006.02.002.03-.021.02-.036 0-.002-.01-.004-.01-.006-.05-.026-.07-.035-.07-.021m.57.148c-.02-.003-.03.019 0 .02.05.006.1.011.13.012.02.002.02-.008 0-.013a1 1 0 0 0-.13-.019m3.11-3.551c.01.01.02.021.02.032.01.005.01.002.01-.003a.2.2 0 0 0-.03-.029q-.045-.051 0 0m-1.66 3.035c.13-.108.12-.095-.16.127-.28.223-.3.236-.15.118.11-.07.21-.152.31-.245m1.73-2.86c.01.008.02.016.02.025.01.006.01.003.01-.002a.1.1 0 0 0-.03-.023s-.02-.039 0 0m-1.7.356a.17.17 0 0 0 0-.171 6 6 0 0 0-.35-.433c-.02-.025-.08-.084-.1-.11-.04-.057-.07-.097-.06-.075-.04-.064-.11-.129-.16-.18-.02-.016-.04-.036-.07-.059l-.03-.037c-.01-.016-.03-.033-.01-.009l-.04-.051c-.01-.009-.07-.063-.08-.069l-.06-.028c0-.001 0-.003-.01-.006l-.04-.053.04.045c.02.029.03.04 0 0 0-.007-.01-.014-.01-.02-.01-.004-.01-.008-.02-.011v-.006c-.01-.005-.01-.01-.02-.017 0-.008 0-.013-.01-.017l-.21-.074a1.9 1.9 0 0 0-.83-.145 1.6 1.6 0 0 0-.56.142c-.07.032-.24.159-.18.111q-.3.202-.57.453.06-.04 0 0a.1.1 0 0 0-.05.046c-.05.036-.04.031 0 0a.5.5 0 0 0-.13.136c-.19.284-.28.619-.27.959 0 .069 0 .138.02.206 0 .042.01.084.02.125.05.222.13.438.22.647l.03.046c.07.104.23.285.31.381q.03.044.06.08c-.2-.253-.22-.277-.08-.103l.07.092c.04.045.04.051.04.04.16.217.34.419.53.605.08.068.15.13.24.187l-.04-.04-.09-.114c-.03-.04-.08-.108-.12-.159-.05-.052-.1-.107-.14-.166.14.221.3.424.49.604a.2.2 0 0 1-.06-.074c-.04-.04-.05-.062-.04-.051.02.023.05.044.08.063.04.021.07.048.1.069.04.024.09.039.11.045 0 .002.01.004.01.008 0 .005.01.01.01.015s.02.017.01.012c0-.007-.01-.029 0-.025.04.021.09.04.13.056l.12.055.03-.022c.02-.023 0 0-.03.022-.03.023 0 0 .03.046.02.02.16-.012.18-.009.16.021.31.028.47.02a.5.5 0 0 0-.14.025c-.01.005.01.006.01.006.1 0 .19-.012.28-.036 0-.001.01.006 0 .009 0 .003 0 .009.01.009l.07-.013q.135-.032.27-.093c.04-.016.11-.072.08-.048.24-.151.47-.329.67-.531l.11-.146c0-.006-.01-.013-.01-.009v.002l-.05.064a.3.3 0 0 1-.1.105q.075-.05.12-.112c.09-.119.16-.252.22-.394l.02-.106-.05.134q.06-.149.09-.305c.01-.024 0-.025 0-.001.02.018.02.042.02.064l-.03.126c-.05.119-.05.156 0 .057.04-.099.05-.274.01-.247a2.1 2.1 0 0 0-.01-.613c-.05-.068-.05-.063 0 0l-.02-.122c.03.035.03.04 0 0a.5.5 0 0 1-.08-.164l-.01-.02v-.013c-.01-.02-.03-.038-.04-.051-.03-.019-.05-.053-.07-.08 0-.008-.01-.015-.02-.022q.045.051 0 0c0-.007-.01-.013-.01-.019a.3.3 0 0 0-.05-.071c0-.005-.01-.001 0 .004v.006l-.04-.057-.09-.117a.2.2 0 0 0-.05-.048c.04.039.04.051 0 0-.02-.035-.03-.083-.01-.121zm-3.47 1.297c0 .006 0 .013.01.007s0-.013-.01-.007m2.6 1.668v-.002c.01-.008.01-.005 0 .001l-.03.027zm.15-.036c0-.003-.01-.003-.01-.001l-.03.027.05-.039c.01-.011.02 0 .01.01-.01.002-.01.003-.01.005s-.01.001-.01-.002m1.22-1.971v.002c.02.068.02.138.02.208 0-.069-.01-.138-.02-.207zm.01.362v.002zm-.54-1.593a3 3 0 0 0-.22-.274zm-7.22 5.062c-.02.008.02-.015.03-.026q.015-.015 0 0c0 .003-.01.007-.01.012-.01.007-.02.011-.02.014m-14.7 1.88q.045-.041 0-.004c-.01.002-.01.004-.01.006-.04.028-.03.027.01-.001zm15.98-1.119c-.01-.004-.01.009 0 .012l.12.008-.11-.017c0-.001 0-.002-.01-.003m1.06.723c.01.009.02.01.01.003v-.001c-.01-.001-.01-.004-.01-.002m-9.98.508-.85.68c-.01.009-.01.014 0 .005.26-.206.55-.437.85-.685m14.72-4.142c-.07.059-.1.082-.07.055l.04-.031zm-3.95 2.293c-.01-.012-.01-.023-.02-.033-.02-.023-.02-.019-.01.004.03.034.03.05.03.029m-17.98 2.205.06-.23a1 1 0 0 0-.05.159l-.03.067c-.01.037.01.042.02.004m.32 2.059a1 1 0 0 0-.06-.074c.01.008.02.016.02.024.04.058.08.11.04.05m18.08-3.797a1 1 0 0 0-.13-.154c-.03-.04 0 0 .07.086s.09.114.06.068m4.7-2.044v.001zm-14.39 4.012c.01 0 .01-.002.02-.006.03-.017.06-.02.07-.031s-.01-.021-.03-.02l-.07.01c-.03.007-.03.047.01.047m20.26-7.986-2.07-2.604zm-8.22-8.734c.25.002.5.035.73.098.25.075.32.093.23.052a3 3 0 0 0-.97-.157c-.07.002-.07.002.01.007m-12.07 15.292v.002l.07-.006.16-.017h.01c.01-.007 0-.023-.01-.023a.8.8 0 0 0-.23.044m13.61-1.937v-.003q-.015.005 0 .003m-7.38 5.723.57-.454c.16-.127 0 0-.29.236-.3.236-.44.339-.28.218m-5.27-1.969c.09.12.11.143.06.086 0-.009-.01-.018-.01-.027-.07-.098-.13-.152-.05-.059m-1.22-.309-.05.04v.002c-.02.012-.02.016 0 0zm12.17-16.788.07-.012-.06.003q-.075.003-.15.025zm-9.21 17.796c.02-.102 0-.095-.01.006l-.01.155.02-.153zm11.31-10.356c0 .011-.01-.012-.02-.022l-.01-.02q-.03-.037 0 0 .015.03.03.042m-13.77 9.246c0-.001.01-.002.01-.004.02-.012.01-.035-.01-.036h-.02c0-.001-.01.001-.01.005-.02.012-.01.036.01.036zm4.9-4.194c.04-.02-.01-.001-.04.024a1 1 0 0 1-.09.067l.07-.051c.01-.011.05-.031.06-.04m9.15-4.763c-.01-.012-.01-.022-.02-.032q-.015-.016 0 .004c.02.034.04.067.02.028m1.08 2.181.04.051-.03-.04c-.01-.009-.01-.021-.01-.032-.01-.036-.02-.006 0 .021m-.66-1.641c0 .005.01.009.01.013.02.023.01.007-.01-.016q-.03-.033 0 .003" fill="#fff"/><path d="M1238.31 172.204c-.02-.004-.01.013.01.02l.01.002c.04.013.04-.004-.01-.018 0-.002-.01-.003-.01-.004m-.75-.115c.01-.001.01-.015 0-.016-.02-.001-.03 0-.04.001-.07.004-.03.02.04.015m9.77 5.445.01-.002.03-.018c0-.004 0-.008-.01-.004v.001c-.03.02-.04.035-.03.023m-11.58-.531c.03.035.03.046 0 0m2.18 8.034-9.35 7.447zc5.12-4.078 9.34-7.434 9.36-7.452zm9.73-10.649q.045.06.03.034l-.06-.067v-.001c.01.003.01.011.03.034m-10.97-1.983c.07-.055 0 0-.13.109-.14.109-.2.158-.13.1zm3.02 5.249a1 1 0 0 0-.08.05c-.02.012-.02.013-.01.004l.01-.004c.03-.03.12-.073.08-.05m-1.44.403c-.05-.008-.17-.018-.13.014 0 .002 0 .005.01.009.02.017.08.015.12.008s.04-.023 0-.031m9.78-1.919c.01-.052-.01-.046-.01.007v.045l-.01.08.02-.097zm-10.21-4.039c.02.001.02-.012 0-.014l-.09-.007c-.16-.007 0-.01.09.02m10.23 3.311c-.01.022-.01.045-.01.069.01.093.02.098.04.027a.13.13 0 0 0 0-.106c-.01-.017-.02-.007-.03.01m-13.11.608q.045.052.03.028zq-.015-.03 0 0m.98-2.714c.01.007.01.002.01-.004.02-.022.03-.05.03-.067 0-.016-.02-.007-.02.008l-.02.049zm2.26 3.311c-.04-.001-.04.008-.01.013l.02.002q.075.003 0-.015zm-1.66-1.051c.04.058.08.113.13.165.05.063.03.035-.06-.074-.09-.108-.19-.229-.07-.091m-.49-.952-.03-.04zm-.72 1.93.11.136-.21-.273c-.07-.086-.01-.012.1.137m5.58.151q-.06.042 0 0c.03-.022.02-.033 0-.003zm-12.45 15.866.01-.001.03-.018c0-.005 0-.009-.01-.004-.03.021-.04.035-.03.023m-3.12-.464q.06.063.03.038v-.009c-.01-.012-.02-.023-.02-.033-.02-.016-.02-.012-.01.004m1.7-9.256v-.002zm11.96-18.551c.02.005.03-.015.01-.022l-.05-.025c-.01-.012 0-.001.04.041zm.93.421v-.002c0-.01-.01-.008 0 .001q.015.016 0 .001m-14.2 27.755v.002c0 .011.01.008 0-.001s-.01-.014 0-.001m21.72-15.038q-.075.056 0 0c.02-.009.03-.034.01-.014-.01.004-.01.009-.01.014m-20.33 15.514c.12-.018-.09-.053-.21-.061l-.21-.013.19.026c-.14-.01.03.043.16.047zm20.8-16.273c-.03.073-.02.08 0 0 .02-.019.01-.04 0-.012zm-.35.613q-.045.04 0 0c.03-.022.02-.033 0-.004zm-21.72 2.381c-.02.008-.01.019.01.008.01-.008.01-.013-.01-.009m-8.36 1.418v.002c0 .048-.01.096-.01.144 0 .018 0 .019.01 0 0-.032.01-.088.02-.154 0-.036-.03-.04-.03-.003v.02l-.02.18.03-.188zm.13 1.14q-.015-.025-.03-.045c-.05-.057-.04-.046 0 0zm10.94-1.669c-.01-.004-.01-.007-.01-.011l-.03-.035q-.015-.029 0 0c.03.038.05.069.04.046m19.18-6.07c.03.026.05.054.07.086l.03.034-.03-.04a.4.4 0 0 0-.07-.08m-28.24 10.337c.91 1.14 1.27 1.596.82 1.026l-1.64-2.057c-.45-.57-.08-.103.82 1.031m5.94 7.403c.03.034.04.045 0 0 0-.012-.01-.009 0 .001m-7.6-9.562c0-.017-.01-.013 0 .001zm6.48 8.175c-.58-.73-1.52-1.915-2.11-2.644zm-6.37-10.923c.01-.009 0-.02-.01-.012v.005c-.01.009 0 .02.01.014zm10.75.866c0-.005-.01-.011-.01-.016v-.004q-.03-.037 0 0c.03.038.04.079.01.02m-3.07 11.619c-.04-.041-.01.005.03.041 0-.003-.01-.01-.03-.034zm2.74.211c-.05.023 0 .031.03-.014zm19.71-16.766-.01.175.01-.061c-.02.19-.02.216 0 .093.01-.068.02-.137.02-.206 0-.014-.02-.015-.02-.001m-20.93 6.856.03-.023q0-.002 0 0zm20.71-7.99c.01.009.01.017.02.024.01.011 0 .002 0-.01-.02-.025-.05-.065-.04-.04.01.007.01.015.02.026m-19.74 5.328q0 .01 0 0l-.03-.035c-.02-.034 0 0 .03.034zm10.79-15.789-.01-.003c-.15-.026-.29-.04-.43-.043l.21.025zm-2.55 11.046v-.003c-.01-.009-.01-.017-.02-.025 0-.008-.01-.004 0 .004.02.028.05.072.02.024m-.24-.417c0-.006-.01-.012-.01-.018q-.03-.034 0 .001c.02.034.03.045.04.051 0 .006-.02-.012-.03-.034m-1.48-2.018c0-.007.01-.013.01-.017q.03-.023 0 0c0 .003-.01.007-.01.011-.05.038-.02.054 0 .006m3.94 3.77c.04.003.07-.001.1-.01a.3.3 0 0 0-.1.01" fill="#fff"/><path d="M1236.67 175.729c.01.008.01.015.02.021.01.022 0-.001-.02-.024-.01-.023-.02-.019 0 .003m1.76.905a.1.1 0 0 0-.03.006c-.03.017-.07.005-.04.021 0 .005.01.008.02.009l.04.004c.04.002.04-.036.01-.04m-1.97-1.182c-.01-.004-.01-.009-.01-.013-.01-.011-.01-.021-.02-.031q-.03-.032 0 .004zm.43-3.191c.04-.036.05-.041 0 0l-.01.002c-.06.051-.05.059.01-.002m-.25.159c.05-.041 0 0-.08.068-.09.068-.15.113-.1.072zm-.57-1.211q.03-.031 0 0c-.04.032-.07.054-.05.036zm-.18 2.281c.01-.054.01-.055-.01-.002v.001l-.02.117zm-.03.499c0-.044-.01-.088-.01-.132 0-.025-.01-.064 0-.089 0-.027 0-.013-.01.014v.06c-.01.05 0 .1 0 .149 0 .015.02.013.02-.002m4.16 3.464c-.04.036-.06.05-.04.032zq.03-.015 0 0m-1.31-6.674c-.02-.005-.03.002 0 .01l.08.014zm2.04 1.439c.1.126.14.177.09.109a.2.2 0 0 1-.04-.058c-.09-.119-.14-.166-.05-.051m-1.49 4.18c-.03.019.02-.002.05-.026.04-.033.09-.07.08-.064l-.06.052c-.02.011-.05.03-.07.038m1.83-3.702c0 .004 0 .008.01.011v.001l-.01-.001zq-.015-.01 0-.001m.4-6.137q-.18-.221 0 0c.75.941 1.49 1.881 1.68 2.109.18.228-.42-.525-1.33-1.664-.12-.153-.24-.302-.35-.445m6.14 7.752c0 .006.01.011.01.015.02.023.01.005-.01-.018q-.03-.033 0 .003m-7.34-2.56.06.08q.045.058 0 0c0-.01-.01-.02-.02-.029-.02-.032-.07-.082-.04-.051m-.17-.205c.04.04.09.102.06.068a.2.2 0 0 0-.04-.046c-.01-.011-.03-.035-.02-.022m.1 3.359v.077-.082c.01-.002.01-.004.01-.006.01-.057 0-.048-.01.011m.39 2.081c-.05.036-.07.054-.04.032l.08-.063v-.001c0-.003.03-.023-.04.032m-2.2-6.278c0 .002 0 .009.02.033.01.004.01.008.01.01.04.017.05-.017.02-.031a.2.2 0 0 0-.05-.012m1.27 5.369q-.075.062 0 0c.06-.045.08-.092.03-.038zm2.01-1.291c0-.038-.01-.038-.01 0l-.01.097.02-.096zm-1.88-1.302c.01.024.02.019 0-.002 0-.003-.01-.005-.01-.007 0-.006-.01-.009 0-.002 0 .003 0 .006.01.011m-12.44 8.024c-.01-.009.01.008 0 .001zm10.36-9.457c.08.004.12-.001.09-.005a1 1 0 0 0-.09-.011c-.01-.001-.01.015 0 .016m-5.21 4.974c.05.068.07.097.05.062l-.11-.131c-.02-.034 0-.005.06.069m1.3 2.102-.09-.015-.01-.001c-.06-.007-.05.004.01.011zm-1.49-2.31a.2.2 0 0 0-.04-.057.2.2 0 0 0-.06-.053c-.05-.03.04.042.08.082.01.007 0 .017-.01.01a.85.85 0 0 0-.36-.171c-.01-.001-.01-.004-.02-.009v-.009c-.01-.006-.01-.017 0-.022.01-.009.01-.026-.01-.027l-.06-.003c-.01.001-.01.004-.02.01l-.01.004c-.01.009-.02.014-.04.014-.23.006-.4.131-1.18.744l-.83.663c.08-.056.16-.116.23-.182a.3.3 0 0 0-.05.42c.09.11.2.251.32.399l.08.102c.34.428.96.499 1.39.158.27-.194.54-.403.79-.625l.04-.037c.04-.027.05-.036 0 0l.02-.013.09-.073.08-.063s.07-.294.04-.401c-.05-.16-.13-.31-.23-.445l.09.108c.01.021.04.059.06.08.03.04.06.08 0 0s-.04-.051-.04-.057l-.22-.268a1.5 1.5 0 0 0-.14-.193c-.02-.025.04-.059.01-.086m.43.819c.01.007.01.019 0 .024 0 .002-.01.003-.01.005-.02.015-.04-.012-.02-.029l.01-.003c0-.007.02-.005.02.003m2.51 2.734c.03.031.07.079.08.07.01-.01 0-.032-.01-.047v-.01c-.02-.022-.08-.034-.07-.013m-.16-.185q.06.08.03.046zq-.045-.054 0 0m-3.85-4.875c.03-.014-.02.005-.04.023a.4.4 0 0 1-.07.049l.05-.038c.02-.011.05-.025.06-.034m-2.79 7.836-.01.001v.003q-.015.008 0 .001s.02-.013.01-.005m-1.16-1.748c0 .005.01.01.01.015.02.023.01.004-.01-.019q-.03-.032 0 .004m-.13-.154c.01.005.01.01.02.015.01.023.01.004-.01-.019s-.02-.019-.01.004m9.2-1.842c.02.017.02.014.01-.004a.4.4 0 0 1-.04-.053c0 .009.01.018.01.028.01.01.02.02.02.029m-5.02-.155.74-.59c.2-.159.04-.027-.37.299-.41.327-.59.457-.37.291" fill="#fff"/><path d="M1232.09 176.648c0-.003-.01-.005-.01-.005l-.06-.012a.1.1 0 0 0-.02.03c.04.039.13.045.09-.013m1.36-.932v-.001c0-.002-.01 0 0 .002zm.3.386c.02.034.03.046 0 0q-.03-.03 0 0m1.21 3.937c.03.029.03.04.03.029-.01-.012-.02-.023-.02-.032zm-.43-5.004v.011l.03.036c.03.039.04.03.03-.018 0-.007 0-.014-.01-.023v-.01c0-.003 0-.007-.01-.01-.01-.025-.04-.015-.04.014m4.8-2.15c0-.003-.01-.007-.01-.011 0-.009-.01-.018-.01-.026-.01-.014-.02-.01-.01.004.02.024.03.04.03.033m-3.22 4.419c0 .013.03.028.04.038s.01.018.02.024c.02.025-.01-.028-.04-.049v-.003c-.01-.007-.01-.02-.02-.01m1.18-6.577s.01-.002.01-.005l.03-.025q.015-.016 0-.014l-.06.003s-.01.002-.01.005c-.02.013-.01.04.01.038zm.92 1.456c.02.002.02-.021.01-.028-.03-.011-.05-.02-.05-.018-.02.003-.01 0 .03.04 0 .003 0 .006.01.006m-3.34 3.664c.01.007.01.013.02.018l-.01-.019v-.002c-.01-.016-.02-.013-.01.003m4.08-3.283v-.003c0-.011-.01-.008 0 .002s.01.015 0 .001m-2.83 6.576c0 .007-.01-.017-.02-.026 0-.004 0-.009-.01-.013-.01-.022-.02-.017 0 .004q.03.032.03.035m-4.35-3.994s0 .002-.01.004c-.01.013 0 .041.02.038l.01-.001c.01-.001.01-.002.01-.005.02-.013.01-.04-.01-.038zm.76.04c-.01-.007-.03.007-.02.019 0 .003.01.012.02.012v.002c.02.004.03-.018.01-.028 0-.002 0-.003-.01-.005m2.54.953c0-.003-.01-.001 0 .002zm.56 2.458q.03.034.03.042c.01.008-.01-.013-.01-.022-.01-.008-.01-.017-.02-.024-.01-.021-.02-.017 0 .004m4.34-7.164v.004c0 .005.01.01.01.015 0 .01.01.005 0-.004 0-.004-.01-.011-.01-.016z" fill="#fff"/><rect x="573.083" y="86" width="96" height="96" rx="20" transform="rotate(26 573.083 86)" fill="#8A34CD"/><path d="M597.732 180.981c.147.868.025 1.765-.111 2.634-.25 1.595-.807 3.333-.461 4.698.028.11.087.207.155.298a.6.6 0 0 0 .302.212c6.435 2.04 9.641-4.981 7.9-9.56-.871-1.91-2.668-3.274-5.49-3.2-14.915.285-25.6-8.132-29.863-18.647a26.6 26.6 0 0 1-1.364-17.606c5.09-18.625 24.214-23.896 34.69-21.042a29.4 29.4 0 0 1 11.944 6.256 29.4 29.4 0 0 1 7.89 10.934c3.683 8.603 3.177 19.139-3.065 28.876-2.898 4.505-8.221 9.366-14.67 6.743a10.36 10.36 0 0 1-5.753-5.892 9.95 9.95 0 0 1-.408-7.484c3.266-9.776 16.651-7.436 19.717-17.35a7.53 7.53 0 0 0-.275-5.298c-2.281-5.098-9.2-9.518-16.6-10.922-9.158-1.694-20.388 2.668-25.544 11.292a28.55 28.55 0 0 0-1.785 24.544c2.966 6.89 8.987 12.487 18.579 14.058 3.104.488 6.309-1.313 10.662 1.332a6.92 6.92 0 0 1 3.11 3.688c2.318 4.921-1.23 11.967-6.735 11.668-2.825-.142-6.991-2.639-8.134-5.627-.017-.046-.053-.07-.074-.115a.4.4 0 0 0-.029-.051 3 3 0 0 1-.438-.791 4.37 4.37 0 0 1 .12-3.788c.981-1.924 2.858-2.957 4.223-2.26.286.136.54.33.745.57.41.479.619 1.104.742 1.722z" fill="#fff"/><rect x="882" y="212.653" width="79" height="79" rx="20" transform="rotate(-76 882 212.653)" fill="#F0D824"/><path d="M955.346 190.486c-.93-.253-1.502-1.272-.982-2.082.524-.817 1.12-1.117 1.823-.926.711.193 1.056.766 1.06 1.748.004.946-.989 1.507-1.901 1.26m5.637 2.843a.01.01 0 0 1-.008-.013c.619-2.288.596-4.225-.02-5.774-.617-1.552-1.965-2.638-3.868-3.154-3.904-1.06-7.108 1.169-8.362 5.789-.703 2.589-.586 4.708.352 6.292q1.276 2.138 4.47 2.999a9.6 9.6 0 0 0 4.171.332c.654-.092 1.122-.65 1.191-1.308.112-1.077-.878-1.95-1.961-1.994a8.4 8.4 0 0 1-1.985-.321 2.9 2.9 0 0 1-1.784-1.099c-.641-1.109.706-1.973 1.942-1.637l4.651 1.262c.412.112.822-.087.954-.493.107-.332.215-.69.264-.869q.002-.009-.007-.012m-19.176-1.871a1.88 1.88 0 0 1-1.902.632c-.791-.2-1.033-1.113-.82-1.9l1.235-4.547c.177-.652.562-1.284 1.222-1.428a2.6 2.6 0 0 1 1.037-.014c1.166.317 1.398 1.731.731 4.187a6.9 6.9 0 0 1-1.503 3.07m6.206-7.847a4.17 4.17 0 0 0-2.956-2.489 4.93 4.93 0 0 0-3.092.223c-.396.163-.89-.137-.847-.563a.5.5 0 0 0-.367-.532l-1.438-.391a2.26 2.26 0 0 0-2.771 1.589l-4.023 14.819a2.386 2.386 0 0 0 2.062 2.999l.195.019a2.15 2.15 0 0 0 2.296-1.578l.207-.761c.279-1.03 1.495-1.487 2.521-1.193a5.67 5.67 0 0 0 4.554-.588c1.605-1.014 2.803-2.936 3.55-5.689.682-2.452.724-4.429.109-5.865m-17.926-3.784a2.386 2.386 0 1 1 4.605 1.25l-2.656 9.783a2.386 2.386 0 0 1-4.605-1.25zm3.314-3.1a2.52 2.52 0 0 0 2.65-.884 2.52 2.52 0 0 0 .195-2.787 2.514 2.514 0 0 0-4.678 1.567c.041.327.147.643.311.929a2.5 2.5 0 0 0 1.522 1.175m-4.62.059a2.83 2.83 0 0 0-2.165.173c-.333.171-.976-.119-.939-.492a.354.354 0 0 0-.261-.38l-1.54-.418a2.237 2.237 0 0 0-2.745 1.573l-2.695 9.926a2.385 2.385 0 1 0 4.605 1.25l1.243-4.578c.431-1.589 1.499-3.168 3.107-2.814q.155.034.317.078c.43.105.904-.112 1.02-.54l.685-2.525c.143-.526-.087-1.1-.611-1.248zm-10.854.909a1.33 1.33 0 0 0 1.551-.738l.339-.748a1.384 1.384 0 0 0-.898-1.908 1.384 1.384 0 0 1-.973-1.699l.149-.55a1.954 1.954 0 0 0-1.687-2.456l-.27-.027a2.18 2.18 0 0 0-2.207 1.262l-.569 1.241c-.181.395-.593.63-1.024.585a1.01 1.01 0 0 0-1.027.589l-.635 1.406a.904.904 0 0 0 .587 1.246.905.905 0 0 1 .636 1.11l-1.583 5.83c-.47 1.734-.352 3.057.353 4.045.592.815 1.601 1.407 3.136 1.824q.563.155 1.139.236c.797.111 1.501-.451 1.712-1.228l.25-.921c.185-.68-.332-1.35-1.02-1.505-.905-.246-1.169-.812-.877-1.886l1.294-4.768a1.33 1.33 0 0 1 1.624-.94m-12.576-1.243q-.01.003-.017-.003c-1.202-.874-1.839-1.447-1.673-2.06.139-.512.645-.698 1.403-.493a9.4 9.4 0 0 1 1.635.703c1.002.547 2.365.278 2.838-.761.311-.686.134-1.507-.496-1.92a11 11 0 0 0-3.281-1.458 6.02 6.02 0 0 0-4.087.142 4.3 4.3 0 0 0-2.366 2.929c-.684 2.517.562 3.998 2.812 5.587 1.451 1.009 1.877 1.564 1.706 2.194s-.773.823-1.719.566a10.5 10.5 0 0 1-2.105-1.003c-.991-.614-2.399-.358-2.879.705-.297.659-.143 1.445.44 1.873a11.7 11.7 0 0 0 3.868 1.867 6.5 6.5 0 0 0 4.24-.058 4.43 4.43 0 0 0 2.548-3.153c.694-2.556-.584-4.068-2.851-5.655a.02.02 0 0 0-.016-.002" fill="#fff"/><rect x="1036.43" y="58" width="100" height="100" rx="20" transform="rotate(75 1036.43 58)" fill="#34CEFF"/><path d="m973.206 104.25.059-.084-.342.485zm4.998-.012.6 2.237zm.709 4.789c-.118-.056-.244-.118-.383-.175zm-20.337-4.63-2.911.78 3.73 13.92q.05.186.154.348c.165.243.374.453.617.619q.067.044.143.072.054.02.103.045.171.084.359.122c.475.11.39.126 3.065-.591a2.367 2.367 0 0 0 1.673-2.898l-1.053-3.927-2.089-7.799a1.643 1.643 0 0 0-2.012-1.161l-1.771.475q-.006 0-.008-.005m14.341.255.342-.484 2.232-3.111.937-1.328a1.57 1.57 0 0 0 .236-1.316l-.364-1.36c-.478-1.782-.573-2.136-.644-2.272a1.6 1.6 0 0 0-.276-.42.04.04 0 0 1-.01-.019q-.003-.02-.012-.036a.8.8 0 0 0-.18-.172l-.018-.02a.1.1 0 0 0-.032-.05 3 3 0 0 0-.388-.222c-.019-.009-.04-.006-.06-.003l-.027-.005a1 1 0 0 0-.22-.069.1.1 0 0 0-.055.003.14.14 0 0 1-.085-.004 1.6 1.6 0 0 0-.377-.082 1 1 0 0 0-.335.036l-6.641 1.78-3.549.95a3.22 3.22 0 0 0 1.666 6.219l3.407-.913a2.42 2.42 0 0 1 2.965 1.712l.484 1.806a.264.264 0 0 0 .468.086zm15.257 16.315-.059.111.067-.107.011-.015c.049-.072.015-.069-.019.011m-12.211-13.321q.067.02.13.049l2.45 1.153q.207.089.383.176a.328.328 0 0 0 .458-.381l-.579-2.161-.599-2.238a13.4 13.4 0 0 0-2.787 3.159l.415.194q.063.03.129.049" fill="#fff"/><path d="M977.049 102.621c.351-.286.515-.748.398-1.185l-.459-1.712a.267.267 0 0 0-.475-.086l-1.498 2.068-.06.084-.08.109-.997 1.385-.619.884-.06.084-.282.4-.496.702c-.2.277-.129.525.179.67l.431.203a.79.79 0 0 0 .987-.285 15.6 15.6 0 0 1 3.031-3.321" fill="#fff"/><path d="m972.917 104.652-.498.696.492-.697q.004-.002.006.001" fill="#fff"/><path d="m972.917 104.652-.498.696.492-.697q.004-.002.006.001m.986-1.375.997-1.385.081-.109-1.722 2.385z" fill="#fff"/><path d="m973.903 103.277.997-1.385.081-.109-1.722 2.385zm4.896 3.206.579 2.161a.328.328 0 0 1-.459.381l-.376-.177-2.345-1.092-.289-.132-.49-.221a13.4 13.4 0 0 0-1.506 3.292c-1.012 3.353 3.307 6.992 5.903 4.64a.2.2 0 0 1 .081-.055.2.2 0 0 0 .034-.021c.038-.027.069-.063.107-.091l.054-.048c.296-.314.494-.706.57-1.129.005-.027-.004-.055-.007-.083a.1.1 0 0 1 .004-.032l.004-.02a.2.2 0 0 0-.008-.083 1 1 0 0 1-.027-.105c-.018-.07-.191-.714-.546-2.191l-.539-2.011a.032.032 0 0 1 .045-.037l.149.068.114.044.366.166c.474.212.661.297.679.313s.045-.003.068.007l.19.086.2.092c.028.013.054.03.082.042l.089.035.158.069.506.23q.17.068.332.153.044.024.091.041.051.019.099.042c.073.035.198.09.318.142l.184.081c.56.25 1.125.658 1.727.538q.207-.071.382-.199c.024-.018.044-.042.066-.063q.023-.021.044-.044a.97.97 0 0 0 .229-.551.9.9 0 0 0-.026-.301l-1.459-5.447c-.502-1.874-2.463-3.023-4.147-2.06l-.054.03c-1.216.703-1.616 2.207-1.176 3.54m-9.909 5.203-1.308.35a3.22 3.22 0 0 0-2.277 3.943l.068.252a2.96 2.96 0 0 0 3.623 2.092l.367-.099c1.31-.351 2.094-1.667 2.033-3.022q-.03-.653-.003-1.305c.057-1.363-1.187-2.567-2.503-2.211m4.753-5.115-.619-.294-.275-.13a.347.347 0 0 0-.48.405l.436 1.625.032.12q.398-.89.906-1.726m8.041-11.536a.7.7 0 0 0-.128-.25 1.03 1.03 0 0 0-1.161-.299c-.202.105-.37.263-.487.456l-.316.43-.459.638-.316.43-.234.327-.16.219-.779 1.048-.216.295c-.1.136-.204.285-.232.334a.3.3 0 0 1-.058.074l-.024.03c-.051.092-.143.537-.116.639l.478 1.782c.118.441.644.626 1.028.379q1.048-.673 2.188-1.171c1.191-.519 1.948-1.792 1.612-3.047z" fill="#fff"/><path d="M976.055 107.659c-.012-.004-.019.014-.007.019l.163.075 2.345 1.092-2.5-1.186z" fill="#fff"/><path d="M976.055 107.659c-.012-.004-.019.014-.007.019l.163.075 2.345 1.092-2.5-1.186zm-2.412-1.088-.618-.288.614.292q.004.001.004-.004" fill="#fff"/><path d="m973.643 106.571-.618-.288.614.292q.004.001.004-.004m-13.068-8.169a.484.484 0 0 0-.885-.12l-1.724 2.946-2.301 3.949 4.31-1.155a2.054 2.054 0 0 0 1.452-2.516c-.292-1.067-.681-2.493-.852-3.105m-1.999 5.996.238-.057 3.147-.843-3.141.841z" fill="#fff"/><path d="m958.576 104.397.238-.057 3.147-.843-3.141.841zm16.601 2.867-.554-.278.344.159.501.238zm26.273 31.869a19.34 19.34 0 0 1-14.344-2.077 18.96 18.96 0 0 1-8.753-11.426c-.174-.651-.852-1.079-1.503-.904l-.323.086c-.674.181-1.106.882-.925 1.556a21.75 21.75 0 0 0 10.075 13.141 22.2 22.2 0 0 0 15.123 2.644c.76-.139 1.22-.918 1.02-1.673l-.36-1.342c0-.004-.01-.006-.01-.005m16.85-24.205a21.7 21.7 0 0 0-3.79-7.663 21.9 21.9 0 0 0-6.47-5.627 22.1 22.1 0 0 0-8.154-2.733 22.3 22.3 0 0 0-7.232.255c-.765.154-1.212.933-1.01 1.687s.976 1.196 1.743 1.049a19.4 19.4 0 0 1 9.833.663 19.16 19.16 0 0 1 9.08 6.489 18.89 18.89 0 0 1 2.58 18.358c-.42 1.087.56 2.348 1.69 2.046.38-.101.7-.368.84-.732a21.6 21.6 0 0 0 .89-13.792m2.05 18.138-9.76 2.616a2.447 2.447 0 0 0-1.73 3.001l.53 1.99c.06.208.27.331.48.276a17.36 17.36 0 0 0 10.48-7.883m9.43.135c-.77-1.025-2.34-1.581-4.15-1.475-.25.019-.51.061-.75.127l-1.2.32a19.7 19.7 0 0 1-5.27 7.109 20 20 0 0 1-7.85 4.137.375.375 0 0 0-.27.47l1.29 4.848c.07.228.15.449.26.658.31.685.81 1.265 1.44 1.669.64.403 1.38.611 2.13.598.77.011.31.128 9.71-2.39l2.04-.548a6.81 6.81 0 0 0 4.82-8.334c-1.98-7.307-1.78-6.638-2.2-7.189m9.02-.394c-.76-2.851-2.23-3.183-4.17-.96l-.7.809a6.48 6.48 0 0 0-1.37 5.913 6.47 6.47 0 0 0 4.21 4.461l.94.309c1.84.604 3.61-1.076 3.11-2.948-.29-1.1-.63-2.377-1.01-3.793-.36-1.366-.71-2.657-1.01-3.791" fill="#fff"/><path d="m1023.68 132.173-3.33.893a17.36 17.36 0 0 1-10.46 7.882.39.39 0 0 0-.27.478l.46 1.724c.06.204.27.326.47.271 2.9-.774 5.59-2.188 7.86-4.136a19.7 19.7 0 0 0 5.27-7.112" fill="#fff"/><path d="m1023.68 132.173-3.33.893a17.36 17.36 0 0 1-10.46 7.882.39.39 0 0 0-.27.478l.46 1.724c.06.204.27.326.47.271 2.9-.774 5.59-2.188 7.86-4.136a19.7 19.7 0 0 0 5.27-7.112m-45.474-27.929-.555-2.073zm-3.583 2.742.578.265.267.132a13.3 13.3 0 0 1 2.269-2.721c.294-.27.418-.712.314-1.097a.934.934 0 0 0-1.543-.465 15.6 15.6 0 0 0-2.865 3.471z" fill="#fff"/><path d="M973.615 117.101a.03.03 0 0 0 .004-.024 13.3 13.3 0 0 1 1.8-9.674l-.502-.238-.294-.179a.16.16 0 0 1-.111-.01l-.869-.405a16 16 0 0 0-.906 1.726l.34 1.267a.987.987 0 0 1-.697 1.207.95.95 0 0 0-.691.717 15 15 0 0 0-.222 4.73c.086.771.856 1.24 1.604 1.04l.523-.14a.04.04 0 0 0 .021-.017m4.589-12.863a13.6 13.6 0 0 1 4.282-2.414c.513-.176.827-.711.686-1.236-.14-.522-.678-.836-1.191-.663a15.5 15.5 0 0 0-3.744 1.852.96.96 0 0 0-.377 1.047l.37 1.384c.005.016-.009.032-.026.03" fill="#fff"/><path d="m973.643 106.571.869.405q.054.025.111.01z" fill="#fff"/><path d="m973.643 106.571.869.405q.054.025.111.01z" fill="#fff"/><path d="m973.643 106.571.869.405q.054.025.111.01zm2.593 22.177a.3.3 0 0 1-.21.378l-1.082.29a1.384 1.384 0 0 1-1.696-.979l-.928-3.463a.33.33 0 0 1 .639-.171l.849 3.171c.156.579.75.922 1.329.767l.733-.196a.3.3 0 0 1 .366.203m1.524-.429a.33.33 0 1 1-.638.171l-1.201-4.48a.33.33 0 1 1 .638-.171zm3.534-6.091a.348.348 0 0 1 .437.369l-.46 4.763a.53.53 0 0 1-.395.466.53.53 0 0 1-.577-.21l-2.732-3.9a.352.352 0 1 1 .58-.401l2.209 3.24q.13.19.245.39.062.114.11.235c-.042-.16-.025-.331-.004-.495v-.005l.331-4.144a.35.35 0 0 1 .256-.308m5.353 3.741a.3.3 0 0 1-.212.368l-1.095.293a1.434 1.434 0 0 1-1.756-1.014l-.642-2.393a1.39 1.39 0 0 1 .982-1.7l1.053-.282a.297.297 0 0 1 .364.211.296.296 0 0 1-.21.364l-.911.244a.854.854 0 0 0 .442 1.65l.735-.197a.3.3 0 1 1 .156.581l-.695.186a.896.896 0 1 0 .464 1.732l.957-.256a.3.3 0 0 1 .368.213m31.033-9.114c.1.124.09.307-.04.403q-.21.162-.45.289c-.24.124-.5.222-.77.294-.33.112-.69.151-1.04.114a2.55 2.55 0 0 1-1-.326 2.7 2.7 0 0 1-1.14-1.724 2.86 2.86 0 0 1 .19-2.213c.18-.317.43-.593.72-.811.3-.218.63-.373.99-.455.24-.064.48-.104.73-.12.13-.005.27-.001.4.01.17.015.28.173.25.338-.03.168-.19.279-.36.271a2.8 2.8 0 0 0-.88.102 1.92 1.92 0 0 0-1.27.951c-.26.544-.3 1.166-.1 1.733.12.545.44 1.025.9 1.343.22.138.47.226.73.258s.53.007.78-.072c.21-.056.42-.137.62-.241q.15-.087.3-.192c.13-.1.33-.086.44.048m3.2-.209c-.33.106-.68.14-1.02.098a2.4 2.4 0 0 1-.98-.341 2.75 2.75 0 0 1-1.14-1.725 2.93 2.93 0 0 1 .15-2.174c.17-.314.41-.587.7-.8a2.5 2.5 0 0 1 .97-.434 2.37 2.37 0 0 1 1.95.25c.59.408 1 1.025 1.15 1.725.23.717.18 1.497-.15 2.18a2.46 2.46 0 0 1-1.63 1.221m-.15-.588c.25-.054.48-.163.69-.318.2-.155.37-.353.48-.58.23-.524.26-1.112.07-1.651a2.38 2.38 0 0 0-.88-1.43 1.68 1.68 0 0 0-1.42-.201c-.24.06-.47.174-.67.333-.19.158-.35.358-.45.584a2.28 2.28 0 0 0-.1 1.644c.12.552.44 1.043.89 1.38a1.67 1.67 0 0 0 1.39.239m7.01-3.606c.2.579.18 1.215-.06 1.783a2 2 0 0 1-.57.624l-.03.021a2.47 2.47 0 0 1-1.56.408 1.9 1.9 0 0 1-.78-.238 2.36 2.36 0 0 1-.9-1.464l-.77-2.841a.34.34 0 0 1 .24-.405c.17-.047.36.058.4.234l.75 2.79c.09.431.32.817.67 1.086.16.102.35.167.54.189.37.043.78-.059 1.08-.285.15-.114.28-.263.36-.434.15-.392.16-.823.02-1.217l-.76-2.841a.33.33 0 1 1 .64-.17zm5.23.313a.347.347 0 1 1-.48.502l-1.12-1.077c-.16-.17-.35-.31-.56-.412a.76.76 0 0 0-.46-.005.61.61 0 0 0-.43.736l.32 1.192a.324.324 0 0 1-.23.405.335.335 0 0 1-.41-.234l-.87-3.267a1.63 1.63 0 0 1 1.16-2.008 1.9 1.9 0 0 1 1.25.043c.2.086.36.216.49.38.13.163.22.354.26.559.1.324.08.674-.05.988-.08.193-.2.367-.35.515-.1.104-.07.313.06.382.14.076.26.171.37.282zm-3.05-3.552a.84.84 0 0 0-.6 1.036l.07.275c.12.444.58.708 1.02.589q.21-.05.39-.176a1.06 1.06 0 0 0 .42-.708c.01-.141 0-.284-.04-.419a.8.8 0 0 0-.16-.326.9.9 0 0 0-.27-.236 1.13 1.13 0 0 0-.83-.035m4.07 3.555c-.17-.039-.25-.211-.2-.369.05-.164.23-.252.4-.215q.21.046.42.06c.25.002.51-.032.76-.102.27-.062.52-.209.71-.42a.8.8 0 0 0 .15-.341.8.8 0 0 0-.02-.372.8.8 0 0 0-.41-.521c-.3-.12-.62-.185-.95-.193a3.1 3.1 0 0 1-1.26-.298 1.2 1.2 0 0 1-.38-.331 1.15 1.15 0 0 1-.22-.458c-.05-.195-.07-.4-.04-.601.04-.201.11-.393.23-.56a1.9 1.9 0 0 1 1.13-.729 3 3 0 0 1 1.17-.084c.17.019.28.183.24.35-.03.162-.19.265-.35.248a4 4 0 0 0-.33-.018c-.22.005-.44.035-.64.09-.27.056-.5.201-.67.409a.7.7 0 0 0-.13.316.8.8 0 0 0 .02.343c.02.1.07.193.14.272.06.079.15.141.24.181.3.11.62.17.93.178.46.013.9.124 1.31.327q.225.146.39.368c.1.147.17.313.21.488.06.199.07.408.04.612s-.11.401-.22.575c-.28.391-.7.664-1.17.765q-.435.124-.9.113c-.2-.008-.41-.036-.6-.083m7.05-1.929c.04.16-.05.325-.21.368l-1.11.298a1.453 1.453 0 0 1-1.78-1.026l-.65-2.424a1.39 1.39 0 0 1 .98-1.704l1.06-.283c.16-.043.32.053.36.213a.295.295 0 0 1-.21.369l-.9.241a.866.866 0 0 0-.61 1.058c.13.46.6.734 1.06.61l.75-.2c.16-.043.32.053.36.213a.295.295 0 0 1-.21.369l-.7.188a.91.91 0 0 0-.64 1.114c.13.485.63.773 1.11.643l.97-.26c.16-.043.33.052.37.213m-42.298 6.741c-1.916-.392-3.575 1.369-3.069 3.259.527 1.965 2.99 2.614 4.417 1.163 1.46-1.487.7-4.003-1.348-4.422" fill="#fff"/><rect x="608.083" y="198.333" width="66" height="66" rx="20" transform="rotate(85 608.083 198.333)" fill="#E71B89"/><path d="M602.567 238.325c-1.03-.715-2.891-1.076-5.417-1.157-2.065-.065-4.073-.13-4.423-.217-1.108-.252-2.94 1.148-3.46 2.554-.283.762-.519 3.491-.536 6.175.03 4.663.044 4.834 1.419 5.575 1.978 1.095 10.597 1.481 11.956.575 1.252-.783 1.846-3.39 1.93-8.744.115-3.581.039-3.801-1.469-4.761m-4.127 7.041-.601.689a2.614 2.614 0 0 1-3.658.277c-1.531-1.241-1.859-1.767-1.349-2.394.473-.548.881-.454 1.79.197 1.163.934 1.273.868 2.981-.691 1.862-1.743 2.359-1.952 2.874-1.253.191.268-.729 1.637-2.037 3.175m-27.069-9.889c-.923-.834-1.791-.933-5.713-.566-7.323.76-10.525 1.526-11.393 2.829-.61.958-.55 2.432.227 7.648.843 6.245 1.52 8.237 2.894 8.967.78.447 7.949-.127 12.228-.98 2.355-.422 3.23-.952 3.938-2.082.866-1.377.865-2.116-.076-8.127-.806-5.06-1.297-6.899-2.105-7.689m-9.067 4.709c-.099-1.242.153-1.661 1.019-1.73 1.023-.082 1.18.289 1.417 3.24.149 1.866.471 3.718.681 4.211.279.603.072.903-.722.967-.854.068-1.236-.411-1.687-2.479-.317-1.454-.64-3.36-.708-4.209m2.628 10.647c-1.15.093-1.681-.946-.95-1.84.579-.617 1.59-.185 1.84.819.168.657-.093.958-.89 1.021" fill="#fff"/><path d="M593.465 235.47c1.878-.15 3.34-.494 3.313-.832-.131-1.638-8.662-17.39-10.02-18.592a6.84 6.84 0 0 0-3.046-1.572c-2.083-.29-18.65 7.986-20.203 10.027-1.349 1.756-1.327 4.142-.073 6.943.765 1.702 1 1.794 3.561 1.589 3.301-.264 5.301.43 6.301 2.179.4.707 1.119 4.003 1.607 7.207.432 3.261 1.052 5.998 1.292 6.151.301.145 2.785-.963 5.597-2.364l2.525-1.274a5.7 5.7 0 0 0 3.06-4.195c.651-3.808 1.934-4.934 6.086-5.267m-9.908 5.631c-2.275.922-4.177-2.111-2.168-3.468a2.09 2.09 0 0 1 2.07-.079c.321.169.592.418.785.724.383.607.488 1.428.155 2.064l-.018.033a1.64 1.64 0 0 1-.824.726m-.18-9.376c-1.261.672-1.571 1.096-1.282 1.866.348.769.043 1.25-1.018 1.733-2.152 1.024-2.387.931-2.936-.914-.699-2.275-.281-3.504 1.545-4.789 1.2-.778 1.496-1.369 1.198-2.2-.82-2.379-1.857-2.465-5.713-.565l-2.233 1.102a1.475 1.475 0 0 1-1.986-.692q-.065-.136-.126-.273c-.443-1-.167-1.96.771-2.523a40 40 0 0 1 2.955-1.585c2.311-1.155 4.525-2.126 4.808-2.149 1.356-.223 3.212 1.56 4.647 4.404 1.829 3.663 1.682 5.438-.63 6.585" fill="#fff"/><rect x="859.975" y="224" width="79" height="79" rx="20" transform="rotate(77 859.975 224)" fill="#37E954"/><path d="M823.279 243.33c-.189.039-.237.267-.216.458q.06.57.235 1.115c.43 1.602.395 1.684-1.06 2.202a31.5 31.5 0 0 0-5.409 2.755 37.5 37.5 0 0 0-5.595 4.794 28.6 28.6 0 0 0-7.227 18.491 24.3 24.3 0 0 0 .941 7.205c1.347 5.029 3.292 8.592 6.787 12.225a27.2 27.2 0 0 0 5.945 4.595 22.6 22.6 0 0 0 4.578 2.09 29 29 0 0 0 5.708 1.25 25.93 25.93 0 0 0 19.893-6.289 33 33 0 0 0 2.737-2.837c.344-.403.661-.833.983-1.255 1.162-1.44 2.742-4.587 3.702-7.356 1.173-3.321 1.422-8.493.63-11.932l-.122-.524c-.024-.104-.179-.082-.172.025.041.577.124 1.463.171 1.966.189 2.167-.37 6.184-1.176 8.525a23.3 23.3 0 0 1-7.235 10.706 22.8 22.8 0 0 1-13.799 5.317 22.33 22.33 0 0 1-15.117-5.181 30 30 0 0 1-3.652-4.008 22.3 22.3 0 0 1-3.761-9.957 20.65 20.65 0 0 1 8.949-19.241 23 23 0 0 1 4.626-2.271l.019-.007c1.003-.341 1.811.297 2.081 1.321.512 1.699.536 1.693 2.335-.795.085-.126 1.294-1.755 2.684-3.628s2.579-3.543 2.623-3.684a1.74 1.74 0 0 0-.02-.789 1.07 1.07 0 0 0-.601-.798c-1.093-.594-10.306-4.531-10.465-4.488" fill="#fff"/><path d="M813.881 270.845c-1.07.761-1.094 1.097-.352 3.864.677 2.526.916 2.937 1.827 3.182a3.33 3.33 0 0 0 2.384-.571c.639-.6.73-.954.483-2.048l-.02-.095a.883.883 0 0 0-1.092-.67l-.193.052a.68.68 0 0 0-.482.836c.221.828.193 1.108-.124 1.194-.241.064-.291-.067-.9-2.338-.558-2.083-.62-2.412-.457-2.554.29-.207.534.068.781.992a.873.873 0 0 0 1.068.617l.026-.007a.9.9 0 0 0 .636-1.102l-.004-.017c-.28-1.044-.682-1.581-1.331-1.752a3.12 3.12 0 0 0-2.25.417m5.092-1.437c-1.16.755-1.198 1.095-.416 4.011.612 2.285.63 2.353 1.091 2.745.545.473 1.135.541 2.098.284a1.9 1.9 0 0 0 1.493-1.432c.099-.439.015-.907-.496-2.817-.582-2.17-.621-2.314-1.039-2.661a2.2 2.2 0 0 0-.869-.453 3.17 3.17 0 0 0-1.862.323m1.86 3.246c.719 2.53.749 2.796.372 2.623-.195-.092-.356-.523-.83-2.289-.598-2.232-.66-2.675-.364-2.651.097 0 .372.756.822 2.317m16.967-8.275a1.9 1.9 0 0 0-.839 1.256c-.113.505.953 4.634 1.336 5.161.712 1 2.164 1.07 2.736.143.182-.281.231-.309.346-.149s.322.14.726.032a.61.61 0 0 0 .43-.744l-.559-2.084a1.11 1.11 0 0 0-1.36-.785l-.539.144a.553.553 0 0 0-.391.677c.107.4.201.519.36.477s.244.063.36.708c.138.821-.488.59-.726-.209a19 19 0 0 1-.327-1.258c-.499-2.032-.578-2.423-.404-2.47.173-.046.266.13.445.701a.85.85 0 0 0 1.027.555l.446-.12a.657.657 0 0 0 .465-.805 2.1 2.1 0 0 0-.485-.962c-.479-.544-1.261-.718-1.978-.611-.37.056-.731.171-1.069.343m5.142-.057c.256.746 1.223 3.7 2.159 6.558l1.149 3.532c.31.951 1.3 1.503 2.272 1.266 1.557-.386 1.699-.455 1.644-.657-.036-.135-.499-2.347-1.031-4.927-.532-2.581-1.165-5.521-1.384-6.55a1.807 1.807 0 0 0-2.235-1.366l-1.665.446a1.32 1.32 0 0 0-.909 1.698m-19.392 7.676.733 2.738a.833.833 0 0 0 1.613-.416l-.293-1.185-.053-.216c-.043-.174.205-.256.275-.091.963 2.268.878 2.162 1.517 1.929a.696.696 0 0 0 .482-.753l-.202-1.57-.261-2.148.913 3.407a.832.832 0 0 0 1.607-.431l-1.382-5.157a1.16 1.16 0 0 0-1.465-.81 1.456 1.456 0 0 0-1.023 1.567l.038.316c.079.835.146 1.508.12 1.469-.026-.04-.321-.657-.642-1.375l-.106-.243a1.45 1.45 0 0 0-1.657-.832 1.167 1.167 0 0 0-.865 1.449zm7.117.886a.97.97 0 0 0 1.872-.502l-1.398-5.216a.97.97 0 0 0-1.872.502zm1.977-3.323.752 2.806a.76.76 0 0 0 .933.539l.329-.088a.423.423 0 0 0 .298-.517l-.275-1.028c-.076-.281.303-.449.461-.204l.52.811a.925.925 0 0 0 1.675-.74l-1.466-5.471a.747.747 0 0 0-.915-.528l-.304.082a.43.43 0 0 0-.306.529l.299 1.116c.076.282-.305.449-.461.203l-.498-.758a1.13 1.13 0 0 0-1.181-.484.757.757 0 0 0-.579.93zm-16.099 9.245a2.5 2.5 0 0 0-.803.665c-.435.547-.529 1.293-.389 1.977q.056.272.147.533c.263.749.802 1.411 1.538 1.707q.26.105.538.158l1.691.537c.641.2.826.408 1.034 1.183.15.563-.036.927-.461.897-.245-.007-.336-.137-.566-.88a.983.983 0 0 0-1.165-.671l-.374.088-.092.021a1.11 1.11 0 0 0-.814 1.408l.119.368c.155.48.488.882.931 1.125a3.7 3.7 0 0 0 2.745.12c.789-.211 2.048-1.018 2.27-1.479.326-.707.153-2.104-.433-3.097-.387-.655-1.394-1.2-2.896-1.571-1.153-.279-1.519-.526-1.68-1.128-.111-.414.129-.808.471-.802s.348.124.499.687a.68.68 0 0 0 .83.479l.964-.259a.93.93 0 0 0 .64-1.203c-.119-.336-.225-.588-.349-.782-.522-.82-1.732-.766-2.691-.607a6.6 6.6 0 0 0-1.704.526m7.328-1.964a3.26 3.26 0 0 0-1.267 1.469c-.217.574.12 2.546.883 4.951.716 2.248 1.014 2.668 2.16 2.98.619.175.833.164 1.969-.141 1.482-.397 2.012-.786 2.448-1.775.177-.411.21-.87.094-1.303l-1.395-5.208a1.84 1.84 0 0 0-.668-.991c-.759-.58-1.595-.717-2.798-.436q-.738.15-1.426.454m2.822 4.313c.738 2.758.853 3.186.698 3.3a.44.44 0 0 1-.21.07.44.44 0 0 1-.216-.044c-.195-.092-.381-.615-1.04-3.073-.818-3.051-.845-3.384-.335-3.407.183-.008.332.452 1.103 3.154m4.708-6.331c-.55.295-.998.75-1.285 1.304-.314.754-.228 1.438.623 4.402l.627 2.221c.111.394.349.742.676.989a3.1 3.1 0 0 0 2.505.514c1.636-.247 2.784-1.158 3.073-2.37.172-.706-1.312-6.188-1.805-6.737-.974-1.074-2.813-1.2-4.414-.323m1.802 1.276c.152.088.421.919.981 3.007.813 3.036.854 3.515.294 3.464-.21-.031-.327-.371-1.076-3.167-.824-3.075-.864-3.224-.464-3.388.049-.028.163.013.265.084m3.722-2.544c-.007.089.545 2.205 1.23 4.704l.988 3.55c.153.552.712.886 1.27.759.7-.099 1.054-.835.905-1.525a11 11 0 0 0-.243-.932c-.594-2.218-.594-2.218 1.024.242l.386.596a1.428 1.428 0 0 0 2.577-1.145l-1.855-6.921a1.14 1.14 0 0 0-2.204.59l.21.784c.357 1.098-.148 1.333-.79.373q-.26-.389-.6-.903l-.217-.327a1.05 1.05 0 0 0-1.015-.462c-.962.201-1.645.425-1.666.617m10.231 5.229a1.8 1.8 0 0 0 2.205 1.273l.664-.178a1.8 1.8 0 0 0-.932-3.479l-.664.178a1.8 1.8 0 0 0-1.273 2.206" fill="#fff"/><rect x="1085.33" y="331.481" width="94" height="94" rx="20" transform="rotate(-160 1085.33 331.481)" fill="#CB37FF"/><path d="M1080.84 273.296c-.89-.531-2.03-.329-3.36.668a9.4 9.4 0 0 0-2.53 2.692c-.36.595-.65 1.226-.88 1.883a7.2 7.2 0 0 0-.39 2.607c.02 1.188.35 1.946.95 2.308a2.74 2.74 0 0 0 2.48-.079 7.5 7.5 0 0 0 3.45-3.233c.36-.619.65-1.273.87-1.953.29-.837.42-1.722.39-2.607-.05-1.173-.38-1.931-.98-2.286m-15.83-3.726c-.02-1.176-.35-1.937-.94-2.289-.91-.534-2.03-.33-3.37.667a9.2 9.2 0 0 0-2.57 2.665c-.36.595-.66 1.226-.89 1.883a7.2 7.2 0 0 0-.39 2.608c.03 1.188.36 1.945.95 2.307.39.183.82.27 1.25.256s.85-.129 1.22-.337a7.44 7.44 0 0 0 3.46-3.233c.38-.602.69-1.25.91-1.929.28-.836.4-1.717.37-2.598" fill="#fff"/><path d="m1088.49 263.552-53.58-19.212a6.48 6.48 0 0 0-4.97.245c-.77.366-1.47.881-2.04 1.515a6.6 6.6 0 0 0-1.3 2.181l-7.33 20.453a6.53 6.53 0 0 0 .23 4.985c.37.774.88 1.469 1.52 2.045a6.4 6.4 0 0 0 2.18 1.31l24.27 8.705c.73.261 1.38.703 1.89 1.285l5.3 6.065c1.06 1.216 3.06.415 2.99-1.198a1.707 1.707 0 0 1 2.28-1.682l16.82 6.03a6.53 6.53 0 0 0 4.99-.239 6.5 6.5 0 0 0 2.04-1.515 6.5 6.5 0 0 0 1.31-2.184l7.34-20.454c.29-.806.41-1.661.37-2.516a6.4 6.4 0 0 0-.62-2.468 6.5 6.5 0 0 0-1.51-2.043 6.6 6.6 0 0 0-2.18-1.308m-42.05 15.218a3.35 3.35 0 0 1-.93 1.654c-.23.219-.5.377-.8.458-.31.082-.63.084-.93.007-.41-.14-.78-.369-1.08-.672-.31-.303-.54-.67-.68-1.075q-.9-1.954-1.38-4.371c-.64-3.235-4.76-5.141-7.12-2.836q-3.99 3.688-5.7 3.205c-.75-.205-1.15-1.041-1.22-2.518-.12-4.004.83-11.301 2.87-21.892a2.4 2.4 0 0 1 1.07-1.638c.29-.184.62-.301.97-.339.34-.039.69 0 1.01.115 1.43.385 1.96 1.301 1.64 2.758-.13.66-.25 1.309-.38 1.948-.88 4.605 4.39 7.348 7.85 4.178q1.35-1.24 2.58-.892c1.2.345 1.66 1.373 1.39 3.042-.43 2.502 2.75 3.346 4.18 1.245 1.34-1.976 2.63-3.515 3.88-4.62a2.22 2.22 0 0 1 2.19-.576c.63.162 1.17.564 1.51 1.122.18.265.29.564.34.878s.03.635-.05.941c-.13.459-.38.872-.73 1.189-1.73 1.557-3.75 4.486-6.07 8.751a53.7 53.7 0 0 0-4.41 9.938m17.94 1.687c-2.56 2.101-5.13 2.687-7.73 1.754a7.2 7.2 0 0 1-1.39-.679 6.6 6.6 0 0 1-2.11-1.964 6.5 6.5 0 0 1-1.06-2.676c-.3-1.939-.08-3.922.65-5.745.92-2.67 2.58-5.027 4.78-6.8 2.59-2.091 5.16-2.683 7.73-1.761.48.179.95.406 1.39.677a6.7 6.7 0 0 1 2.1 1.967c.55.802.91 1.714 1.06 2.673.33 1.932.12 3.915-.6 5.737a15.24 15.24 0 0 1-4.82 6.817m21.56-.851a15.16 15.16 0 0 1-4.8 6.862c-2.56 2.101-5.13 2.687-7.72 1.757a7 7 0 0 1-1.39-.678 6.55 6.55 0 0 1-2.11-1.962 6.5 6.5 0 0 1-1.06-2.677c-.31-1.94-.1-3.928.62-5.758.92-2.67 2.58-5.026 4.78-6.8 2.59-2.091 5.16-2.683 7.72-1.763.49.178.95.405 1.39.677a6.6 6.6 0 0 1 2.1 1.967c.55.802.91 1.714 1.07 2.673.34 1.931.13 3.919-.61 5.737z" fill="#fff"/></g><defs><linearGradient id="b" x1="19.918" y1="9.671" x2="825.199" y2="787.395" gradientUnits="userSpaceOnUse"><stop stop-color="#B5FFE7"/><stop offset="1" stop-color="#FDC1C1"/></linearGradient></defs></svg>