<svg width="62" height="73" viewBox="0 0 62 73" fill="none" xmlns="http://www.w3.org/2000/svg"><path d="m47.684 44.913-.061-.023c-1.984-.737-3.565-.977-3.77-1.024a3.3 3.3 0 0 0-.695-1.234c-1.577-1.77-3.468-2.743-4.491-3.178v-1.29c2.235-1.606 3.801-3.713 4.458-6.914h1.252a3.537 3.537 0 0 0 3.533-3.533v-2.13a3.54 3.54 0 0 0-2.483-3.373v-3.087c.428-.29.722-.743.809-1.252l.772-4.541 4.7-1.784v1.54a1.95 1.95 0 0 0-1.655 1.703l-.557 4.798a1.95 1.95 0 0 0 1.936 2.173h2.66a1.95 1.95 0 0 0 1.936-2.174l-.557-4.797a1.95 1.95 0 0 0-1.654-1.702V9.777c0-.59-.357-1.107-.909-1.316l-5.77-2.19a1.055 1.055 0 1 0-.75 1.972l4.045 1.535-4.264 1.618a1.9 1.9 0 0 0-.512-.228c-9.776-2.712-19.28-2.711-29.056 0-.186.051-.357.13-.512.228l-4.264-1.618 16.96-6.438a6.6 6.6 0 0 1 4.687 0l8.301 3.15a1.054 1.054 0 1 0 .749-1.972l-8.3-3.15a8.7 8.7 0 0 0-6.185 0L9.35 8.46c-.552.21-.91.726-.91 1.316s.357 1.108.91 1.317l5.9 2.24.772 4.541c.087.51.381.963.809 1.251v3.087a3.54 3.54 0 0 0-2.483 3.374v2.13a3.537 3.537 0 0 0 3.533 3.533h1.252c.603 3.02 2.044 5.1 4.2 6.724v1.48c-1.023.435-2.914 1.409-4.49 3.178a3.3 3.3 0 0 0-.696 1.234c-.05.011-2.135.353-3.831 1.047C6.088 47.998.42 55.933.42 64.959v2.46a5.387 5.387 0 0 0 5.38 5.38h50.4a5.387 5.387 0 0 0 5.38-5.38v-2.46c0-9.026-5.668-16.962-13.896-20.046m5.709-29.735.519 4.477h-2.3l.52-4.477zM39.18 42.08c.758.451 1.632 1.09 2.403 1.955a1.216 1.216 0 0 1 .102 1.491l-4.154 6.202v.001a1.177 1.177 0 0 1-1.61.345l-3.157-1.973 4.78-4.23a4.88 4.88 0 0 0 1.636-3.791m-3.328 12.211-1.578 2.472-.677-1.959.85-1.164c.231.127.652.486 1.405.651m1.038-13.058a2.765 2.765 0 0 1-.743 3.058L31 48.845l-5.147-4.554a2.76 2.76 0 0 1-.742-3.058c.157-.488.331-.7.331-1.053v-.895a12.7 12.7 0 0 0 11.115.123v.772c0 .27.085.409.332 1.053M31 51.486l1.654 1.034-.77 1.053h-1.768l-.77-1.053zm-.668 4.196h1.336l1.16 3.349-.928 1.453a1.063 1.063 0 0 1-1.802-.004l-.925-1.45zm12.986-33.628h-1.201c-.618 0-1.184-.455-1.184-1.113v-2.218q1.19.233 2.385.524zm2.483 3.533v2.13c0 .785-.639 1.424-1.424 1.424h-.99c.038-.726.008.223.019-4.978h.971c.785 0 1.424.64 1.424 1.424m-.9-12.44-.706 4.143c-8.755-2.191-17.307-2.209-26.133 0l-.704-4.143c9.264-2.535 18.277-2.535 27.542 0M17.88 29.14a1.426 1.426 0 0 1-1.424-1.424v-2.13c0-.785.639-1.424 1.424-1.424h.974c.017 5.074-.016 4.175.024 4.978zm1.059-7.087v-2.807a55 55 0 0 1 2.385-.525c-.001 2.367.003 2.229-.004 2.32-.044.568-.563 1.012-1.18 1.012zm2.028 6.596-.003-4.593c1.328-.338 2.35-1.467 2.459-2.848.018-.235.007-.145.01-2.858a49.7 49.7 0 0 1 15.39 0c.003 2.682-.009 2.624.01 2.857.109 1.383 1.133 2.513 2.463 2.85 0 6.184-.012 4.265 0 4.64-.337 13.057-20.036 13.094-20.329-.048m-.55 15.385a10.3 10.3 0 0 1 2.402-1.955 4.88 4.88 0 0 0 1.636 3.791l4.78 4.23c-.645.4-1.502.935-3.157 1.973-.544.34-1.251.19-1.609-.344l-4.154-6.204-.008-.012-.001-.001a1.216 1.216 0 0 1 .11-1.478m7.985 10.77-.677 1.958-1.578-2.472c.751-.165 1.166-.52 1.404-.65zm31.068 12.614a3.275 3.275 0 0 1-3.272 3.272h-5.474v-7.24a1.055 1.055 0 1 0-2.11 0v7.24h-35.23v-7.24a1.055 1.055 0 1 0-2.11 0v7.24H5.801a3.275 3.275 0 0 1-3.272-3.272v-2.46c0-7.854 4.76-14.791 11.762-17.765l3.166 5.021a1.054 1.054 0 1 0 1.785-1.125l-2.918-4.628c.998-.297 1.683-.416 1.882-.46.38 1.039-.123-.432 10.111 15.61 1.248 1.973 4.122 1.966 5.364.003 8.018-12.568 9.75-14.915 9.764-14.927.143-.214.272-.476.35-.685.216.047.852.153 1.881.46l-10.25 16.252c-2.037 3.231-6.816 3.23-8.853 0l-4.7-7.454a1.055 1.055 0 1 0-1.784 1.126l4.7 7.453c2.866 4.544 9.556 4.544 12.422 0l10.498-16.647C54.71 50.167 59.47 57.105 59.47 64.96z" fill="#000"/></svg>