<svg width="40" height="30" viewBox="0 0 40 30" fill="none" xmlns="http://www.w3.org/2000/svg"><g clip-path="url(#a)" fill="#FF782D"><path d="M16.823 29.457C11.34 27.47 5.71 26.883 0 26.503V1.375c.178.196.3.316.405.45C1.462 3.16 2.529 4.486 3.557 5.842c.2.263.347.64.348.966a1679 1679 0 0 1 0 14.727c-.004.592.084.848.772.922 3.284.362 6.554.821 9.684 1.966.398.146.61.364.76.752.535 1.4 1.104 2.786 1.702 4.28M39.3 1.364v25.139c-5.689.382-11.317.957-16.771 2.944.057-.19.092-.355.154-.508.505-1.265 1.027-2.522 1.515-3.792.14-.368.347-.575.72-.713 2.573-.945 5.252-1.407 7.953-1.774.635-.086 1.27-.201 1.909-.224.51-.016.617-.221.615-.693-.015-4.91-.003-9.82-.018-14.73-.003-.509.121-.91.447-1.306 1.039-1.272 2.042-2.574 3.062-3.863.108-.137.228-.264.415-.48m-21.809 15.5c-.009.886.435 1.504 1.205 1.929.186.102.42.344.42.522.025 3.466.018 6.932.015 10.398 0 .05-.03.1-.09.287-.46-1.141-.879-2.166-1.289-3.194-1.47-3.677-2.943-7.354-4.395-11.04a1.53 1.53 0 0 1-.047-.905q.695-2.454 1.464-4.886c.124-.39.054-.603-.28-.844-2.649-1.916-5.61-3.137-8.734-4.02a1.7 1.7 0 0 1-.811-.532C3.908 3.309 2.902 2.012 1.884.722 1.738.537 1.602.345 1.407.083c5.016.277 9.507 1.824 13.624 4.478 1.244.802 2.431 1.692 3.652 2.532.321.222.468.476.463.893a351 351 0 0 0-.003 6.31c.003.363-.076.561-.444.72-.782.34-1.199.989-1.207 1.848M37.87.138l-.5.646c-1.005 1.275-1.999 2.558-3.025 3.815a1.6 1.6 0 0 1-.764.503c-3.108.87-6.049 2.09-8.697 3.967-.392.277-.482.522-.332.987.517 1.6.987 3.214 1.452 4.828.067.23.089.526.003.741-1.866 4.706-3.75 9.405-5.632 14.105-.02.051-.06.097-.145.229-.03-.202-.062-.322-.062-.441-.004-3.348.003-6.695-.01-10.041-.002-.368.093-.556.453-.716.777-.346 1.195-.992 1.202-1.854.007-.89-.422-1.543-1.224-1.9-.335-.149-.433-.321-.431-.667.014-2.144-.001-4.289.02-6.433.002-.225.112-.53.28-.66C24.35 4.22 28.523 1.726 33.42.698 34.864.395 36.336.229 37.795 0z"/></g><defs><clipPath id="a"><path fill="#fff" d="M0 0h39.301v30H0z"/></clipPath></defs></svg>