<svg width="122" height="122" viewBox="0 0 122 122" fill="none" xmlns="http://www.w3.org/2000/svg"><circle cx="60.88" cy="60.88" r="59.386" fill="#F5F5F9" stroke="#696CFF" stroke-width="2.988"/><path d="M61.511 70.512v-4.878" stroke="#696CFF" stroke-width="2.988" stroke-linecap="round" stroke-linejoin="round"/><path clip-rule="evenodd" d="M73.42 48.698c3.25 0 5.864 2.634 5.864 5.883v6.613c-4.73 2.768-10.978 4.441-17.783 4.441s-13.035-1.673-17.764-4.44V54.56c0-3.249 2.634-5.863 5.883-5.863z" stroke="#696CFF" stroke-width="2.988" stroke-linecap="round" stroke-linejoin="round"/><path d="M68.24 48.69v-.704a4.25 4.25 0 0 0-4.25-4.25h-4.96a4.25 4.25 0 0 0-4.248 4.25v.703M43.784 68.217l.363 4.823a6.233 6.233 0 0 0 6.214 5.764H72.66a6.233 6.233 0 0 0 6.213-5.764l.364-4.823" stroke="#696CFF" stroke-width="2.988" stroke-linecap="round" stroke-linejoin="round"/></svg>