<svg width="20" height="15" viewBox="0 0 20 15" fill="none" xmlns="http://www.w3.org/2000/svg">
<path d="M9.99923 10.872C11.65 10.872 13.0022 9.54052 13.0022 7.8815C13.0022 6.22249 11.65 4.89101 9.99923 4.89101C8.34743 4.89101 6.99623 6.22278 6.99623 7.8815C6.99623 9.54023 8.34743 10.872 9.99923 10.872Z" stroke="#696CFF" stroke-width="2.21652" stroke-linejoin="round"/>
<path d="M12.296 1.44862C12.0883 1.24236 11.8076 1.12661 11.5149 1.12661H8.48332C8.19067 1.12661 7.90989 1.24236 7.70226 1.44862L6.00536 3.13432H3.93596C2.49713 3.13432 1.31191 4.3012 1.31191 5.74837V10.7677C1.31191 12.2148 2.49713 13.3817 3.93596 13.3817H16.0623C17.5011 13.3817 18.6863 12.2148 18.6863 10.7677V5.74837C18.6863 4.3012 17.5011 3.13432 16.0623 3.13432H13.9929L12.296 1.44862Z" stroke="#696CFF" stroke-width="2.21652" stroke-linecap="round" stroke-linejoin="round"/>
</svg>
