<svg width="39" height="38" viewBox="0 0 39 38" fill="none" xmlns="http://www.w3.org/2000/svg"><g clip-path="url(#a)"><path d="M26.03 23.208a1.274 1.274 0 0 1-.9-1.561l2.638-9.847-9.847-2.639a1.274 1.274 0 0 1 .66-2.462l11.078 2.969c.68.182 1.083.88.901 1.56l-2.968 11.078a1.274 1.274 0 0 1-1.561.901m-7.803 4.505a1.274 1.274 0 0 1-.9-1.56l2.638-9.848-9.847-2.639a1.274 1.274 0 1 1 .66-2.461l11.077 2.968c.68.182 1.084.88.901 1.56l-2.968 11.079a1.274 1.274 0 0 1-1.56.901" fill="#6C6EFF"/></g><defs><clipPath id="a"><path fill="#fff" d="m8.492.038 29.542 7.916-7.916 29.542L.576 29.58z"/></clipPath></defs></svg>