<svg width="140" height="40" viewBox="0 0 140 40" fill="none" xmlns="http://www.w3.org/2000/svg">
<g clip-path="url(#clip0_35_409)">
<path fill-rule="evenodd" clip-rule="evenodd" d="M48.9191 25.1399C48.9191 25.7332 48.4842 26.221 47.8654 26.221C47.2634 26.221 46.8285 25.7321 46.8285 25.1399V14.8321C46.8285 14.2388 47.2634 13.751 47.8822 13.751C48.4842 13.751 48.9191 14.2399 48.9191 14.8321V25.1399Z" fill="#232323"/>
<path fill-rule="evenodd" clip-rule="evenodd" d="M62.4322 14.8321V24.2509C62.4322 25.5243 61.7803 26.2398 60.7433 26.2398H60.6603C59.6737 26.2398 59.2047 25.6465 58.7871 24.7742L56.6796 20.501L54.8064 16.0887L54.8568 20.3621L54.8736 25.1232C54.8736 25.7165 54.4392 26.2043 53.8199 26.2043C53.2179 26.2043 52.7835 25.7154 52.7835 25.1232V15.7043C52.7835 14.5354 53.4354 13.7154 54.5731 13.7154H54.6566C55.7104 13.7154 56.1448 14.3088 56.5634 15.181L58.6368 19.4198L60.4097 23.5365L60.3597 19.5943L60.3429 14.8332C60.3429 14.2399 60.7774 13.7521 61.3967 13.7521C61.9973 13.751 62.4322 14.2388 62.4322 14.8321Z" fill="#232323"/>
<path fill-rule="evenodd" clip-rule="evenodd" d="M70.8119 25.1232C70.8119 25.7165 70.3775 26.2043 69.7582 26.2043C69.1567 26.2043 68.7217 25.7154 68.7217 25.1232V15.7921H66.1294C65.5946 15.7921 65.1602 15.3732 65.1602 14.7632C65.1602 14.1699 65.5946 13.7521 66.1294 13.7521H73.4043C73.9391 13.7521 74.374 14.171 74.374 14.781C74.374 15.3744 73.9391 15.7921 73.4043 15.7921H70.8119V25.1232Z" fill="#232323"/>
<path fill-rule="evenodd" clip-rule="evenodd" d="M77.1002 24.7744V15.0944C77.1002 14.1878 77.5851 13.6822 78.4717 13.7167H84.4926C85.0274 13.7167 85.4619 14.1522 85.4619 14.7456C85.4619 15.3389 85.0274 15.7566 84.4926 15.7566H79.1736V18.7566H83.8734C84.3923 18.7566 84.8099 19.1577 84.8099 19.7333C84.8099 20.3089 84.3923 20.71 83.8734 20.71H79.1736V24.1633H84.4926C85.0274 24.1633 85.4619 24.5989 85.4619 25.1922C85.4619 25.7855 85.0274 26.2033 84.4926 26.2033H78.4213C77.5519 26.2044 77.0675 25.6988 77.1002 24.7744Z" fill="#232323"/>
<path fill-rule="evenodd" clip-rule="evenodd" d="M96.8525 26.2566C97.4377 25.9422 97.6221 25.2966 97.3374 24.7911L95.2467 20.92C96.9697 20.5711 97.9735 19.2455 97.9735 17.4489C97.9735 15.5655 96.8367 13.7167 94.1099 13.7167H90.1465C89.2603 13.6822 88.7755 14.1878 88.7755 15.0944V25.1411C88.7755 25.7333 89.2099 26.2222 89.8119 26.2222C90.4312 26.2222 90.8657 25.7344 90.8657 25.1411L90.8489 21.3388H93.0562L95.3811 25.8211C95.6644 26.3266 96.2837 26.5533 96.8525 26.2566ZM94.1589 19.3667H90.8475V15.7556H94.1421C95.2458 15.7556 95.8651 16.4878 95.8651 17.5522C95.8651 18.6166 95.2799 19.3667 94.1589 19.3667Z" fill="#232323"/>
<path fill-rule="evenodd" clip-rule="evenodd" d="M102.287 25.2799C101.033 24.111 100.465 22.2799 100.465 19.9777C100.465 17.6577 101.017 15.8443 102.255 14.6932C103.024 13.9955 104.06 13.5244 105.566 13.5244C106.887 13.5244 107.908 13.8388 108.677 14.5188C109.346 15.0766 109.831 15.8621 110.115 16.961C110.265 17.5366 109.881 18.1121 109.246 18.2343C108.644 18.3388 108.159 17.9377 107.975 17.3621C107.774 16.8044 107.506 16.4032 107.189 16.1232C106.754 15.7221 106.219 15.5477 105.516 15.5477C104.763 15.5477 104.111 15.7744 103.626 16.2799C102.923 17.0121 102.622 18.321 102.622 19.9777C102.622 21.6176 102.907 22.9254 103.643 23.6577C104.127 24.1632 104.763 24.3899 105.499 24.3899C106.268 24.3899 106.853 24.181 107.339 23.7099C107.589 23.4655 107.808 23.1521 107.958 22.7854C108.175 22.2443 108.627 21.8432 109.212 21.9832C109.797 22.1232 110.166 22.7154 109.981 23.291C109.68 24.2499 109.162 25.0177 108.459 25.541C107.69 26.1165 106.737 26.4132 105.533 26.4132C103.994 26.4132 103.024 25.9421 102.287 25.2799Z" fill="#232323"/>
<path fill-rule="evenodd" clip-rule="evenodd" d="M117.641 13.5244C114.012 13.5244 112.473 16.071 112.473 19.9777C112.473 24.0065 113.996 26.431 117.641 26.431C121.22 26.431 122.793 24.0065 122.793 19.9777C122.793 16.001 121.237 13.5244 117.641 13.5244ZM117.624 15.5655C119.615 15.5655 120.651 17.0121 120.651 19.9777C120.651 22.9421 119.598 24.3899 117.624 24.3899C115.634 24.3899 114.63 22.9432 114.63 19.9777C114.63 17.0133 115.667 15.5655 117.624 15.5655Z" fill="#232323"/>
<path fill-rule="evenodd" clip-rule="evenodd" d="M139.016 25.1231C139.016 25.7165 138.581 26.2043 137.962 26.2043C137.36 26.2043 136.925 25.7154 136.925 25.1231V20.4487L136.976 15.8965L135.52 20.5187L134.049 25.0709C133.799 25.8732 133.28 26.1876 132.627 26.1876C131.941 26.1876 131.44 25.8565 131.172 25.0543L129.667 20.5199L128.278 15.9676L128.328 20.4499V25.1243C128.328 25.7176 127.893 26.2054 127.275 26.2054C126.673 26.2054 126.238 25.7165 126.238 25.1243V15.7932C126.238 14.5021 126.907 13.7521 128.078 13.7521C129.182 13.7521 129.801 14.3621 130.151 15.4788L131.69 20.2399L132.626 23.4843L133.58 20.2399L135.118 15.4788C135.47 14.3621 136.072 13.7521 137.176 13.7521C138.347 13.7521 138.999 14.4843 138.999 15.7932L139.016 25.1231Z" fill="#232323"/>
<path d="M29.9481 21.7597C29.9481 22.0717 29.8286 22.3709 29.6159 22.5916C29.4032 22.8121 29.1146 22.9361 28.8138 22.9361C28.5129 22.9361 28.2244 22.8121 28.0116 22.5916C27.7989 22.3709 27.6794 22.0717 27.6794 21.7597V11.2501C27.6794 10.9381 27.7989 10.6388 28.0116 10.4182C28.2244 10.1976 28.5129 10.0736 28.8138 10.0736C29.1146 10.0736 29.4032 10.1976 29.6159 10.4182C29.8286 10.6388 29.9481 10.9381 29.9481 11.2501V21.7597ZM29.5544 29.0416C29.4044 29.1972 25.1856 32.843 17.4511 32.843C9.71661 32.843 5.52597 29.2166 5.34784 29.0611C5.23556 28.9629 5.14311 28.8428 5.07573 28.7075C5.00834 28.5721 4.96741 28.4244 4.95519 28.2727C4.94301 28.1209 4.95981 27.9682 5.00465 27.8232C5.0495 27.6782 5.12151 27.5438 5.21657 27.4277C5.41238 27.1928 5.68977 27.0477 5.98834 27.024C6.28691 27.0003 6.5824 27.1001 6.81032 27.3014C6.87598 27.35 10.6448 30.5194 17.4417 30.5194C24.2387 30.5194 28.0356 27.3305 28.0731 27.3014C28.3036 27.1019 28.6001 27.0035 28.8995 27.0271C29.1988 27.0506 29.4775 27.1944 29.6763 27.4277C29.8676 27.6592 29.963 27.9595 29.9419 28.2635C29.9209 28.5676 29.785 28.8507 29.5638 29.0514L29.5544 29.0416ZM4.94469 11.2501C4.96163 10.9371 5.09738 10.6438 5.32227 10.4342C5.54711 10.2248 5.84283 10.1161 6.14472 10.132C6.42457 10.1485 6.68866 10.2718 6.88601 10.4783C7.08336 10.6847 7.20003 10.9597 7.21347 11.2501V21.7403C7.21347 22.0523 7.09396 22.3515 6.88121 22.5721C6.6685 22.7927 6.37996 22.9166 6.0791 22.9166C5.77824 22.9166 5.48971 22.7927 5.27695 22.5721C5.0642 22.3515 4.94469 22.0523 4.94469 21.7403V11.2501ZM10.6354 8.91674C10.6524 8.60375 10.7881 8.31045 11.013 8.10092C11.2378 7.89143 11.5335 7.78274 11.8354 7.79866C12.1153 7.81513 12.3794 7.93852 12.5767 8.14497C12.7741 8.35142 12.8907 8.62633 12.9042 8.91674V24.4722C12.9042 24.7842 12.7847 25.0834 12.5719 25.304C12.3592 25.5246 12.0707 25.6486 11.7698 25.6486C11.4689 25.6486 11.1804 25.5246 10.9676 25.304C10.7549 25.0834 10.6354 24.7842 10.6354 24.4722V8.91674ZM16.3542 8.33341C16.3542 8.0214 16.4737 7.72217 16.6865 7.50158C16.8992 7.28094 17.1878 7.15699 17.4886 7.15699C17.7895 7.15699 18.078 7.28094 18.2907 7.50158C18.5035 7.72217 18.623 8.0214 18.623 8.33341V25.25C18.623 25.562 18.5035 25.8612 18.2907 26.0818C18.078 26.3024 17.7895 26.4264 17.4886 26.4264C17.1878 26.4264 16.8992 26.3024 16.6865 26.0818C16.4737 25.8612 16.3542 25.562 16.3542 25.25V8.33341ZM21.9793 8.91674C21.9793 8.60473 22.0988 8.3055 22.3116 8.08491C22.5243 7.86427 22.8128 7.74032 23.1137 7.74032C23.4146 7.74032 23.7031 7.86427 23.9158 8.08491C24.1286 8.3055 24.2481 8.60473 24.2481 8.91674V24.4722C24.2481 24.7842 24.1286 25.0834 23.9158 25.304C23.7031 25.5246 23.4146 25.6486 23.1137 25.6486C22.8128 25.6486 22.5243 25.5246 22.3116 25.304C22.0988 25.0834 21.9793 24.7842 21.9793 24.4722V8.91674ZM30.2575 2.5001H4.68219C4.1249 2.49623 3.57237 2.60641 3.05624 2.82434C2.54006 3.04222 2.07046 3.36357 1.67421 3.76994C1.27797 4.17636 0.962921 4.65978 0.747136 5.19261C0.531303 5.72541 0.418977 6.29716 0.416504 6.87508V33.1249C0.418977 33.7028 0.531303 34.2746 0.747136 34.8074C0.962921 35.3402 1.27797 35.8237 1.67421 36.2301C2.07046 36.6364 2.54006 36.9578 3.05624 37.1757C3.57237 37.3936 4.1249 37.5036 4.68219 37.4999H30.2575C30.814 37.5036 31.3658 37.3939 31.8814 37.1766C32.3969 36.9593 32.8661 36.6388 33.2622 36.2335C33.6583 35.8281 33.9735 35.3458 34.1899 34.8142C34.4063 34.2824 34.5195 33.7118 34.5232 33.1347V6.87508C34.5208 6.29796 34.4087 5.72704 34.1935 5.19485C33.9783 4.66267 33.6641 4.17967 33.2688 3.77339C32.8736 3.36716 32.405 3.04563 31.89 2.82714C31.3749 2.60864 30.8234 2.49753 30.2669 2.5001" fill="#232323"/>
</g>
<defs>
<clipPath id="clip0_35_409">
<rect width="139.167" height="40" fill="white" transform="translate(0.416504)"/>
</clipPath>
</defs>
</svg>
