<svg width="150" height="40" viewBox="0 0 150 40" fill="none" xmlns="http://www.w3.org/2000/svg">
<g clip-path="url(#clip0_35_392)">
<path d="M6.20645 18.3611C6.15262 18.2907 6.08152 18.2353 6.00004 18.2004C5.91856 18.1655 5.82945 18.1521 5.74131 18.1617C5.65318 18.1713 5.569 18.2034 5.49693 18.255C5.42485 18.3067 5.36731 18.376 5.32986 18.4564L0.888069 27.3372C0.847605 27.4181 0.8285 27.508 0.832568 27.5984C0.836636 27.6888 0.863742 27.7767 0.911313 27.8537C0.958883 27.9306 1.02534 27.9942 1.10437 28.0382C1.1834 28.0823 1.27239 28.1055 1.36287 28.1055H7.54784C7.6469 28.1078 7.7445 28.0813 7.82878 28.0292C7.91307 27.9771 7.98041 27.9016 8.02265 27.812C9.35682 25.055 8.54826 20.8632 6.20645 18.3611Z" fill="#232323"/>
<path d="M9.46434 10.2839C8.35757 11.9869 7.71259 13.9483 7.5927 15.9758C7.4728 18.0033 7.88211 20.0271 8.78045 21.8486L11.7623 27.8123C11.8064 27.9005 11.8741 27.9746 11.958 28.0265C12.0419 28.0783 12.1385 28.1058 12.2371 28.1058H18.421C18.5114 28.1058 18.6004 28.0826 18.6795 28.0386C18.7585 27.9945 18.8249 27.931 18.8725 27.854C18.9201 27.777 18.9472 27.6892 18.9513 27.5988C18.9553 27.5084 18.9362 27.4184 18.8958 27.3375C18.8958 27.3375 10.5764 10.6968 10.3673 10.2806C10.326 10.1959 10.2616 10.1245 10.1815 10.0747C10.1015 10.0249 10.009 9.99868 9.91478 9.99903C9.82051 9.99937 9.72825 10.0263 9.64858 10.0767C9.56891 10.1271 9.50505 10.1989 9.46434 10.2839Z" fill="#232323"/>
<path d="M81.9982 17.4043C81.9982 19.6034 83.0183 21.3494 87.0087 22.1201C89.3893 22.6199 89.888 23.0042 89.888 23.7978C89.888 24.5686 89.3882 25.0676 87.7114 25.0676C85.6848 25.0311 83.6987 24.4937 81.9302 23.5032V27.0851C83.1319 27.6745 84.7188 28.332 87.6662 28.332C91.8378 28.332 93.4929 26.4717 93.4929 23.707L81.9982 17.4043ZM93.4929 23.707C93.4929 21.0997 92.1099 19.8752 88.2104 19.0367C86.0565 18.5605 85.5351 18.0846 85.5351 17.4043C85.5351 16.5435 86.3059 16.1801 87.7342 16.1801C89.4574 16.1801 91.1578 16.7015 92.7674 17.4271V14.0035C91.224 13.301 89.543 12.9524 87.8475 12.9833C83.9932 12.9833 81.9982 14.661 81.9982 17.4043" fill="#232323"/>
<path d="M135.592 13.21V28.1055H138.766V16.7468L140.104 19.762L144.593 28.1055H148.583V13.21H145.409V22.823L144.207 20.0341L140.602 13.21H135.592Z" fill="#232323"/>
<path d="M115.404 13.21H111.936V28.1055H115.404V13.21Z" fill="#232323"/>
<path d="M107.933 23.707C107.933 21.0997 106.55 19.8752 102.65 19.0367C100.496 18.5605 99.975 18.0846 99.975 17.4043C99.975 16.5435 100.746 16.1801 102.174 16.1801C103.897 16.1801 105.598 16.7015 107.207 17.4271V14.0035C105.664 13.301 103.983 12.9524 102.287 12.9833C98.4332 12.9833 96.4381 14.661 96.4381 17.4043C96.4381 19.6034 97.4583 21.3494 101.449 22.1201C103.829 22.6199 104.328 23.0042 104.328 23.7978C104.328 24.5686 103.828 25.0676 102.151 25.0676C100.125 25.0311 98.1386 24.4937 96.3701 23.5032V27.0851C97.5718 27.6745 99.1587 28.332 102.106 28.332C106.278 28.332 107.933 26.4717 107.933 23.707Z" fill="#232323"/>
<path d="M55.0503 13.21V28.1055H62.1802L63.3027 24.886H58.5416V13.21H55.0503Z" fill="#232323"/>
<path d="M40.9644 13.21V16.4292H44.8186V28.1055H48.31V16.4292H52.4363V13.21H40.9644Z" fill="#232323"/>
<path d="M35.9017 13.21H31.3261L26.1318 28.1055H30.0985L30.8349 25.5968C32.6485 26.1294 34.5769 26.1294 36.3904 25.5968L37.1268 28.1055H41.0943L35.9017 13.21ZM33.6138 22.9107C32.9676 22.9107 32.3248 22.8182 31.7048 22.6361L33.6138 16.1357L35.5227 22.6383C34.9026 22.8197 34.2598 22.9114 33.6138 22.9107Z" fill="#232323"/>
<path d="M74.4722 13.21H69.8969L64.7026 28.1055H68.6702L69.4065 25.5968C71.2201 26.1294 73.1485 26.1294 74.962 25.5968L75.6984 28.1055H79.666L74.4722 13.21ZM72.1846 22.9107C71.5384 22.9107 70.8956 22.8182 70.2756 22.6361L72.1846 16.1357L74.0935 22.6383C73.4734 22.8197 72.8306 22.9114 72.1846 22.9107Z" fill="#232323"/>
<path d="M127.904 13.21H123.329L118.134 28.1055H122.102L122.838 25.5968C124.652 26.1294 126.58 26.1294 128.394 25.5968L129.13 28.1055H133.098L127.904 13.21ZM125.615 22.9107C124.969 22.9107 124.326 22.8182 123.706 22.6361L125.615 16.1357L127.524 22.6383C126.904 22.8197 126.261 22.9114 125.615 22.9107Z" fill="#232323"/>
</g>
<defs>
<clipPath id="clip0_35_392">
<rect width="148.333" height="40" fill="white" transform="translate(0.833496)"/>
</clipPath>
</defs>
</svg>
