<svg width="112" height="40" viewBox="0 0 112 40" fill="none" xmlns="http://www.w3.org/2000/svg">
<g clip-path="url(#clip0_35_412)">
<path fill-rule="evenodd" clip-rule="evenodd" d="M11.903 20.5157C11.903 14.7596 10.9368 12.3735 8.28069 12.3735C5.93803 12.3735 4.75473 14.0463 4.75473 19.8517C4.75473 25.583 5.67242 27.9447 8.37721 27.9447C10.7679 27.9447 11.903 26.2964 11.903 20.5157ZM0.166504 20.3683C0.166504 13.8986 4.53738 11.3405 8.42565 11.3405C12.5792 11.3405 16.4912 13.8742 16.4912 19.9746C16.4912 26.4932 12.1203 28.9778 8.23205 28.9778C4.07872 28.9778 0.166504 26.272 0.166504 20.3683Z" fill="#232323"/>
<path fill-rule="evenodd" clip-rule="evenodd" d="M36.1593 20.7863L40.2887 20.5649C40.2887 17.5886 39.9026 16.5061 38.4535 16.5061C37.2218 16.5061 36.2558 17.6869 36.1593 20.7863ZM32.3438 22.2377C32.3438 17.9575 35.4588 15.5714 38.6466 15.5714C41.9403 15.5714 44.0073 17.229 44.125 21.5657C44.1274 21.65 44.06 21.7211 43.9769 21.7211H36.311C36.2278 21.7211 36.1606 21.7922 36.1627 21.8767C36.2707 25.7841 37.7612 26.8624 40.2163 26.8624C41.4146 26.8624 42.3808 26.5787 43.1893 26.2135C43.2489 26.1864 43.3179 26.2023 43.3605 26.253L43.6816 26.6377C43.73 26.6958 43.7295 26.7816 43.6782 26.8368C42.7973 27.7831 41.0039 28.9779 38.6466 28.9779C34.4446 28.9779 32.3438 26.4195 32.3438 22.2377Z" fill="#232323"/>
<path fill-rule="evenodd" clip-rule="evenodd" d="M82.0718 22.4345C82.0718 17.4655 81.1302 16.5307 79.4879 16.5307C77.9664 16.5307 77.073 17.6623 77.073 21.8934C77.073 26.9363 77.8699 28.0184 79.6327 28.0184C81.082 28.0184 82.0718 27.1575 82.0718 22.4345ZM73.016 22.3116C73.016 17.5884 76.3001 15.5714 79.5605 15.5714C83.0621 15.5714 86.129 17.7115 86.129 22.1885C86.129 26.9115 82.893 28.9781 79.5605 28.9781C76.0588 28.9781 73.016 26.813 73.016 22.3116Z" fill="#232323"/>
<path fill-rule="evenodd" clip-rule="evenodd" d="M96.4759 22.4345C96.4759 17.4655 95.5343 16.5307 93.892 16.5307C92.3705 16.5307 91.4771 17.6623 91.4771 21.8934C91.4771 26.9363 92.2741 28.0184 94.0369 28.0184C95.486 28.0184 96.4759 27.1575 96.4759 22.4345ZM87.4199 22.3116C87.4199 17.5884 90.7042 15.5714 93.9643 15.5714C97.466 15.5714 100.533 17.7115 100.533 22.1885C100.533 26.9115 97.2971 28.9781 93.9643 28.9781C90.4629 28.9781 87.4199 26.813 87.4199 22.3116Z" fill="#232323"/>
<path fill-rule="evenodd" clip-rule="evenodd" d="M54.0524 15.5714C52.2896 15.5714 50.6957 16.3833 49.4159 17.3178H49.3192L49.3667 15.7669C49.3704 15.648 49.2698 15.5536 49.154 15.5669L45.7747 15.9571C45.6754 15.9684 45.6002 16.0539 45.6002 16.1558V28.4876C45.6002 28.5954 45.686 28.6826 45.7916 28.6826H49.2485C49.3541 28.6826 49.4399 28.5954 49.4399 28.4876V18.1789C49.9711 18.0558 50.8405 17.8592 51.686 17.8592C52.8209 17.8592 53.3523 18.3265 53.3523 19.827V28.4876C53.3523 28.5954 53.438 28.6826 53.5436 28.6826H57.0247C57.1303 28.6826 57.2162 28.5954 57.2162 28.4876V18.8679C57.2162 16.6538 56.1053 15.5714 54.0524 15.5714Z" fill="#232323"/>
<path fill-rule="evenodd" clip-rule="evenodd" d="M67.5764 26.4933C67.19 26.641 66.5379 27.0346 65.5478 27.0346C63.7124 27.0346 62.7465 25.7799 62.7465 21.9179C62.7465 17.859 63.9539 16.5553 65.6926 16.5553C66.5863 16.5553 67.1658 17.0718 67.5764 17.5884V26.4933ZM71.4161 13.1607C71.4161 11.8892 71.4586 10.7209 71.481 10.2414C71.4875 10.1012 71.3706 9.98847 71.2334 10.0009L67.7553 10.4033C67.654 10.4126 67.5764 10.499 67.5764 10.6028V14.0463C67.5764 14.9317 67.6247 15.8419 67.6247 15.8419C67.1176 15.6943 66.4414 15.5714 65.7895 15.5714C62.022 15.5714 58.7858 17.6132 58.7858 22.7298C58.7858 27.2067 61.1283 28.9779 63.5192 28.9779C65.2096 28.9779 66.562 28.2891 67.6005 27.3791H67.6971L67.648 28.7368C67.6425 28.8815 67.7665 28.9958 67.907 28.9756L71.2202 28.5988C71.3325 28.5829 71.4161 28.485 71.4161 28.3694V13.1607Z" fill="#232323"/>
<path fill-rule="evenodd" clip-rule="evenodd" d="M109.508 15.5714C108.107 15.5714 106.731 16.6538 105.982 17.4655H105.885L105.932 15.8125C105.936 15.6718 105.817 15.5599 105.68 15.5756L102.341 15.9573C102.241 15.9686 102.166 16.0541 102.166 16.1562V28.4511C102.166 28.579 102.268 28.6826 102.394 28.6826H105.779C105.904 28.6826 106.006 28.579 106.006 28.4511V18.4742C106.344 18.1543 106.9 17.8344 107.334 17.8344C107.552 17.8344 107.697 17.8837 107.841 18.1543C108.3 18.9168 108.664 19.3575 109.701 19.3575C110.643 19.3575 111.485 18.5971 111.485 17.4164C111.485 16.2108 110.667 15.5714 109.508 15.5714Z" fill="#232323"/>
<path fill-rule="evenodd" clip-rule="evenodd" d="M24.0415 27.9939C23.2204 27.9939 22.5685 27.6248 22.1336 27.1082V18.1542C22.52 18.0067 23.1238 17.7114 24.0898 17.7114C25.9252 17.7114 26.9637 18.9413 26.9637 22.459C26.9637 26.9608 25.9493 27.9939 24.0415 27.9939ZM26.1908 15.5715C24.5002 15.5715 23.1482 16.3832 22.1336 17.2688H22.0129L22.0595 15.7968C22.0638 15.6628 21.9502 15.556 21.8195 15.5711L18.4684 15.957C18.3689 15.9685 18.2939 16.0542 18.2939 16.1561V33.968C18.2939 34.0873 18.3958 34.1803 18.5124 34.1669L21.9593 33.7702C22.0586 33.7588 22.1336 33.6732 22.1336 33.5713V30.2325C22.1336 29.3716 22.1096 28.732 22.1096 28.732C22.6409 28.8795 23.4379 28.9778 23.945 28.9778C27.9779 28.9778 30.924 26.7394 30.924 21.6227C30.924 17.1211 28.485 15.5715 26.1908 15.5715Z" fill="#232323"/>
</g>
<defs>
<clipPath id="clip0_35_412">
<rect width="111.667" height="40" fill="white" transform="translate(0.166504)"/>
</clipPath>
</defs>
</svg>
