<svg width="78" height="40" viewBox="0 0 78 40" fill="none" xmlns="http://www.w3.org/2000/svg">
<g clip-path="url(#clip0_35_378)">
<path d="M68.6111 15.5189C70.6198 13.484 72.8456 14.0825 72.8456 16.0562C72.8456 17.9826 70.5649 20.0621 67.8142 21.674C67.5477 21.8271 67.2317 22.0052 66.9129 22.1639C66.8057 21.6795 66.7453 21.1422 66.7453 20.5437C66.7453 18.8985 67.435 16.7104 68.6111 15.5189ZM57.897 36.2918C55.2288 38.9949 51.8186 35.5485 55.7976 31.5175C56.6989 30.6044 58.1773 29.5995 59.7161 28.6836C60.5927 30.8884 59.8975 34.2568 57.897 36.2918ZM40.9012 25.4683C38.854 25.4683 37.5295 22.9823 37.939 19.9118C38.3401 16.8412 40.3269 14.3553 42.3713 14.3553C44.2646 14.3553 45.5397 16.4905 45.394 19.2465C45.3418 19.6445 45.2951 20.0287 45.2566 20.399C44.718 23.2357 42.833 25.4683 40.9012 25.4683ZM13.8783 24.4466C13.2105 25.1231 12.3944 25.4822 11.5673 25.4822C10.7951 25.4822 10.1274 25.1287 9.57504 24.5691C7.68173 22.6511 7.8466 17.9436 10.2785 15.4716C10.9682 14.7729 11.8008 14.3664 12.6582 14.3664C13.4249 14.3664 14.0981 14.7116 14.6504 15.2712C16.4338 17.0779 16.5382 21.7519 13.8783 24.4466ZM77.2258 25.4516C77.2258 25.4516 76.4674 24.377 76.2338 24.0708C76.0744 23.8704 75.8766 23.6254 75.3545 23.9873C74.2031 24.7696 72.9061 25.485 71.3068 25.485C70.0867 25.485 69.0178 25.1704 68.2237 24.4884C68.5562 24.3353 68.9051 24.1655 69.2624 23.9734C71.1502 22.9378 72.7247 21.6238 73.4831 20.8555C77.1571 17.1335 76.0057 11.5826 71.5294 11.5826C67.3004 11.5826 63.9589 15.7583 63.9589 20.3962C63.9589 21.0949 64.0413 22.0915 64.3381 23.1522C64.0881 23.2746 62.4146 24.0959 60.4058 25.2178C58.518 23.7813 55.5723 24.4271 55.5723 24.4271C58.3064 20.4964 62.4228 14.3553 62.7718 13.8486C63.0219 13.4867 62.9834 13.1276 62.7416 12.5597C62.4311 11.8777 62.1205 11.7524 61.6946 11.7524H53.1486C52.8683 11.7524 52.6485 11.8833 52.5661 12.2062C52.4891 12.5207 52.3078 13.6176 52.2775 13.9934C52.2391 14.3692 52.5881 14.6003 52.9508 14.6003H59.1418L53.5416 22.7151C53.5031 22.7457 53.4646 22.7847 53.4344 22.8376C52.6238 24.0263 51.3735 25.6938 49.8731 25.6938C48.9416 25.6938 47.7902 25.0173 47.7902 22.807C47.7902 20.6412 48.653 16.0673 49.2823 12.504C49.351 12.1199 49.2219 11.7441 48.6146 11.7441H47.1005C46.7515 11.7441 46.5536 11.9584 46.5014 12.2591C46.4108 12.8047 46.3201 13.342 46.2294 13.857C45.4792 12.4066 44.2811 11.5854 42.5472 11.5854C40.9397 11.5854 39.3734 12.1923 38.0928 13.4812C34.8943 16.7215 35.5016 22.0024 32.7427 24.7974C31.5528 26.0028 30.2036 25.6353 30.2036 23.2635C30.2036 20.5549 31.2258 17.5372 32.4019 14.6726C32.6053 14.166 32.3854 13.7428 32.1683 13.4144C31.8578 12.955 31.7369 12.7073 31.1763 12.7073C30.3053 12.7073 28.9121 13.2668 26.1229 13.2668C25.5321 13.2668 24.9633 13.2445 24.455 13.2056C24.4852 12.7824 24.4934 12.4985 24.5017 12.3927C24.5182 11.9946 24.3808 11.7413 23.9631 11.7413H22.5397C22.0231 11.7413 21.8967 11.9863 21.8362 12.3927C21.5944 14.1187 21.1327 20.4602 17.9946 23.6393C17.6319 24.0068 17.4121 24.1237 17.4121 24.1237C18.1925 22.5731 18.6157 20.5382 18.6157 18.9263C18.6157 14.3887 15.9639 11.5798 12.6362 11.5798C11.6195 11.5798 10.545 11.9111 9.53656 12.5458C10.0065 9.78147 10.4379 7.1953 10.589 6.32118C10.7182 5.58347 10.4516 5.1993 10.262 4.89308C9.94051 4.38921 9.65747 4.1665 9.2343 4.1665H4.32378C4.0435 4.1665 3.83191 4.36694 3.76321 4.68151C3.68077 5.04897 3.50491 6.01774 3.48292 6.46316C3.46643 6.85567 3.73298 7.00043 4.0435 7.00043H7.63501C7.05795 10.5693 5.96703 17.4871 5.63454 19.2214C5.2196 21.4318 3.66428 24.1404 1.05102 25.1008C0.724022 25.2233 0.589374 25.524 0.710282 25.8775C0.83119 26.2311 1.2791 27.1525 1.41375 27.3891C1.55114 27.6341 1.85341 27.7956 2.14194 27.6954C3.49941 27.211 4.74147 26.4287 5.72522 25.4377C5.96703 25.1927 6.20335 24.9143 6.42868 24.6164C7.60204 27.2889 9.98997 28.2633 12.4384 28.2633C15.2028 28.2633 18.1897 27.2889 20.2809 25.1621C22.7293 22.69 23.7515 18.5923 24.1829 15.6887C24.7902 15.7723 25.4799 15.8418 26.1367 15.8418C27.8184 15.8418 29.2281 15.4799 29.2281 15.4799C29.2281 15.4799 27.5326 20.0398 27.5326 23.4027C27.5326 27.1943 29.3215 28.2688 31.3055 28.2688C33.3444 28.2688 34.7761 26.7182 35.7983 24.8002C36.0649 25.3987 36.4578 26.1141 36.9964 26.657C37.9197 27.5924 39.0656 28.2688 40.7171 28.2688C42.6049 28.2688 44.2262 27.1636 45.3775 25.4683C45.5809 26.181 45.8996 26.7823 46.3311 27.2193C46.9136 27.8095 47.9826 28.2716 49.3235 28.2716C51.6263 28.2716 52.9618 26.5206 56.545 26.5206C56.9984 26.5206 57.4079 26.5902 57.7788 26.721C56.1356 27.7343 54.5748 28.8256 53.6185 29.7916C50.6645 32.7842 50.5271 36.7233 52.4671 38.6887C54.8166 41.0688 58.1663 39.8773 60.2575 37.7589C62.7059 35.2785 63.4176 30.5905 61.9996 27.3808C63.7116 26.4677 65.1432 25.7912 65.484 25.6298C66.5529 27.1108 68.3253 28.2716 71.2491 28.2716C73.3403 28.2716 75.4479 27.52 77.0911 26.2617C77.3549 26.0835 77.4072 25.7133 77.2258 25.4516Z" fill="#232323"/>
</g>
<defs>
<clipPath id="clip0_35_378">
<rect width="76.6667" height="40" fill="white" transform="translate(0.666504)"/>
</clipPath>
</defs>
</svg>
