<svg width="96" height="40" viewBox="0 0 96 40" fill="none" xmlns="http://www.w3.org/2000/svg">
<g clip-path="url(#clip0_35_415)">
<path d="M10.7571 10.9219V18.495H3.80201V10.9219H0.5V28.9996H3.80201V21.6724H10.7571V28.9996H14.0591V10.9219H10.7571Z" fill="#232323"/>
<path d="M24.6268 23.1556C24.6268 23.8801 24.339 24.5749 23.8267 25.0872C23.3144 25.5995 22.6196 25.8873 21.8951 25.8873C21.1706 25.8873 20.4758 25.5995 19.9635 25.0872C19.4512 24.5749 19.1634 23.8801 19.1634 23.1556V15.4126H16.0313V23.1556C16.0313 24.7093 16.6485 26.1993 17.7471 27.298C18.8457 28.3966 20.3358 29.0138 21.8895 29.0138C23.4431 29.0138 24.9332 28.3966 26.0318 27.298C27.1305 26.1993 27.7477 24.7093 27.7477 23.1556V15.4126H24.6268V23.1556Z" fill="#232323"/>
<path d="M47.8339 16.2106C47.8339 14.6235 48.8839 14.1204 50.0342 14.1204C50.9612 14.1204 52.1859 14.8257 52.9867 15.6816L55.0381 13.2645C54.014 11.8797 51.9367 10.9219 50.2364 10.9219C46.8389 10.9219 44.3814 12.9118 44.3814 16.2106C44.3814 22.3309 51.8623 20.3895 51.8623 23.8145C51.8623 24.8709 50.8366 25.8044 49.662 25.8044C47.8096 25.8044 47.2094 24.8984 46.3584 23.9407L44.0821 26.3076C45.5382 28.0953 47.334 29.0029 49.4857 29.0029C52.7133 29.0029 55.3099 26.9887 55.3099 23.8403C55.3099 17.0454 47.829 19.1567 47.829 16.2106" fill="#232323"/>
<path d="M94.1139 26.1116C92.2631 26.1116 91.7373 25.3108 91.7373 24.0844V18.6566H94.6138V15.9062H91.7373V12.2774L88.5615 13.7027V24.7591C88.5615 27.5871 90.5126 29.0124 93.1885 29.0124C93.6082 29.02 94.0276 28.9864 94.4407 28.9121L95.2157 26.0598C94.8662 26.0841 94.465 26.1083 94.1139 26.1083" fill="#232323"/>
<path d="M36.5495 15.5039C34.998 15.5039 33.9156 15.9537 32.8689 16.981V11.0306H29.7319V22.0594C29.7319 26.1881 32.7168 29.0161 36.0706 29.0161C39.7916 29.0161 43.0645 26.138 43.0645 22.2616C43.0645 18.4338 40.0521 15.5055 36.5495 15.5055V15.5039ZM36.5301 25.8597C35.8261 25.8597 35.138 25.651 34.5527 25.2599C33.9673 24.8688 33.5111 24.3129 33.2417 23.6625C32.9724 23.0121 32.9019 22.2965 33.0392 21.6061C33.1765 20.9156 33.5155 20.2815 34.0133 19.7837C34.5111 19.2859 35.1453 18.9469 35.8357 18.8096C36.5261 18.6723 37.2418 18.7427 37.8921 19.0121C38.5425 19.2815 39.0984 19.7377 39.4895 20.323C39.8806 20.9084 40.0893 21.5965 40.0893 22.3005C40.0893 23.2444 39.7143 24.1497 39.0468 24.8172C38.3793 25.4847 37.474 25.8597 36.5301 25.8597Z" fill="#232323"/>
<path d="M70.6113 22.0959C70.6113 18.2131 67.3449 15.3414 63.6174 15.3414C60.2636 15.3414 57.2787 18.1694 57.2787 22.2981V33.3334H60.4157V27.3749C61.4608 28.4006 62.5448 28.852 64.0947 28.852C67.5973 28.852 70.6097 25.9253 70.6097 22.0959H70.6113ZM67.641 22.0571C67.641 22.761 67.4322 23.4492 67.0411 24.0345C66.65 24.6198 66.0942 25.076 65.4438 25.3454C64.7934 25.6148 64.0778 25.6853 63.3874 25.5479C62.6969 25.4106 62.0627 25.0716 61.565 24.5738C61.0672 24.0761 60.7282 23.4419 60.5909 22.7514C60.4535 22.061 60.524 21.3454 60.7934 20.695C61.0628 20.0446 61.519 19.4888 62.1043 19.0977C62.6896 18.7066 63.3778 18.4978 64.0817 18.4978C65.0257 18.4978 65.931 18.8728 66.5985 19.5403C67.266 20.2078 67.641 21.1131 67.641 22.0571Z" fill="#232323"/>
<path d="M80.7139 15.2912V12.172C81.1261 11.9795 81.4752 11.6738 81.7204 11.2906C81.9655 10.9073 82.0968 10.4623 82.0988 10.0073V9.93454C82.0971 9.29874 81.8438 8.68947 81.3942 8.2399C80.9446 7.79032 80.3353 7.53699 79.6995 7.53528H79.6267C78.9909 7.53699 78.3817 7.79032 77.9321 8.2399C77.4825 8.68947 77.2292 9.29874 77.2275 9.93454V10.0073C77.2295 10.4623 77.3607 10.9073 77.6059 11.2906C77.8511 11.6738 78.2001 11.9795 78.6124 12.172V15.2912C77.4272 15.4724 76.311 15.9636 75.3767 16.7149L66.8118 10.051C66.8728 9.8312 66.9054 9.60448 66.9089 9.37639C66.9095 8.84106 66.7514 8.31757 66.4545 7.87211C66.1577 7.42665 65.7354 7.07923 65.241 6.87378C64.7467 6.66833 64.2025 6.61407 63.6774 6.71788C63.1522 6.82169 62.6696 7.0789 62.2907 7.45698C61.9117 7.83506 61.6533 8.31703 61.5482 8.84194C61.4432 9.36685 61.4961 9.91113 61.7004 10.406C61.9047 10.9008 62.2511 11.3239 62.6958 11.6218C63.1406 11.9198 63.6637 12.0792 64.199 12.0798C64.6692 12.078 65.1307 11.9525 65.537 11.7158L73.9578 18.2713C73.1993 19.4156 72.8036 20.762 72.8224 22.1347C72.8412 23.5074 73.2735 24.8426 74.063 25.9657L71.5003 28.5284C71.2946 28.4629 71.0804 28.428 70.8645 28.4248C70.4245 28.4248 69.9945 28.5553 69.6286 28.7997C69.2628 29.0442 68.9777 29.3916 68.8093 29.7981C68.6409 30.2046 68.5969 30.6518 68.6827 31.0834C68.7686 31.5149 68.9804 31.9112 69.2915 32.2224C69.6026 32.5335 69.999 32.7453 70.4305 32.8312C70.862 32.917 71.3093 32.8729 71.7158 32.7046C72.1223 32.5362 72.4697 32.2511 72.7141 31.8853C72.9586 31.5194 73.089 31.0893 73.089 30.6494C73.0861 30.4335 73.0512 30.2192 72.9855 30.0136L75.5207 27.4784C76.3482 28.1105 77.3092 28.5452 78.3304 28.7492C79.3516 28.9533 80.4058 28.9213 81.4128 28.6558C82.4197 28.3903 83.3526 27.8982 84.1404 27.2171C84.9281 26.536 85.5498 25.6839 85.9581 24.726C86.3663 23.768 86.5502 22.7294 86.4958 21.6894C86.4415 20.6495 86.1502 19.6357 85.6443 18.7256C85.1384 17.8154 84.4312 17.0328 83.5767 16.4376C82.7222 15.8424 81.743 15.4503 80.7139 15.2912ZM79.6639 25.5516C78.9702 25.5516 78.2921 25.3458 77.7153 24.9604C77.1385 24.575 76.6889 24.0272 76.4235 23.3863C76.158 22.7454 76.0885 22.0402 76.2239 21.3598C76.3592 20.6794 76.6933 20.0544 77.1838 19.5639C77.6743 19.0734 78.2993 18.7393 78.9797 18.604C79.6601 18.4687 80.3653 18.5381 81.0062 18.8036C81.6471 19.0691 82.1949 19.5186 82.5803 20.0954C82.9657 20.6722 83.1714 21.3504 83.1714 22.0441C83.1714 22.9743 82.8019 23.8665 82.1441 24.5242C81.4863 25.182 80.5942 25.5516 79.6639 25.5516Z" fill="#232323"/>
</g>
<defs>
<clipPath id="clip0_35_415">
<rect width="95" height="40" fill="white" transform="translate(0.5)"/>
</clipPath>
</defs>
</svg>
