<svg width="138" height="40" viewBox="0 0 138 40" fill="none" xmlns="http://www.w3.org/2000/svg">
<g clip-path="url(#clip0_35_405)">
<path d="M42.6043 25.0469C42.2085 25.1458 41.7137 25.2448 41.2189 25.2448C40.2293 25.2448 39.8335 24.651 39.8335 23.6615V19.2083H42.6043C43.297 19.2083 43.9897 18.7135 43.9897 17.9219C43.9897 17.1302 43.396 16.6354 42.6043 16.6354H39.8335V15.151C39.8335 14.2604 39.1408 13.6667 38.3491 13.6667C37.5575 13.6667 36.8647 14.3594 36.8647 15.151V23.7604C36.8647 26.2344 38.0522 28.0156 40.8231 28.0156C41.6147 28.0156 42.7033 27.9167 43.495 27.5208C44.1877 27.224 44.3856 26.7292 44.3856 26.2344C44.3856 25.5417 43.6929 24.849 42.6043 25.0469ZM52.5002 16.2396C52.1043 16.1406 51.3127 16.0417 50.62 16.0417C48.146 16.0417 46.7606 17.526 46.7606 19.8021V26.5312C46.7606 27.3229 47.4533 28.0156 48.245 28.0156C49.0366 28.0156 49.7293 27.3229 49.7293 26.5312V20.3958C49.7293 19.4062 50.1252 19.0104 50.8179 19.0104C51.5106 19.0104 51.9064 19.2083 52.5002 19.2083C53.3908 19.2083 53.8856 18.4167 53.8856 17.8229C53.7866 17.0313 53.3908 16.5365 52.5002 16.2396ZM60.7137 16.0417C57.9429 16.0417 55.9637 17.8229 55.6668 20.6927C55.6668 21.3854 55.5679 22.5729 55.6668 23.4635C55.8647 26.2344 57.8439 28.1146 60.8127 28.1146C62.1981 28.1146 63.4845 27.8177 64.2762 27.3229C64.87 26.9271 64.9689 26.5313 64.9689 26.1354C64.9689 25.3438 64.2762 24.5521 63.0887 24.9479C62.396 25.2448 61.6043 25.4427 60.8127 25.4427C59.4272 25.4427 58.3387 24.75 58.3387 23.3646V23.0677H63.9793C64.9689 23.0677 65.4637 22.474 65.4637 21.5833V21.0885C65.5627 18.0208 63.5835 16.0417 60.7137 16.0417ZM62.5939 21.0885H58.4377C58.4377 19.6042 59.1304 18.6146 60.7137 18.6146C62.0991 18.6146 62.8908 19.5052 62.7918 20.7917C62.7918 20.9896 62.7918 21.0885 62.5939 21.0885ZM72.5887 16.0417C69.8179 16.0417 67.8387 17.8229 67.5418 20.6927C67.5418 21.3854 67.4429 22.5729 67.5418 23.4635C67.7397 26.2344 69.7189 28.1146 72.6877 28.1146C74.0731 28.1146 75.3595 27.8177 76.1512 27.3229C76.7449 26.9271 76.8439 26.5313 76.8439 26.1354C76.8439 25.3438 76.1512 24.5521 74.9637 24.9479C74.271 25.2448 73.4793 25.4427 72.6877 25.4427C71.3022 25.4427 70.2137 24.75 70.2137 23.3646V23.0677H75.8543C76.8439 23.0677 77.3387 22.474 77.3387 21.5833V21.0885C77.4377 18.0208 75.4585 16.0417 72.5887 16.0417ZM74.4689 21.0885H70.3127C70.3127 19.6042 71.0054 18.6146 72.5887 18.6146C73.9741 18.6146 74.7658 19.5052 74.6668 20.7917C74.6668 20.9896 74.6668 21.0885 74.4689 21.0885ZM122.563 20.9896L120.979 20.5938C119.99 20.3958 119.693 20.099 119.693 19.6042C119.693 19.1094 120.188 18.7135 121.276 18.7135C121.87 18.7135 122.563 18.9115 123.156 19.2083C123.849 19.6042 124.641 19.5052 125.037 19.0104C125.531 18.5156 125.531 17.625 124.938 17.0312C124.146 16.4375 122.761 16.0417 121.375 16.0417C118.802 16.0417 116.922 17.3281 116.922 19.7031C116.922 21.5833 118.307 22.5729 120.089 23.0677C120.979 23.2656 120.88 23.2656 121.672 23.4635C122.563 23.6615 122.958 24.0573 122.958 24.4531C122.958 25.0469 122.464 25.4427 121.276 25.4427C120.287 25.4427 119.396 25.1458 118.703 24.75C118.011 24.2552 117.219 24.4531 116.823 25.0469C116.427 25.6406 116.526 26.4323 117.12 26.8281C117.912 27.5208 119.198 28.1146 121.276 28.1146C123.849 28.1146 125.828 26.7292 125.828 24.3542C125.828 22.5729 124.74 21.4844 122.563 20.9896ZM136.318 23.0677C137.307 23.0677 137.802 22.474 137.802 21.5833V21.0885C137.802 18.0208 135.823 16.0417 132.953 16.0417C130.182 16.0417 128.203 17.8229 127.906 20.6927C127.906 21.3854 127.807 22.5729 127.906 23.4635C128.104 26.2344 130.083 28.1146 133.052 28.1146C134.438 28.1146 135.724 27.8177 136.516 27.3229C137.11 26.9271 137.208 26.5313 137.208 26.1354C137.208 25.3438 136.516 24.5521 135.328 24.9479C134.636 25.2448 133.844 25.4427 133.052 25.4427C131.667 25.4427 130.578 24.75 130.578 23.3646V23.0677H136.318ZM132.953 18.6146C134.339 18.6146 135.13 19.5052 135.031 20.7917C135.031 20.9896 134.932 21.0885 134.833 21.0885H130.677C130.677 19.6042 131.469 18.6146 132.953 18.6146ZM96.7345 16.0417C93.7658 16.0417 91.5887 17.9219 91.2918 20.4948C91.1929 21.3854 91.1929 22.7708 91.2918 23.6615C91.4897 26.2344 93.7658 28.1146 96.7345 28.1146C99.7033 28.1146 101.88 26.2344 102.078 23.6615C102.177 22.7708 102.177 21.4844 102.078 20.5938C101.88 17.9219 99.7033 16.0417 96.7345 16.0417ZM99.1095 23.1667C99.0106 24.4531 98.12 25.2448 96.7345 25.2448C95.3491 25.2448 94.4585 24.3542 94.3595 23.1667C94.3595 22.5729 94.3595 21.5833 94.3595 20.9896C94.4585 19.7031 95.3491 18.9115 96.7345 18.9115C98.12 18.9115 99.0106 19.8021 99.1095 20.9896C99.2085 21.5833 99.2085 22.5729 99.1095 23.1667ZM84.9585 16.0417C83.87 16.0417 82.6825 16.4375 82.2866 16.9323V13.7656C82.2866 12.875 81.6929 12.2812 80.9012 12.2812C80.1095 12.2812 79.5158 12.974 79.5158 13.7656V26.5312C79.5158 27.3229 80.2085 28.0156 81.0002 28.0156C81.7918 28.0156 82.3856 27.3229 82.3856 26.5312V19.901C82.8804 19.4062 83.672 19.0104 84.6616 19.0104C85.8491 19.0104 86.5418 19.7031 86.5418 21.0885V26.5312C86.5418 27.4219 87.1356 28.1146 87.9272 28.1146C88.8179 28.1146 89.4116 27.4219 89.4116 26.5312V20.8906C89.3127 17.724 87.7293 16.0417 84.9585 16.0417ZM112.667 16.1406C111.875 16.1406 111.182 16.8333 111.182 17.625V24.651C110.688 24.9479 109.995 25.2448 109.104 25.2448C107.917 25.2448 107.026 24.5521 107.026 23.1667V17.625C107.026 16.7344 106.333 16.0417 105.542 16.0417C104.651 16.0417 104.156 16.7344 104.156 17.625V23.2656C104.156 26.3333 105.938 28.0156 109.005 28.0156C111.281 28.0156 112.865 27.224 113.557 26.7292C113.953 26.5312 114.052 26.2344 114.052 25.7396V17.625C114.052 16.8333 113.458 16.1406 112.667 16.1406Z" fill="#232323"/>
<path d="M25.9792 10.0052C24.8906 9.41146 23.2083 10.401 22.2188 12.1823L20.3385 15.349C19.6458 16.6354 19.7448 18.2188 20.6354 19.5052L20.7344 19.6042C21.625 20.7917 22.7135 21.9792 23.1094 22.375C23.3073 22.5729 23.5052 22.8698 23.6042 23.2656C23.901 24.3542 23.3073 25.5417 22.1198 25.8385C21.0313 26.1354 19.8438 25.5417 19.5469 24.3542C19.4479 24.0573 19.4479 23.7604 19.4479 23.5625C19.5469 23.0677 19.349 22.375 18.6563 21.5833C17.9635 20.8906 16.6771 22.276 16.1823 23.6615V23.7604C15.7865 25.1458 15.4896 26.4323 15.5885 26.5313C15.5885 26.6302 15.6875 26.6302 15.6875 26.7292C16.2813 27.9167 15.8854 29.3021 14.6979 29.8958C13.5104 30.4896 12.125 30.0938 11.5312 28.9063C10.9375 27.7188 11.3333 26.3333 12.5208 25.7396C12.6198 25.7396 12.6198 25.6406 12.7188 25.6406C12.8177 25.6406 13.0156 25.0469 13.3125 24.2552C13.5104 23.5625 13.6094 23.2656 13.7083 22.9688C13.8073 22.5729 14.0052 21.5833 13.9063 21.1875C13.8073 20.6927 13.3125 20.6927 12.8177 20.9896C12.5208 21.1875 11.9271 21.6823 11.7292 21.8802C11.2344 22.276 10.8385 22.8698 10.6406 23.3646C10.5417 23.5625 10.3438 23.8594 10.1458 24.0573C9.25521 24.75 7.96875 24.651 7.17708 23.7604C6.48438 22.8698 6.58333 21.5833 7.47396 20.7917C7.77083 20.5938 8.06771 20.3958 8.36458 20.3958C8.85938 20.2969 10.6406 19.2083 11.7292 18.4167C11.9271 18.3177 12.224 18.0208 12.3229 17.9219C12.6198 17.526 12.3229 17.2292 12.026 17.2292C11.1354 17.3281 10.1458 17.4271 9.94792 17.724C9.84896 17.8229 9.75 18.0208 9.55208 18.1198C8.76042 18.7135 7.57292 18.5156 6.97917 17.724C6.38542 16.9323 6.58333 15.7448 7.375 15.151C7.67188 14.8542 8.16667 14.7552 8.46354 14.7552C9.15625 14.7552 10.9375 15.151 12.3229 14.8542L12.7188 14.7552C14.2031 14.4583 15.9844 13.1719 16.6771 11.8854C16.6771 11.8854 17.3698 10.6979 18.1615 9.21354C19.0521 7.72917 18.9531 6.04688 18.0625 5.55208L16.3802 4.5625C15.4896 4.06771 14.2031 4.06771 13.3125 4.5625L1.83333 11.0938C0.942708 11.5885 0.25 12.776 0.25 13.7656V26.4323C0.25 27.4219 0.942708 28.6094 1.83333 29.1042L13.3125 35.6354C14.2031 36.1302 15.5885 36.1302 16.3802 35.6354L27.8594 29.1042C28.75 28.6094 29.4427 27.4219 29.4427 26.4323V13.7656C29.4427 12.776 28.75 11.5885 27.8594 11.0938C27.8594 11.0938 27.0677 10.599 25.9792 10.0052Z" fill="#232323"/>
</g>
<defs>
<clipPath id="clip0_35_405">
<rect width="137.5" height="40" fill="white" transform="translate(0.25)"/>
</clipPath>
</defs>
</svg>
