<svg width="140" height="40" viewBox="0 0 140 40" fill="none" xmlns="http://www.w3.org/2000/svg">
<g clip-path="url(#clip0_35_381)">
<path fill-rule="evenodd" clip-rule="evenodd" d="M3.78873 31.7519V28.3797H18.9637V31.7519H3.78873ZM15.7404 14.8908H7.0106L11.3762 20.9327L15.7404 14.8908ZM22.3359 11.5186L11.3762 26.6936L0.416504 11.5186H22.3359Z" fill="#232323"/>
<path d="M35.7112 28.381V22.9686H30.5207V28.381H27.3916V14.8921H30.5207V20.171H35.7112V14.8893H38.8403V28.3782L35.7112 28.381Z" fill="#232323"/>
<path d="M42.7885 28.3811V14.8922H51.3357V17.76H45.9177V20.1711H50.8509V22.8956H45.9177V25.5273H51.3357V28.3811H42.7885Z" fill="#232323"/>
<path d="M55.0635 28.3811V14.8922H58.1912V25.5301H63.6036V28.3839L55.0635 28.3811Z" fill="#232323"/>
<path d="M66.2295 28.3811V14.8922H69.3629V25.5301H74.7739V28.3839L66.2295 28.3811Z" fill="#232323"/>
<path d="M83.6007 28.6017C79.4219 28.6017 76.7536 25.6018 76.7536 21.6437C76.7536 17.6855 79.5512 14.6674 83.7299 14.6674C87.9087 14.6674 90.577 17.6686 90.577 21.6437C90.577 25.6187 87.7612 28.6017 83.6007 28.6017ZM83.6526 17.4663C81.5183 17.4663 80.0823 19.2142 80.0823 21.6437C80.0823 24.0731 81.5183 25.8224 83.6526 25.8224C85.787 25.8224 87.2244 24.0548 87.2244 21.6437C87.2244 19.2325 85.7912 17.4663 83.6526 17.4663Z" fill="#232323"/>
<path d="M97.3383 28.6017C95.811 28.6017 93.9661 27.9947 92.7929 27.2205L93.657 24.3864C94.7431 25.1775 96.1609 25.6931 97.4311 25.6931C98.5355 25.6931 98.9584 25.1775 98.9584 24.5157C98.9584 23.8131 98.6086 23.3368 96.5473 22.5092C94.1727 21.5523 93.3479 20.1711 93.3479 18.551C93.3479 16.5839 94.9483 14.6674 98.0957 14.6674C99.5682 14.6674 101.079 15.183 101.87 15.717L101.076 18.5145C100.302 17.9806 99.0512 17.4101 98.0929 17.4101C96.952 17.4101 96.4925 17.944 96.4925 18.4962C96.4925 19.38 97.1725 19.6751 98.8671 20.3917C101.388 21.4596 102.142 22.675 102.142 24.4047C102.142 26.5587 100.578 28.6017 97.3383 28.6017Z" fill="#232323"/>
<path d="M105.498 28.3811V14.8922H108.627V28.3811H105.498Z" fill="#232323"/>
<path d="M124.226 20.7978V27.2401C122.679 28.1583 120.908 28.6296 119.109 28.6017C115.152 28.6017 112.023 25.7676 112.023 21.6436C112.023 17.5197 115.189 14.6674 119.275 14.6674C121.042 14.6674 122.459 15.1282 123.802 15.828L122.495 18.3487C121.566 17.8595 120.533 17.6007 119.483 17.5942C116.795 17.5942 115.36 19.269 115.36 21.6436C115.36 24.2206 117.09 25.8224 119.294 25.8224C120.288 25.8224 120.785 25.7114 121.283 25.4543V23.4661H118.575V20.7964L124.226 20.7978Z" fill="#232323"/>
<path d="M139.086 28.6382L130.951 21.3317V28.3811H127.822V14.7053L128.243 14.6309L136.269 21.8825V14.8894H139.398V28.5834L139.086 28.6382Z" fill="#232323"/>
</g>
<defs>
<clipPath id="clip0_35_381">
<rect width="139.167" height="40" fill="white" transform="translate(0.416504)"/>
</clipPath>
</defs>
</svg>
