<svg width="112" height="40" viewBox="0 0 112 40" fill="none" xmlns="http://www.w3.org/2000/svg">
<g clip-path="url(#clip0_35_368)">
<path d="M12.7793 5H0.583496V34.1667L12.7793 5Z" fill="#232323"/>
<path d="M21.3604 5H33.5403V34.1667L21.3604 5Z" fill="#232323"/>
<path d="M17.07 15.75L24.8324 34.1669H19.7395L17.4196 28.3033H11.7388L17.07 15.75Z" fill="#232323"/>
<path d="M53.4366 23.5479L54.8747 27.6715C54.9224 27.7747 54.9939 27.8224 55.121 27.8224H57.8859C58.0369 27.8224 58.0607 27.7509 58.0369 27.6L52.3243 11.7335C52.3005 11.6064 52.2766 11.5825 52.1495 11.5825H48.7172C48.6219 11.5825 48.5663 11.654 48.5663 11.7573C48.5186 12.5916 48.4471 12.8458 48.3438 13.0921L43.2509 27.5761C43.2271 27.7509 43.2827 27.8224 43.4257 27.8224H45.8967C46.0476 27.8224 46.1191 27.7747 46.1748 27.6238L47.5334 23.5479H53.4366ZM48.32 20.8545C49.0668 18.5981 50.052 15.7061 50.4493 14.0535H50.4731C50.9657 15.7855 52.1257 19.2178 52.6501 20.8545H48.32Z" fill="#232323"/>
<path d="M65.381 28.0689C66.8667 28.0689 68.4478 27.7988 70.0527 27.1076C70.1799 27.0599 70.2037 27.0043 70.2037 26.8851C70.156 26.4402 70.1004 25.7966 70.1004 25.304V10.3671C70.1004 10.2718 70.1004 10.2241 69.9813 10.2241H67.2878C67.1846 10.2241 67.1369 10.2718 67.1369 10.3989V15.46C66.7158 15.4123 66.4218 15.3885 66.0722 15.3885C61.7262 15.3885 59.0566 18.2567 59.0566 21.8399C59.0566 25.9953 61.7977 28.0689 65.381 28.0689ZM67.1369 25.304C66.6919 25.447 66.1993 25.5027 65.6988 25.5027C63.7284 25.5027 62.1155 24.3903 62.1155 21.689C62.1155 19.2975 63.7761 17.8833 65.9769 17.8833C66.4218 17.8833 66.8111 17.9309 67.1369 18.058V25.304Z" fill="#232323"/>
<path d="M78.7961 15.3887C75.0857 15.3887 72.7896 18.233 72.7896 21.7448C72.7896 24.8831 74.6169 28.0691 78.7405 28.0691C82.2284 28.0691 84.6755 25.5029 84.6755 21.6653C84.6755 18.2807 82.6018 15.3887 78.7961 15.3887ZM78.6451 17.8835C80.7426 17.8835 81.6325 19.687 81.6325 21.7448C81.6325 24.2872 80.3216 25.5505 78.7961 25.5505C76.9131 25.5505 75.8008 23.9694 75.8008 21.6892C75.8008 19.3454 76.9846 17.8835 78.6451 17.8835Z" fill="#232323"/>
<path d="M87.4599 10.2241C87.3567 10.2241 87.2852 10.2718 87.2852 10.3989V27.3062C87.2852 27.3777 87.3567 27.5048 87.4599 27.5287C88.6438 27.8941 89.8832 28.0689 91.1624 28.0689C94.8251 28.0689 98.3845 25.7966 98.3845 21.2202C98.3845 17.9071 96.1122 15.3885 92.5528 15.3885C91.7344 15.3885 90.9717 15.5156 90.3043 15.7381L90.2725 10.4227C90.2725 10.248 90.2249 10.2241 90.0501 10.2241H87.4599ZM95.3415 21.5221C95.3415 24.2632 93.4665 25.5503 91.4405 25.5503C91.0194 25.5503 90.646 25.5265 90.3043 25.4232V18.209C90.6936 18.058 91.1624 17.9309 92.0284 17.9309C93.9829 17.9309 95.3415 19.1704 95.3415 21.5221Z" fill="#232323"/>
<path d="M108.436 22.4122C109.644 22.4122 110.637 22.3884 110.979 22.3089C111.106 22.2851 111.154 22.2374 111.177 22.1341C111.249 21.864 111.281 21.2999 111.281 20.6086C111.281 18.2569 109.866 15.3887 106.212 15.3887C102.477 15.3887 100.404 18.4317 100.404 21.864C100.404 24.907 102.009 28.0691 106.506 28.0691C108.19 28.0691 109.279 27.799 110.216 27.3541C110.311 27.3064 110.359 27.227 110.359 27.0839V25.0261C110.359 24.907 110.288 24.8831 110.216 24.9308C109.279 25.3281 108.262 25.5267 107.149 25.5267C104.631 25.5267 103.487 24.1363 103.415 22.4122H108.436ZM103.415 20.2829C103.614 19.0752 104.376 17.7643 106.085 17.7643C107.968 17.7643 108.46 19.3454 108.46 20.0604C108.46 20.0843 108.46 20.1875 108.46 20.2591C108.357 20.2829 108.039 20.2829 107.102 20.2829H103.415Z" fill="#232323"/>
</g>
<defs>
<clipPath id="clip0_35_368">
<rect width="110.833" height="40" fill="white" transform="translate(0.583496)"/>
</clipPath>
</defs>
</svg>
