<svg width="120" height="40" viewBox="0 0 120 40" fill="none" xmlns="http://www.w3.org/2000/svg">
<g clip-path="url(#clip0_35_385)">
<path fill-rule="evenodd" clip-rule="evenodd" d="M2.86591 29.8768C0.15599 27.1898 0.156033 22.8335 2.86599 20.1466L10.2264 12.8487C12.5172 10.5773 16.0114 10.226 18.6744 11.7949C19.4982 12.2801 19.4909 13.3933 18.8134 14.065C18.136 14.7367 17.03 14.6789 16.1104 14.4123C14.9328 14.0708 13.6085 14.3604 12.6798 15.2813L5.31943 22.5791C3.96445 23.9226 3.96443 26.1007 5.31939 27.4442C6.67438 28.7878 8.87129 28.7878 10.2263 27.4442L24.9469 12.8488C27.6569 10.1619 32.0506 10.1619 34.7606 12.8488L42.121 20.1466C44.831 22.8334 44.831 27.1898 42.121 29.8768C39.4111 32.5637 35.0174 32.5637 32.3073 29.8768L29.8539 27.4442L26.7871 30.485C24.4962 32.7564 21.0021 33.1076 18.339 31.5388C17.5153 31.0536 17.5225 29.9404 18.2 29.2687C18.8775 28.5969 19.9834 28.6547 20.9031 28.9214C22.0806 29.2629 23.4049 28.9732 24.3336 28.0524L27.4881 24.9248C28.7947 23.6293 30.9131 23.6293 32.2197 24.9248L34.7608 27.4442C36.1158 28.7877 38.3126 28.7877 39.6676 27.4442C41.0225 26.1007 41.0225 23.9226 39.6676 22.5791L32.3071 15.2814C30.9521 13.9379 28.7553 13.9379 27.4003 15.2814L12.6797 29.8769C9.9697 32.5638 5.57589 32.5638 2.86591 29.8768Z" fill="#232323"/>
<path d="M71.8709 14.7331C70.1657 14.7331 68.8739 15.3437 68.0213 16.565C67.2721 15.3437 66.0836 14.7331 64.5076 14.7331C62.8799 14.7331 61.6914 15.2929 60.9163 16.4377V15.0893H57.5834V27.8103H60.9163V20.6611C60.9163 18.8038 61.8722 17.7862 63.3449 17.7862C64.7142 17.7862 65.5152 18.6766 65.5152 20.2032V27.8103H68.8481V20.6611C68.8481 18.8038 69.7265 17.7862 71.2509 17.7862C72.6202 17.7862 73.4211 18.6766 73.4211 20.2032V27.8103H76.754V19.9741C76.754 16.7939 74.8421 14.7331 71.8709 14.7331Z" fill="#232323"/>
<path d="M89.1441 16.5904C88.1365 15.3437 86.7414 14.7331 84.9328 14.7331C83.2018 14.7331 81.7291 15.3946 80.489 16.6922C79.2747 17.9897 78.6545 19.5671 78.6545 21.4498C78.6545 23.3325 79.2747 24.9354 80.489 26.2329C81.7291 27.5304 83.2018 28.1665 84.9328 28.1665C86.7414 28.1665 88.1365 27.5558 89.1441 26.3092V27.8102H92.4772V15.0893H89.1441V16.5904ZM82.9951 24.0449C82.3233 23.3579 81.9874 22.4929 81.9874 21.4498C81.9874 20.4067 82.3233 19.5417 82.9951 18.8802C83.6669 18.1932 84.5194 17.8625 85.5529 17.8625C86.5863 17.8625 87.4389 18.1932 88.1107 18.8802C88.8083 19.5417 89.1441 20.4067 89.1441 21.4498C89.1441 22.4929 88.8083 23.3579 88.1107 24.0449C87.4389 24.7064 86.5863 25.0371 85.5529 25.0371C84.5194 25.0371 83.6669 24.7064 82.9951 24.0449Z" fill="#232323"/>
<path d="M104.775 17.2773V15.0893H95.0861V18.1677H100.279L94.827 25.6222V27.8102H105.033V24.7317H99.2967L104.775 17.2773Z" fill="#232323"/>
<path d="M118.968 22.7982C119.046 22.3149 119.097 21.8823 119.097 21.4498C119.097 19.5417 118.478 17.9643 117.238 16.6667C116.023 15.3692 114.447 14.7331 112.561 14.7331C110.572 14.7331 108.919 15.3692 107.652 16.6667C106.386 17.9388 105.74 19.5417 105.74 21.4498C105.74 23.3834 106.386 24.9863 107.678 26.2583C108.97 27.5304 110.675 28.1665 112.819 28.1665C115.299 28.1665 117.186 27.2505 118.452 25.4442L115.765 23.9177C115.119 24.7572 114.138 25.1898 112.871 25.1898C110.882 25.1898 109.668 24.4011 109.228 22.7982H118.968ZM109.177 20.254C109.564 18.6257 110.778 17.6844 112.561 17.6844C114.085 17.6844 115.377 18.524 115.765 20.254H109.177Z" fill="#232323"/>
</g>
<defs>
<clipPath id="clip0_35_385">
<rect width="118.333" height="40" fill="white" transform="translate(0.833496)"/>
</clipPath>
</defs>
</svg>
