<svg width="88" height="40" viewBox="0 0 88 40" fill="none" xmlns="http://www.w3.org/2000/svg">
<g clip-path="url(#clip0_35_388)">
<path d="M6.57724 25.7319H0.716285V28.6625H6.57724V25.7319Z" fill="#232323"/>
<path d="M15.366 25.7319H9.50877V28.6625H15.366V25.7319Z" fill="#232323"/>
<path d="M15.3676 19.871H0.712891V22.8016H15.3676V19.871Z" fill="#232323"/>
<path d="M9.50855 14.0105H0.716288V16.9409H9.50855V14.0105Z" fill="#232323"/>
<path d="M15.3691 14.0105H12.4387V16.9409H15.3691V14.0105Z" fill="#232323"/>
<path d="M57.9115 13.9938C53.2051 13.9938 50.7744 17.3221 50.7744 21.4277C50.7744 25.5335 53.1452 28.862 57.9115 28.862C62.6778 28.862 65.0486 25.5335 65.0486 21.4277C65.0488 17.3221 62.6178 13.9938 57.9115 13.9938ZM61.4721 21.441C61.4688 24.0811 60.5792 26.2195 57.9115 26.2195C55.2438 26.2195 54.354 24.0813 54.3513 21.441V21.4278C54.354 18.7879 55.244 16.6497 57.9117 16.6497C60.5792 16.6497 61.4688 18.7879 61.4721 21.4278V21.4345C61.4721 21.4367 61.4721 21.4388 61.4721 21.441Z" fill="#232323"/>
<path d="M36.8382 28.6622V8.10864C36.8382 8.10864 39.5492 7.72356 39.7594 7.69527C39.9975 7.6631 40.3136 7.83263 40.3136 8.1678V15.7871C40.8762 15.2522 41.4957 14.8211 42.1708 14.4926C42.8465 14.1644 43.6389 14.0001 44.5492 14.0001C45.3373 14.0001 46.0355 14.1338 46.6452 14.4013C47.2553 14.6682 47.7643 15.0439 48.1723 15.5266C48.5803 16.01 48.8899 16.5868 49.1011 17.2575C49.312 17.9282 49.4176 18.667 49.4176 19.4737V28.662H45.942V19.4737C45.942 18.5921 45.7379 17.9096 45.3299 17.4261C44.9217 16.9432 44.3096 16.7016 43.4932 16.7016C42.8929 16.7016 42.3304 16.8377 41.8053 17.11C41.2797 17.3821 40.7826 17.7522 40.3136 18.2216V28.6622H36.8382Z" fill="#232323"/>
<path d="M83.2373 28.8601C80.8456 28.8601 79.3466 27.4682 79.3466 24.8715V17.1758H76.6512C76.6512 17.1758 77.2242 15.1943 77.2694 15.0383C77.3149 14.8824 77.4334 14.7149 77.6714 14.6818C77.9093 14.6488 79.3433 14.4487 79.3433 14.4487L80.0057 10.2348C80.0057 10.2348 81.9519 9.96044 82.2604 9.9144C82.5518 9.87077 82.8159 10.0806 82.8159 10.398V14.4487H86.2249V17.1758H82.8159V24.7678C82.8159 25.8044 83.4471 26.2006 84.052 26.2006C84.4217 26.2006 84.9281 26.0042 85.306 25.829C85.5394 25.721 85.9012 25.8011 85.9948 26.127C86.0774 26.4158 86.5169 27.9485 86.5169 27.9485C86.1377 28.1933 84.9392 28.8601 83.2373 28.8601Z" fill="#232323"/>
<path d="M74.7422 17.2217C74.0648 17.0017 72.7916 16.6495 71.5805 16.6495C70.3465 16.6495 69.3756 17.0758 69.3756 18.1019C69.3756 19.3834 71.4681 19.7565 72.9005 20.2789C73.8581 20.6281 76.4262 21.309 76.4262 24.071C76.4262 27.426 73.64 28.8604 70.6678 28.8604C67.6953 28.8604 65.9392 27.7549 65.9392 27.7549C65.9392 27.7549 66.4003 26.1262 66.4936 25.8047C66.5781 25.5154 66.9144 25.4139 67.1287 25.4961C67.8937 25.791 69.275 26.2009 70.8364 26.2009C72.4173 26.2009 73.1821 25.7182 73.1821 24.6892C73.1821 23.3197 71.0474 22.9011 69.6355 22.4558C68.6629 22.1492 66.0886 21.4343 66.0886 18.3967C66.0886 15.4044 68.7161 14.0005 71.5243 14.0005C73.9014 14.0005 75.0674 14.4976 75.9383 14.9413C75.9383 14.9413 75.453 16.6327 75.3809 16.8847C75.2959 17.1842 75.0502 17.3215 74.7422 17.2217Z" fill="#232323"/>
<path d="M35.4821 14.4959C35.4821 14.1722 35.2055 13.9869 34.9417 14.0171C33.7754 14.1507 32.9433 14.6996 32.4049 15.2106C31.3478 14.3824 29.8805 13.9869 28.2337 13.9869C24.9319 13.9869 22.3522 15.5805 22.3522 19.0553C22.3522 21.0501 23.2013 22.4246 24.5498 23.2338C23.5483 23.7078 22.8813 24.7137 22.8813 25.7026C22.8813 27.3568 24.1882 27.8748 24.1882 27.8748C24.1882 27.8748 21.9031 28.9838 21.9031 31.2026C21.9031 34.043 24.517 35.1914 27.711 35.1914C32.3151 35.1914 35.4826 33.2898 35.4826 29.7982C35.4826 27.6492 33.8382 26.4629 30.2547 26.3219C28.1281 26.2379 26.7506 26.1614 26.4094 26.0484C25.9585 25.8987 25.7368 25.5377 25.7368 25.1391C25.7368 24.6991 26.0982 24.2802 26.668 23.9925C27.1649 24.0805 27.6894 24.1239 28.234 24.1239C31.5386 24.1239 34.1157 22.535 34.1157 19.0555C34.1157 18.2118 33.9634 17.4793 33.6864 16.8535C34.1719 16.5945 34.7692 16.4123 35.4824 16.4123C35.4824 16.4123 35.4821 14.7911 35.4821 14.4959ZM26.3829 28.6805C26.3829 28.6805 28.1168 28.7461 29.8494 28.8263C31.7959 28.9163 32.4025 29.3358 32.4025 30.3437C32.4025 31.5752 30.7109 32.7729 28.347 32.7729C26.103 32.7729 24.9822 31.9922 24.9822 30.6924C24.9822 29.9466 25.3759 29.1123 26.3829 28.6805ZM28.24 21.6984C26.6758 21.6984 25.4554 20.8676 25.4554 19.0553C25.4554 17.2429 26.6769 16.4121 28.24 16.4121C29.8032 16.4121 31.0245 17.2407 31.0245 19.0553C31.0245 20.87 29.8047 21.6984 28.24 21.6984Z" fill="#232323"/>
</g>
<defs>
<clipPath id="clip0_35_388">
<rect width="86.6667" height="40" fill="white" transform="translate(0.666504)"/>
</clipPath>
</defs>
</svg>
