<svg width="20" height="19" viewBox="0 0 20 19" fill="none" xmlns="http://www.w3.org/2000/svg">
<path fill-rule="evenodd" clip-rule="evenodd" d="M9.73178 0.134277C4.39737 0.134277 0.0732422 4.46517 0.0732422 9.80923C0.0732422 14.0831 2.84041 17.7099 6.67872 18.9887C7.16164 19.0776 7.33743 18.7791 7.33743 18.5222C7.33743 18.2933 7.3297 17.6838 7.32487 16.8773C4.63787 17.4617 4.07091 15.5802 4.07091 15.5802C3.63241 14.4618 2.99881 14.1643 2.99881 14.1643C2.12182 13.5654 3.06546 13.577 3.06546 13.577C4.03421 13.6446 4.54418 14.5738 4.54418 14.5738C5.40572 16.0515 6.80524 15.6246 7.35481 15.3774C7.44367 14.7525 7.69286 14.3265 7.9691 14.0851C5.8249 13.8407 3.56963 13.0101 3.56963 9.30313C3.56963 8.24745 3.94632 7.38301 4.5635 6.70691C4.46401 6.46255 4.13273 5.47835 4.65815 4.1474C4.65815 4.1474 5.46947 3.88662 7.31425 5.13837C8.10216 4.92348 8.91509 4.81402 9.73178 4.81287C10.5528 4.81674 11.3786 4.92395 12.1503 5.13837C13.9941 3.88662 14.8035 4.14643 14.8035 4.14643C15.3308 5.47835 14.9986 6.46255 14.9001 6.70691C15.5182 7.38301 15.893 8.24745 15.893 9.30313C15.893 13.0197 13.6338 13.8378 11.4829 14.0773C11.8296 14.3758 12.1377 14.9659 12.1377 15.869C12.1377 17.1613 12.1261 18.2054 12.1261 18.5222C12.1261 18.781 12.3 19.0824 12.7906 18.9877C14.7139 18.3427 16.3859 17.1095 17.5701 15.4624C18.7544 13.8154 19.3911 11.8378 19.3903 9.80923C19.3903 4.46517 15.0652 0.134277 9.73178 0.134277Z" fill="#222222"/>
</svg>
