<svg width="14" height="13" viewBox="0 0 14 13" fill="none" xmlns="http://www.w3.org/2000/svg"><path fill-rule="evenodd" clip-rule="evenodd" d="M1.867.867a.97.97 0 0 0-.66.254.84.84 0 0 0-.274.612v9.534c0 .23.099.45.274.613a.97.97 0 0 0 .66.253h10.266a.97.97 0 0 0 .66-.253.84.84 0 0 0 .274-.613V1.733c0-.23-.099-.45-.274-.612a.97.97 0 0 0-.66-.254zm.98 4.333H4.62v5.2H2.847zm1.89-1.729a.9.9 0 0 1-.294.659 1.04 1.04 0 0 1-.71.273c-.266 0-.521-.098-.71-.273a.9.9 0 0 1-.293-.659.9.9 0 0 1 .294-.659c.188-.174.443-.273.71-.273.265 0 .52.099.709.273a.9.9 0 0 1 .294.659M11.2 7.243c0-1.565-1.09-2.173-2.17-2.173a2.2 2.2 0 0 0-1.023.2c-.24.113-.49.368-.685.813h-.05V5.2H5.6v5.204h1.779V7.635c-.025-.283.072-.65.272-.867.2-.219.485-.27.702-.297h.068c.566 0 .986.325.986 1.144v2.788h1.779z" fill="#696CFF"/></svg>