<svg width="21" height="20" viewBox="0 0 21 20" fill="none" xmlns="http://www.w3.org/2000/svg">
<path d="M18.5942 0.135254H2.13317C1.34465 0.135254 0.707031 0.757777 0.707031 1.52744V18.0564C0.707031 18.826 1.34465 19.4523 2.13317 19.4523H18.5942C19.3827 19.4523 20.0241 18.826 20.0241 18.0601V1.52744C20.0241 0.757777 19.3827 0.135254 18.5942 0.135254ZM6.43801 16.5963H3.57064V7.37538H6.43801V16.5963ZM5.00433 6.11902C4.08375 6.11902 3.34049 5.37576 3.34049 4.45896C3.34049 3.54215 4.08375 2.7989 5.00433 2.7989C5.92113 2.7989 6.66439 3.54215 6.66439 4.45896C6.66439 5.37199 5.92113 6.11902 5.00433 6.11902ZM17.168 16.5963H14.3044V12.1141C14.3044 11.0464 14.2856 9.66929 12.8142 9.66929C11.3239 9.66929 11.0975 10.8351 11.0975 12.0386V16.5963H8.23767V7.37538H10.9843V8.63552H11.022C11.4031 7.91113 12.3388 7.14524 13.731 7.14524C16.6323 7.14524 17.168 9.05431 17.168 11.5369V16.5963Z" fill="#222222"/>
</svg>
