<svg width="49" height="55" viewBox="0 0 49 55" fill="none" xmlns="http://www.w3.org/2000/svg"><path d="M49 15.127c0-.641-.348-1.232-.908-1.544L25.358.953a1.77 1.77 0 0 0-1.716 0L.908 13.583c-.56.312-.908.903-.908 1.544V40.27c0 .641.348 1.232.908 1.544l22.734 12.63a1.77 1.77 0 0 0 1.716 0l22.734-12.63c.56-.312.908-.903.908-1.544zm-25.357-7.94a1.77 1.77 0 0 1 1.714 0l12.449 6.908c1.212.673 1.212 2.416 0 3.088l-4.223 2.343c-.7.389-1.566.245-2.188-.26a10.904 10.904 0 0 0-13.79 0c-.622.505-1.487.649-2.188.26l-4.223-2.343c-1.212-.672-1.212-2.415 0-3.088zM21.778 44.19a1.766 1.766 0 0 1-2.623 1.544L6.353 38.63a1.77 1.77 0 0 1-.909-1.544V23.242a1.766 1.766 0 0 1 2.624-1.543l4.667 2.594c.72.4 1.053 1.245.954 2.062q-.079.659-.078 1.344a10.87 10.87 0 0 0 6.861 10.113c.751.297 1.306.987 1.306 1.795zm-2.722-16.492c0-2.994 2.45-5.444 5.444-5.444s5.444 2.45 5.444 5.444-2.45 5.445-5.444 5.445-5.444-2.45-5.444-5.445m10.789 18.036a1.766 1.766 0 0 1-2.623-1.544v-4.557c0-.807.555-1.498 1.306-1.795a10.87 10.87 0 0 0 6.86-10.113q.002-.703-.081-1.382c-.1-.812.233-1.648.948-2.045l4.677-2.6a1.766 1.766 0 0 1 2.624 1.543v13.844c0 .641-.348 1.232-.91 1.544z" fill="#696CFF"/></svg>