<svg width="40" height="40" viewBox="0 0 40 40" fill="none" xmlns="http://www.w3.org/2000/svg">
<path d="M34.1434 12.0563C34.1434 11.6733 33.9357 11.3204 33.6009 11.1344L20.0227 3.59093C19.7042 3.41398 19.3169 3.41398 18.9983 3.59094L5.42008 11.1344C5.08527 11.3204 4.87762 11.6733 4.87762 12.0563V27.074C4.87762 27.457 5.08527 27.8099 5.42008 27.9959L18.9983 35.5394C19.3169 35.7163 19.7042 35.7163 20.0227 35.5394L33.6009 27.9959C33.9357 27.8099 34.1434 27.457 34.1434 27.074V12.0563ZM18.9987 7.31368C19.317 7.13702 19.704 7.13702 20.0223 7.31368L27.4577 11.4403C28.1815 11.842 28.1814 12.8829 27.4575 13.2846L24.9354 14.6839C24.517 14.916 23.9999 14.8301 23.6287 14.5282C22.5059 13.6153 21.0716 13.0616 19.5105 13.0616C17.9494 13.0616 16.5152 13.6153 15.3924 14.5282C15.0211 14.8301 14.504 14.916 14.0856 14.6839L11.5635 13.2846C10.8396 12.8829 10.8395 11.842 11.5634 11.4403L18.9987 7.31368ZM17.8846 29.4149C17.8846 30.2189 17.0212 30.7272 16.3182 30.3371L8.67222 26.0935C8.33719 25.9076 8.12938 25.5546 8.12938 25.1714V16.9032C8.12938 16.0989 8.99347 15.5906 9.69642 15.9814L12.4836 17.5308C12.9135 17.7698 13.1125 18.2744 13.0535 18.7627C13.0219 19.0241 13.007 19.2927 13.007 19.5651C13.007 22.3022 14.6984 24.653 17.1049 25.605C17.5534 25.7825 17.8846 26.1949 17.8846 26.6773V29.4149ZM16.2588 19.5651C16.2588 17.7767 17.722 16.3134 19.5105 16.3134C21.299 16.3134 22.7623 17.7767 22.7623 19.5651C22.7623 21.3536 21.299 22.8169 19.5105 22.8169C17.722 22.8169 16.2588 21.3536 16.2588 19.5651ZM22.7028 30.3371C21.9998 30.7272 21.1364 30.2189 21.1364 29.4149V26.6935C21.1364 26.2112 21.4676 25.7987 21.9161 25.6213C24.3226 24.6693 26.014 22.3185 26.014 19.5814C26.014 19.3017 25.9983 19.0259 25.9649 18.756C25.905 18.2711 26.1041 17.7717 26.5311 17.5343L29.3246 15.9814C30.0275 15.5906 30.8916 16.0989 30.8916 16.9032V25.1714C30.8916 25.5546 30.6838 25.9076 30.3488 26.0935L22.7028 30.3371Z" fill="white"/>
</svg>
