<svg width="13" height="12" viewBox="0 0 13 12" fill="none" xmlns="http://www.w3.org/2000/svg">
<path fill-rule="evenodd" clip-rule="evenodd" d="M11.3225 5.49563H7.09699V1.27016C7.09699 0.880715 6.78149 0.565918 6.39275 0.565918C6.00401 0.565918 5.6885 0.880715 5.6885 1.27016V5.49563H1.46303C1.07429 5.49563 0.758789 5.81043 0.758789 6.19988C0.758789 6.58932 1.07429 6.90412 1.46303 6.90412H5.6885V11.1296C5.6885 11.519 6.00401 11.8338 6.39275 11.8338C6.78149 11.8338 7.09699 11.519 7.09699 11.1296V6.90412H11.3225C11.7112 6.90412 12.0267 6.58932 12.0267 6.19988C12.0267 5.81043 11.7112 5.49563 11.3225 5.49563Z" fill="white"/>
</svg>
