<svg width="24" height="24" viewBox="0 0 24 24" fill="none" xmlns="http://www.w3.org/2000/svg">
<path fill-rule="evenodd" clip-rule="evenodd" d="M10.9662 6.16654L12.2462 4.88654C13.2766 3.85454 15.0862 3.13934 16.883 2.88174C17.6796 2.75764 18.4898 2.74686 19.2894 2.84974C19.9982 2.95534 20.4318 3.16334 20.6334 3.36654C20.8366 3.56814 21.0446 4.00174 21.1502 4.71054C21.2526 5.39374 21.2446 6.23054 21.1182 7.11694C20.8622 8.91374 20.1454 10.7233 19.1134 11.7537L11.9998 18.8689L10.1662 17.0353C10.092 16.961 10.0038 16.9019 9.90667 16.8616C9.80958 16.8213 9.70551 16.8006 9.60039 16.8005C9.49528 16.8004 9.39118 16.8211 9.29403 16.8612C9.19689 16.9014 9.10861 16.9603 9.03423 17.0345C8.88401 17.1845 8.79953 17.3881 8.79938 17.6004C8.79931 17.7055 8.81994 17.8096 8.8601 17.9067C8.90025 18.0039 8.95915 18.0922 9.03343 18.1665L11.4334 20.5665C11.5077 20.641 11.596 20.7002 11.6932 20.7405C11.7904 20.7808 11.8946 20.8016 11.9998 20.8016C12.1051 20.8016 12.2092 20.7808 12.3064 20.7405C12.4036 20.7002 12.4919 20.641 12.5662 20.5665L13.4414 19.6897L15.3134 22.8113C15.3759 22.9159 15.4613 23.0048 15.5633 23.0713C15.6653 23.1378 15.7811 23.1801 15.9019 23.1951C16.0227 23.21 16.1454 23.1972 16.2605 23.1576C16.3756 23.118 16.4802 23.0527 16.5662 22.9665L19.7662 19.7665C19.8541 19.6785 19.9202 19.5712 19.9594 19.4532C19.9986 19.3352 20.0097 19.2096 19.9918 19.0865L19.2478 13.8833L20.2462 12.8865C21.6142 11.5169 22.419 9.32654 22.7022 7.34254C22.8462 6.33934 22.8622 5.34254 22.7326 4.47214C22.6046 3.62734 22.323 2.79214 21.7662 2.23374C21.2078 1.67694 20.3726 1.39374 19.5262 1.26734C18.5733 1.14189 17.6073 1.15267 16.6574 1.29934C14.6718 1.57934 12.4798 2.38414 11.1134 3.75214L10.1166 4.75054L4.91343 4.00654C4.79035 3.9887 4.6648 3.9998 4.54676 4.03896C4.42872 4.07813 4.32144 4.14427 4.23343 4.23214L1.03343 7.43214C0.947297 7.51819 0.881941 7.62275 0.842338 7.73788C0.802735 7.853 0.78993 7.97564 0.804897 8.09647C0.819865 8.21729 0.862211 8.3331 0.928709 8.43508C0.995208 8.53706 1.0841 8.62252 1.18863 8.68494L4.30863 10.5569L3.43343 11.4321C3.35893 11.5065 3.29982 11.5947 3.25949 11.6919C3.21916 11.7891 3.1984 11.8933 3.1984 11.9985C3.1984 12.1038 3.21916 12.208 3.25949 12.3052C3.29982 12.4023 3.35893 12.4906 3.43343 12.5649L5.83343 14.9649C5.90781 15.0393 5.99611 15.0983 6.09329 15.1386C6.19048 15.1788 6.29464 15.1996 6.39983 15.1996C6.50502 15.1996 6.60918 15.1788 6.70636 15.1386C6.80354 15.0983 6.89185 15.0393 6.96623 14.9649C7.04061 14.8906 7.09961 14.8023 7.13987 14.7051C7.18012 14.6079 7.20084 14.5037 7.20084 14.3985C7.20084 14.2934 7.18012 14.1892 7.13987 14.092C7.09961 13.9948 7.04061 13.9065 6.96623 13.8321L5.13103 12.0001L6.16623 10.9665L10.9662 6.16654ZM16.1582 21.1105L14.6062 18.5233L17.8334 15.2977L18.3518 18.9169L16.1582 21.1105ZM5.47663 9.39214L8.70223 6.16654L5.08303 5.64814L2.89103 7.84014L5.47663 9.39214ZM3.76463 16.5665C3.83901 16.4923 3.89803 16.4041 3.93833 16.307C3.97862 16.2099 3.9994 16.1058 3.99947 16.0007C3.99955 15.8956 3.97892 15.7915 3.93876 15.6943C3.8986 15.5972 3.8397 15.5089 3.76543 15.4345C3.69115 15.3602 3.60295 15.3011 3.50587 15.2608C3.40878 15.2205 3.30471 15.1998 3.19959 15.1997C3.09448 15.1996 2.99038 15.2203 2.89323 15.2604C2.79609 15.3006 2.70781 15.3595 2.63343 15.4337L1.03343 17.0337C0.883421 17.184 0.799233 17.3876 0.799383 17.5999C0.799533 17.8122 0.884009 18.0157 1.03423 18.1657C1.18445 18.3158 1.3881 18.3999 1.60039 18.3998C1.81268 18.3996 2.01622 18.3152 2.16623 18.1649L3.76463 16.5665ZM6.16463 18.9665C6.24104 18.8927 6.30198 18.8045 6.34391 18.7069C6.38584 18.6093 6.40791 18.5043 6.40883 18.3981C6.40975 18.2918 6.38951 18.1865 6.34928 18.0882C6.30906 17.9899 6.24966 17.9005 6.17454 17.8254C6.09943 17.7503 6.01011 17.6909 5.91179 17.6507C5.81347 17.6105 5.70813 17.5902 5.60191 17.5911C5.49568 17.5921 5.39071 17.6141 5.2931 17.6561C5.1955 17.698 5.10722 17.7589 5.03343 17.8353L1.83343 21.0353C1.68342 21.1856 1.59923 21.3892 1.59938 21.6015C1.59953 21.8138 1.68401 22.0173 1.83423 22.1673C1.98445 22.3173 2.1881 22.4015 2.40039 22.4014C2.61268 22.4012 2.81622 22.3168 2.96623 22.1665L6.16463 18.9665ZM8.56463 21.3665C8.63901 21.2923 8.69803 21.2041 8.73833 21.107C8.77862 21.0099 8.7994 20.9058 8.79947 20.8007C8.79955 20.6956 8.77892 20.5915 8.73876 20.4943C8.6986 20.3972 8.6397 20.3089 8.56543 20.2345C8.49115 20.1602 8.40295 20.1011 8.30587 20.0608C8.20878 20.0205 8.10471 19.9998 7.99959 19.9997C7.89448 19.9996 7.79038 20.0203 7.69323 20.0604C7.59609 20.1006 7.50781 20.1595 7.43343 20.2337L5.83343 21.8337C5.68342 21.984 5.59923 22.1876 5.59938 22.3999C5.59953 22.6122 5.68401 22.8157 5.83423 22.9657C5.98445 23.1157 6.1881 23.1999 6.40039 23.1998C6.61268 23.1996 6.81622 23.1152 6.96623 22.9649L8.56463 21.3665ZM15.1998 10.7985C15.4623 10.7985 15.7221 10.7469 15.9646 10.6464C16.207 10.546 16.4273 10.3988 16.6129 10.2132C16.7985 10.0277 16.9457 9.80735 17.0461 9.5649C17.1465 9.32244 17.1982 9.06257 17.1982 8.80014C17.1982 8.53771 17.1465 8.27784 17.0461 8.03539C16.9457 7.79293 16.7985 7.57263 16.6129 7.38706C16.4273 7.20149 16.207 7.05429 15.9646 6.95386C15.7221 6.85343 15.4623 6.80174 15.1998 6.80174C14.6698 6.80174 14.1615 7.01229 13.7867 7.38706C13.412 7.76183 13.2014 8.27013 13.2014 8.80014C13.2014 9.33015 13.412 9.83845 13.7867 10.2132C14.1615 10.588 14.6698 10.7985 15.1998 10.7985Z" fill="white"/>
</svg>
