<svg width="12" height="12" viewBox="0 0 12 12" fill="none" xmlns="http://www.w3.org/2000/svg">
<path d="M8.625 0.75L9.22238 1.875L10.5 2.03025L9.5625 2.87512L9.75 4.125L8.625 3.42188L7.5 4.125L7.6875 2.87512L6.75 2.03025L8.0625 1.875L8.625 0.75Z" fill="#696CFF"/>
<path d="M8.51883 4.96838L7.79208 4.78163C7.66181 5.28347 7.38572 5.73544 6.9987 6.08044C6.61167 6.42544 6.13108 6.64799 5.61763 6.71998C5.10418 6.79197 4.58091 6.71016 4.11393 6.48489C3.64695 6.25963 3.25722 5.90101 2.99396 5.45434C2.73071 5.00768 2.60574 4.49301 2.63486 3.97535C2.66397 3.4577 2.84586 2.96029 3.15754 2.54596C3.46922 2.13163 3.89671 1.81898 4.38601 1.64749C4.8753 1.47601 5.40444 1.4534 5.90658 1.5825L6.0937 0.85613C5.3617 0.665724 4.58693 0.72701 3.89396 1.03013C3.20099 1.33326 2.63009 1.86061 2.27304 2.5274C1.916 3.19418 1.79355 3.96167 1.9254 4.70646C2.05724 5.45124 2.43571 6.13005 2.99995 6.63375V11.25L5.24995 9.75L7.49995 11.25V6.6405C7.99801 6.1966 8.35268 5.61452 8.51883 4.96838ZM6.74995 9.84863L5.24995 8.8485L3.74995 9.84863V7.14375C4.21534 7.37755 4.72888 7.49949 5.24969 7.49988C5.7705 7.50027 6.28422 7.3791 6.74995 7.146V9.84863Z" fill="#696CFF"/>
</svg>
